%FSLAX25Y25*%
%MOIN*%
G70*
G01*
G75*
G04 Layer_Color=16711935*
%ADD10O,0.01575X0.05906*%
%ADD11R,0.01575X0.05906*%
%ADD12R,0.03937X0.04331*%
%ADD13R,0.03000X0.03000*%
%ADD14R,0.02756X0.03543*%
%ADD15R,0.07480X0.02362*%
%ADD16R,0.04528X0.01181*%
%ADD17R,0.04528X0.02362*%
%ADD18R,0.04724X0.03937*%
%ADD19R,0.04528X0.05512*%
%ADD20R,0.03000X0.03000*%
%ADD21R,0.04331X0.03937*%
%ADD22C,0.00600*%
%ADD23C,0.01000*%
%ADD24O,0.08263X0.03937*%
%ADD25O,0.07082X0.03937*%
%ADD26C,0.02559*%
%ADD27C,0.05906*%
%ADD28R,0.05906X0.05906*%
%ADD29R,0.05906X0.05906*%
%ADD30C,0.02000*%
%ADD31C,0.00394*%
%ADD32C,0.02362*%
%ADD33C,0.00984*%
%ADD34C,0.01181*%
%ADD35C,0.00787*%
%ADD36C,0.00197*%
%ADD37C,0.00800*%
%ADD38C,0.00100*%
%ADD39C,0.00300*%
%ADD40O,0.02375X0.06706*%
%ADD41R,0.02375X0.06706*%
%ADD42R,0.04737X0.05131*%
%ADD43R,0.03800X0.03800*%
%ADD44R,0.03556X0.04343*%
%ADD45R,0.08280X0.03162*%
%ADD46R,0.05328X0.01981*%
%ADD47R,0.05328X0.03162*%
%ADD48R,0.05524X0.04737*%
%ADD49R,0.05328X0.06312*%
%ADD50R,0.03800X0.03800*%
%ADD51R,0.05131X0.04737*%
%ADD52O,0.09063X0.04737*%
%ADD53O,0.07882X0.04737*%
%ADD54C,0.03359*%
%ADD55C,0.06706*%
%ADD56R,0.06706X0.06706*%
%ADD57R,0.06706X0.06706*%
%ADD58C,0.00500*%
D31*
X531004Y196909D02*
G03*
X531004Y196909I-1969J0D01*
G01*
X517224Y226831D02*
X532776D01*
X517224Y193169D02*
X532776D01*
X517224D02*
Y226831D01*
X532776Y193169D02*
Y226831D01*
D38*
X501535Y236084D02*
Y238053D01*
X500551Y237068D02*
X502520D01*
X494935Y235884D02*
Y237853D01*
X493951Y236868D02*
X495920D01*
X488335Y235884D02*
Y237853D01*
X487351Y236868D02*
X489320D01*
X482335Y235884D02*
Y237853D01*
X481351Y236868D02*
X483320D01*
X546600Y206616D02*
X546600Y208584D01*
X545616Y207600D02*
X547584Y207600D01*
X484416Y193200D02*
X486384Y193200D01*
X485400Y194184D02*
X485400Y192216D01*
X546600Y192816D02*
X546600Y194784D01*
X545616Y193800D02*
X547584Y193800D01*
X559416Y239400D02*
X561384Y239400D01*
X560400Y240384D02*
X560400Y238416D01*
D58*
X499961Y235297D02*
X503110D01*
Y233919D02*
Y235297D01*
X499961Y238840D02*
X503110D01*
Y240218D01*
Y233919D02*
Y240218D01*
X499961Y233919D02*
X503110Y233919D01*
X499961Y233919D02*
Y240218D01*
X503110Y240218D01*
X493361Y235097D02*
X496510D01*
Y233719D02*
Y235097D01*
X493361Y238640D02*
X496510D01*
Y240018D01*
Y233719D02*
Y240018D01*
X493361Y233719D02*
X496510Y233719D01*
X493361Y233719D02*
Y240018D01*
X496510Y240018D01*
X486761Y235097D02*
X489910D01*
Y233719D02*
Y235097D01*
X486761Y238640D02*
X489910D01*
Y240018D01*
Y233719D02*
Y240018D01*
X486761Y233719D02*
X489910Y233719D01*
X486761Y233719D02*
Y240018D01*
X489910Y240018D01*
X480761Y235097D02*
X483910D01*
Y233719D02*
Y235097D01*
X480761Y238640D02*
X483910D01*
Y240018D01*
Y233719D02*
Y240018D01*
X480761Y233719D02*
X483910Y233719D01*
X480761Y233719D02*
Y240018D01*
X483910Y240018D01*
X545025Y209372D02*
X548175Y209372D01*
X545025Y209372D02*
X545025Y210750D01*
Y205828D02*
X548175Y205828D01*
X545025Y204450D02*
X545025Y205828D01*
X545025Y204450D02*
X545025Y210750D01*
X548175Y210750D01*
X548175Y204450D01*
X545025Y204450D02*
X548175Y204450D01*
X483628Y194775D02*
X483628Y191625D01*
X482250Y191625D02*
X483628Y191625D01*
X487172Y191625D02*
X487172Y194775D01*
X487172Y191625D02*
X488550Y191625D01*
X482250Y191625D02*
X488550Y191625D01*
X482250Y194775D02*
X482250Y191625D01*
X482250Y194775D02*
X488550Y194775D01*
X488550Y191625D02*
X488550Y194775D01*
X545025Y192028D02*
X548175Y192028D01*
X548175Y190650D02*
X548175Y192028D01*
X545025Y195572D02*
X548175Y195572D01*
X548175Y196950D01*
X548175Y190650D02*
X548175Y196950D01*
X545025Y190650D02*
X548175Y190650D01*
X545025Y196950D02*
X545025Y190650D01*
X545025Y196950D02*
X548175Y196950D01*
X558628Y240975D02*
X558628Y237825D01*
X557250Y237825D02*
X558628Y237825D01*
X562172Y237825D02*
X562172Y240975D01*
X562172Y237825D02*
X563550Y237825D01*
X557250Y237825D02*
X563550Y237825D01*
X557250Y240975D02*
X557250Y237825D01*
X557250Y240975D02*
X563550Y240975D01*
X563550Y237825D02*
X563550Y240975D01*
M02*
