%FSLAX25Y25*%
%MOIN*%
G70*
G01*
G75*
G04 Layer_Color=65535*
%ADD10O,0.01575X0.05906*%
%ADD11R,0.01575X0.05906*%
%ADD12R,0.03937X0.04331*%
%ADD13R,0.03000X0.03000*%
%ADD14R,0.02756X0.03543*%
%ADD15R,0.07480X0.02362*%
%ADD16R,0.04528X0.01181*%
%ADD17R,0.04528X0.02362*%
%ADD18R,0.04724X0.03937*%
%ADD19R,0.04528X0.05512*%
%ADD20R,0.03000X0.03000*%
%ADD21R,0.04331X0.03937*%
%ADD22C,0.00600*%
%ADD23C,0.01000*%
%ADD24O,0.08263X0.03937*%
%ADD25O,0.07082X0.03937*%
%ADD26C,0.02559*%
%ADD27C,0.05906*%
%ADD28R,0.05906X0.05906*%
%ADD29R,0.05906X0.05906*%
%ADD30C,0.02000*%
%ADD31C,0.00394*%
%ADD32C,0.02362*%
%ADD33C,0.00984*%
%ADD34C,0.01181*%
%ADD35C,0.00787*%
%ADD36C,0.00197*%
%ADD37C,0.00800*%
%ADD38C,0.00100*%
%ADD39C,0.00300*%
G36*
X488343Y236050D02*
X487162Y237624D01*
X489524D01*
X488343Y236050D01*
D02*
G37*
G36*
X482343D02*
X481162Y237624D01*
X483524D01*
X482343Y236050D01*
D02*
G37*
G36*
X501543Y236250D02*
X500362Y237824D01*
X502724D01*
X501543Y236250D01*
D02*
G37*
G36*
X494943Y236050D02*
X493762Y237624D01*
X496124D01*
X494943Y236050D01*
D02*
G37*
D22*
X499232Y233809D02*
Y242287D01*
X503839Y233809D02*
Y242287D01*
X499232Y232051D02*
X499232Y233809D01*
X503839Y232051D02*
Y233809D01*
X492632Y233609D02*
Y242087D01*
X497239Y233609D02*
Y242087D01*
X492632Y231851D02*
X492632Y233609D01*
X497239Y231851D02*
Y233609D01*
X486032D02*
Y242087D01*
X490639Y233609D02*
Y242087D01*
X486032Y231851D02*
X486032Y233609D01*
X490639Y231851D02*
Y233609D01*
X480032D02*
Y242087D01*
X484639Y233609D02*
Y242087D01*
X480032Y231851D02*
X480032Y233609D01*
X484639Y231851D02*
Y233609D01*
X548903Y202381D02*
X548903Y210860D01*
X544297Y210860D02*
X544297Y202381D01*
X548903Y210860D02*
X548903Y212618D01*
X544297Y210860D02*
X544297Y212618D01*
X482140Y195503D02*
X490619Y195503D01*
X482140Y190897D02*
X490619Y190897D01*
X480382Y195503D02*
X482140Y195503D01*
X480382Y190897D02*
X482140Y190897D01*
X544297Y190540D02*
X544297Y199019D01*
X548903Y199019D02*
X548903Y190540D01*
X544297Y188782D02*
X544297Y190540D01*
X548903Y188782D02*
X548903Y190540D01*
X557140Y241703D02*
X565619Y241703D01*
X557140Y237097D02*
X565619Y237097D01*
X555382Y241703D02*
X557140Y241703D01*
X555382Y237097D02*
X557140Y237097D01*
D23*
X553300Y198600D02*
Y232600D01*
X564300Y198600D02*
X570300D01*
X579800Y232600D02*
X585800D01*
Y198600D02*
Y232600D01*
X579800Y198600D02*
X585800D01*
X564300Y232600D02*
X570300D01*
D31*
X506480Y212826D02*
G03*
X506480Y211546I0J-640D01*
G01*
X480889Y217953D02*
X506480D01*
X480889Y206418D02*
Y217953D01*
Y206418D02*
X506480D01*
X506480Y211546D01*
X506480Y212826D02*
X506480Y217953D01*
D32*
X527067Y197008D02*
G03*
X527067Y197008I-1181J0D01*
G01*
D33*
X535630Y189154D02*
G03*
X535630Y189154I-492J0D01*
G01*
D34*
X535529Y245080D02*
G03*
X535529Y245080I-591J0D01*
G01*
D35*
X545616Y217088D02*
X547584D01*
X532416Y244912D02*
X534384D01*
X520177Y226929D02*
X529823D01*
X520177Y193071D02*
X529823D01*
X520177D02*
Y226929D01*
X529823Y193071D02*
Y226929D01*
X469000Y257000D02*
X549000D01*
X469000Y247000D02*
Y257000D01*
Y247000D02*
X549000D01*
Y257000D01*
X467800Y228200D02*
X477800D01*
Y188200D02*
Y228200D01*
X467800Y188200D02*
Y228200D01*
Y188200D02*
X477800D01*
X467200Y186200D02*
X547200D01*
X467200Y176200D02*
Y186200D01*
Y176200D02*
X547200D01*
Y186200D01*
D36*
X556389Y188305D02*
X556389Y176495D01*
X556389Y188305D02*
X580011D01*
X580011Y176495D01*
X556389Y176495D02*
X580011Y176495D01*
X556389Y256105D02*
X580011Y256105D01*
X556389Y256105D02*
X556389Y244295D01*
X580011D01*
X580011Y256105D02*
X580011Y244295D01*
D37*
X536907Y229332D02*
Y245868D01*
X550293D01*
X536907Y229332D02*
X550293D01*
Y245868D01*
D38*
X541334Y220933D02*
X541001Y220600D01*
Y219933D01*
X541334Y219600D01*
X542667D01*
X543000Y219933D01*
Y220600D01*
X542667Y220933D01*
X543000Y222932D02*
Y221599D01*
X541667Y222932D01*
X541334D01*
X541001Y222599D01*
Y221933D01*
X541334Y221599D01*
X528734Y238333D02*
X528401Y238000D01*
Y237333D01*
X528734Y237000D01*
X530067D01*
X530400Y237333D01*
Y238000D01*
X530067Y238333D01*
X528401Y240332D02*
Y238999D01*
X529400D01*
X529067Y239666D01*
Y239999D01*
X529400Y240332D01*
X530067D01*
X530400Y239999D01*
Y239333D01*
X530067Y238999D01*
X541334Y207133D02*
X541001Y206800D01*
Y206133D01*
X541334Y205800D01*
X542667D01*
X543000Y206133D01*
Y206800D01*
X542667Y207133D01*
X543000Y207799D02*
Y208466D01*
Y208133D01*
X541001D01*
X541334Y207799D01*
X568666Y239867D02*
X568999Y240200D01*
Y240867D01*
X568666Y241200D01*
X567333D01*
X567000Y240867D01*
Y240200D01*
X567333Y239867D01*
X568999Y237868D02*
X568666Y238534D01*
X568000Y239201D01*
X567333D01*
X567000Y238867D01*
Y238201D01*
X567333Y237868D01*
X567666D01*
X568000Y238201D01*
Y239201D01*
X541334Y193333D02*
X541001Y193000D01*
Y192333D01*
X541334Y192000D01*
X542667D01*
X543000Y192333D01*
Y193000D01*
X542667Y193333D01*
X543000Y194999D02*
X541001D01*
X542000Y193999D01*
Y195332D01*
X493333Y193666D02*
X493000Y193999D01*
X492333D01*
X492000Y193666D01*
Y192333D01*
X492333Y192000D01*
X493000D01*
X493333Y192333D01*
X493999Y193666D02*
X494333Y193999D01*
X494999D01*
X495332Y193666D01*
Y193333D01*
X494999Y193000D01*
X494666D01*
X494999D01*
X495332Y192666D01*
Y192333D01*
X494999Y192000D01*
X494333D01*
X493999Y192333D01*
X527867Y188534D02*
X528200Y188201D01*
X528867D01*
X529200Y188534D01*
Y189867D01*
X528867Y190200D01*
X528200D01*
X527867Y189867D01*
X527201Y188201D02*
Y190200D01*
Y189200D01*
X525868D01*
Y188201D01*
Y190200D01*
X525201D02*
X524535D01*
X524868D01*
Y188201D01*
X525201Y188534D01*
X500400Y244399D02*
Y242400D01*
X501400D01*
X501733Y242733D01*
Y244066D01*
X501400Y244399D01*
X500400D01*
X502399Y242400D02*
X503066D01*
X502733D01*
Y244399D01*
X502399Y244066D01*
X493200Y244399D02*
Y242400D01*
X494200D01*
X494533Y242733D01*
Y244066D01*
X494200Y244399D01*
X493200D01*
X496532Y242400D02*
X495199D01*
X496532Y243733D01*
Y244066D01*
X496199Y244399D01*
X495533D01*
X495199Y244066D01*
X486600Y244399D02*
Y242400D01*
X487600D01*
X487933Y242733D01*
Y244066D01*
X487600Y244399D01*
X486600D01*
X488599Y244066D02*
X488933Y244399D01*
X489599D01*
X489932Y244066D01*
Y243733D01*
X489599Y243400D01*
X489266D01*
X489599D01*
X489932Y243066D01*
Y242733D01*
X489599Y242400D01*
X488933D01*
X488599Y242733D01*
X480600Y244399D02*
Y242400D01*
X481600D01*
X481933Y242733D01*
Y244066D01*
X481600Y244399D01*
X480600D01*
X483599Y242400D02*
Y244399D01*
X482599Y243400D01*
X483932D01*
X512350Y256350D02*
X514349D01*
Y255350D01*
X514016Y255017D01*
X513350D01*
X513016Y255350D01*
Y256350D01*
X512350Y254351D02*
Y253684D01*
Y254017D01*
X514349D01*
X514016Y254351D01*
X474600Y243600D02*
Y245599D01*
X475600D01*
X475933Y245266D01*
Y244600D01*
X475600Y244266D01*
X474600D01*
X475266D02*
X475933Y243600D01*
X476599Y245266D02*
X476933Y245599D01*
X477599D01*
X477932Y245266D01*
Y244933D01*
X477599Y244600D01*
X477266D01*
X477599D01*
X477932Y244266D01*
Y243933D01*
X477599Y243600D01*
X476933D01*
X476599Y243933D01*
X506400Y243600D02*
Y245599D01*
X507400D01*
X507733Y245266D01*
Y244600D01*
X507400Y244266D01*
X506400D01*
X507066D02*
X507733Y243600D01*
X509732D02*
X508399D01*
X509732Y244933D01*
Y245266D01*
X509399Y245599D01*
X508733D01*
X508399Y245266D01*
X511800Y243600D02*
Y245599D01*
X512800D01*
X513133Y245266D01*
Y244600D01*
X512800Y244266D01*
X511800D01*
X512466D02*
X513133Y243600D01*
X515132Y245599D02*
X513799D01*
Y244600D01*
X514466Y244933D01*
X514799D01*
X515132Y244600D01*
Y243933D01*
X514799Y243600D01*
X514133D01*
X513799Y243933D01*
X517200Y243600D02*
Y245599D01*
X518200D01*
X518533Y245266D01*
Y244600D01*
X518200Y244266D01*
X517200D01*
X517866D02*
X518533Y243600D01*
X520532Y245599D02*
X519866Y245266D01*
X519199Y244600D01*
Y243933D01*
X519533Y243600D01*
X520199D01*
X520532Y243933D01*
Y244266D01*
X520199Y244600D01*
X519199D01*
X523200Y243600D02*
Y245599D01*
X524200D01*
X524533Y245266D01*
Y244600D01*
X524200Y244266D01*
X523200D01*
X523866D02*
X524533Y243600D01*
X525199Y245599D02*
X526532D01*
Y245266D01*
X525199Y243933D01*
Y243600D01*
X569801Y212400D02*
X571467D01*
X571800Y212733D01*
Y213400D01*
X571467Y213733D01*
X569801D01*
X570134Y215732D02*
X569801Y215399D01*
Y214733D01*
X570134Y214399D01*
X570467D01*
X570800Y214733D01*
Y215399D01*
X571134Y215732D01*
X571467D01*
X571800Y215399D01*
Y214733D01*
X571467Y214399D01*
X569801Y216399D02*
X571800D01*
Y217398D01*
X571467Y217732D01*
X571134D01*
X570800Y217398D01*
Y216399D01*
Y217398D01*
X570467Y217732D01*
X570134D01*
X569801Y217398D01*
Y216399D01*
X571800Y218398D02*
Y219064D01*
Y218731D01*
X569801D01*
X570134Y218398D01*
X570133Y191266D02*
X569800Y191599D01*
X569133D01*
X568800Y191266D01*
Y190933D01*
X569133Y190600D01*
X569800D01*
X570133Y190267D01*
Y189933D01*
X569800Y189600D01*
X569133D01*
X568800Y189933D01*
X570799Y189600D02*
X571466D01*
X571133D01*
Y191599D01*
X570799Y191266D01*
X502200Y187800D02*
Y189799D01*
X503200D01*
X503533Y189466D01*
Y188800D01*
X503200Y188467D01*
X502200D01*
X505532Y187800D02*
X504199D01*
X505532Y189133D01*
Y189466D01*
X505199Y189799D01*
X504533D01*
X504199Y189466D01*
X469200Y217200D02*
Y219199D01*
X470200D01*
X470533Y218866D01*
Y218200D01*
X470200Y217866D01*
X469200D01*
X471199Y218866D02*
X471533Y219199D01*
X472199D01*
X472532Y218866D01*
Y218533D01*
X472199Y218200D01*
X471866D01*
X472199D01*
X472532Y217866D01*
Y217533D01*
X472199Y217200D01*
X471533D01*
X471199Y217533D01*
X583667Y243134D02*
X584000Y242801D01*
X584667D01*
X585000Y243134D01*
Y243467D01*
X584667Y243800D01*
X584000D01*
X583667Y244134D01*
Y244467D01*
X584000Y244800D01*
X584667D01*
X585000Y244467D01*
X581668Y244800D02*
X583001D01*
X581668Y243467D01*
Y243134D01*
X582001Y242801D01*
X582667D01*
X583001Y243134D01*
X533900Y250399D02*
X535233Y248400D01*
Y250399D02*
X533900Y248400D01*
X535899D02*
X536566D01*
X536233D01*
Y250399D01*
X535899Y250066D01*
X583200Y240600D02*
X585199D01*
Y239600D01*
X584866Y239267D01*
X584200D01*
X583866Y239600D01*
Y240600D01*
Y239934D02*
X583200Y239267D01*
Y238601D02*
Y237934D01*
Y238267D01*
X585199D01*
X584866Y238601D01*
D39*
X468600Y243600D02*
Y245599D01*
X469600D01*
X469933Y245266D01*
Y244600D01*
X469600Y244266D01*
X468600D01*
X469266D02*
X469933Y243600D01*
X471599D02*
Y245599D01*
X470599Y244600D01*
X471932D01*
M02*
