%FSLAX25Y25*%
%MOIN*%
G70*
G01*
G75*
G04 Layer_Color=2752767*
%ADD10C,0.00394*%
%ADD11C,0.00667*%
D10*
X458006Y174000D02*
X469902D01*
X458006Y258000D02*
X469902D01*
X458400Y174000D02*
Y205898D01*
Y224527D02*
Y258000D01*
Y174000D02*
X459712Y177937D01*
X457088D02*
X458400Y174000D01*
X457088Y254063D02*
X458400Y258000D01*
X459712Y254063D01*
X587400Y254898D02*
Y267994D01*
X467400Y255498D02*
Y267994D01*
X536255Y267600D02*
X587400D01*
X467400D02*
X516970D01*
X583463Y268912D02*
X587400Y267600D01*
X583463Y266288D02*
X587400Y267600D01*
X467400D02*
X471337Y266288D01*
X467400Y267600D02*
X471337Y268912D01*
X460762Y209309D02*
Y206685D01*
X458138Y209309D01*
X457482D01*
X456826Y208653D01*
Y207341D01*
X457482Y206685D01*
X460762Y210621D02*
Y211933D01*
Y211277D01*
X456826D01*
X457482Y210621D01*
X460762Y213901D02*
X460106D01*
Y214557D01*
X460762D01*
Y213901D01*
X457482Y217180D02*
X456826Y217836D01*
Y219148D01*
X457482Y219804D01*
X458138D01*
X458794Y219148D01*
Y218492D01*
Y219148D01*
X459450Y219804D01*
X460106D01*
X460762Y219148D01*
Y217836D01*
X460106Y217180D01*
X460762Y223084D02*
X456826D01*
X458794Y221116D01*
Y223740D01*
X517757Y268518D02*
X518413Y269174D01*
X519725D01*
X520381Y268518D01*
Y267862D01*
X519725Y267206D01*
X519069D01*
X519725D01*
X520381Y266550D01*
Y265894D01*
X519725Y265238D01*
X518413D01*
X517757Y265894D01*
X521693Y268518D02*
X522349Y269174D01*
X523661D01*
X524317Y268518D01*
Y265894D01*
X523661Y265238D01*
X522349D01*
X521693Y265894D01*
Y268518D01*
X525629Y265238D02*
Y265894D01*
X526285D01*
Y265238D01*
X525629D01*
X530876D02*
Y269174D01*
X528908Y267206D01*
X531532D01*
X532844Y268518D02*
X533500Y269174D01*
X534812D01*
X535468Y268518D01*
Y267862D01*
X534812Y267206D01*
X535468Y266550D01*
Y265894D01*
X534812Y265238D01*
X533500D01*
X532844Y265894D01*
Y266550D01*
X533500Y267206D01*
X532844Y267862D01*
Y268518D01*
X533500Y267206D02*
X534812D01*
X556763Y196592D02*
Y200592D01*
X560763D01*
Y196592D01*
X556763D01*
X556763Y230608D02*
Y234608D01*
X560763D01*
Y230608D01*
X556763D01*
X560731Y202222D02*
X558731Y206222D01*
X562731D01*
X560731Y202222D01*
Y224978D02*
X558731Y228978D01*
X562731D01*
X560731Y224978D01*
X544000Y250000D02*
X545000Y251000D01*
X546000D01*
X545000Y252000D01*
X546000Y253000D01*
X545000D01*
X544000Y254000D01*
X543000Y253000D01*
X542000D01*
X543000Y252000D01*
X542000Y251000D01*
X543000D01*
X544000Y250000D01*
X534000D02*
X535000Y251000D01*
X536000D01*
X535000Y252000D01*
X536000Y253000D01*
X535000D01*
X534000Y254000D01*
X533000Y253000D01*
X532000D01*
X533000Y252000D01*
X532000Y251000D01*
X533000D01*
X534000Y250000D01*
X524000D02*
X525000Y251000D01*
X526000D01*
X525000Y252000D01*
X526000Y253000D01*
X525000D01*
X524000Y254000D01*
X523000Y253000D01*
X522000D01*
X523000Y252000D01*
X522000Y251000D01*
X523000D01*
X524000Y250000D01*
X514000D02*
X515000Y251000D01*
X516000D01*
X515000Y252000D01*
X516000Y253000D01*
X515000D01*
X514000Y254000D01*
X513000Y253000D01*
X512000D01*
X513000Y252000D01*
X512000Y251000D01*
X513000D01*
X514000Y250000D01*
X504000D02*
X505000Y251000D01*
X506000D01*
X505000Y252000D01*
X506000Y253000D01*
X505000D01*
X504000Y254000D01*
X503000Y253000D01*
X502000D01*
X503000Y252000D01*
X502000Y251000D01*
X503000D01*
X504000Y250000D01*
X494000D02*
X495000Y251000D01*
X496000D01*
X495000Y252000D01*
X496000Y253000D01*
X495000D01*
X494000Y254000D01*
X493000Y253000D01*
X492000D01*
X493000Y252000D01*
X492000Y251000D01*
X493000D01*
X494000Y250000D01*
X484000D02*
X485000Y251000D01*
X486000D01*
X485000Y252000D01*
X486000Y253000D01*
X485000D01*
X484000Y254000D01*
X483000Y253000D01*
X482000D01*
X483000Y252000D01*
X482000Y251000D01*
X483000D01*
X484000Y250000D01*
X474000D02*
X475000Y251000D01*
X476000D01*
X475000Y252000D01*
X476000Y253000D01*
X475000D01*
X474000Y254000D01*
X473000Y253000D01*
X472000D01*
X473000Y252000D01*
X472000Y251000D01*
X473000D01*
X474000Y250000D01*
X472800Y191200D02*
X473800Y192200D01*
X474800D01*
X473800Y193200D01*
X474800Y194200D01*
X473800D01*
X472800Y195200D01*
X471800Y194200D01*
X470800D01*
X471800Y193200D01*
X470800Y192200D01*
X471800D01*
X472800Y191200D01*
Y201200D02*
X473800Y202200D01*
X474800D01*
X473800Y203200D01*
X474800Y204200D01*
X473800D01*
X472800Y205200D01*
X471800Y204200D01*
X470800D01*
X471800Y203200D01*
X470800Y202200D01*
X471800D01*
X472800Y201200D01*
Y211200D02*
X473800Y212200D01*
X474800D01*
X473800Y213200D01*
X474800Y214200D01*
X473800D01*
X472800Y215200D01*
X471800Y214200D01*
X470800D01*
X471800Y213200D01*
X470800Y212200D01*
X471800D01*
X472800Y211200D01*
Y221200D02*
X473800Y222200D01*
X474800D01*
X473800Y223200D01*
X474800Y224200D01*
X473800D01*
X472800Y225200D01*
X471800Y224200D01*
X470800D01*
X471800Y223200D01*
X470800Y222200D01*
X471800D01*
X472800Y221200D01*
X542200Y179200D02*
X543200Y180200D01*
X544200D01*
X543200Y181200D01*
X544200Y182200D01*
X543200D01*
X542200Y183200D01*
X541200Y182200D01*
X540200D01*
X541200Y181200D01*
X540200Y180200D01*
X541200D01*
X542200Y179200D01*
X532200D02*
X533200Y180200D01*
X534200D01*
X533200Y181200D01*
X534200Y182200D01*
X533200D01*
X532200Y183200D01*
X531200Y182200D01*
X530200D01*
X531200Y181200D01*
X530200Y180200D01*
X531200D01*
X532200Y179200D01*
X522200D02*
X523200Y180200D01*
X524200D01*
X523200Y181200D01*
X524200Y182200D01*
X523200D01*
X522200Y183200D01*
X521200Y182200D01*
X520200D01*
X521200Y181200D01*
X520200Y180200D01*
X521200D01*
X522200Y179200D01*
X512200D02*
X513200Y180200D01*
X514200D01*
X513200Y181200D01*
X514200Y182200D01*
X513200D01*
X512200Y183200D01*
X511200Y182200D01*
X510200D01*
X511200Y181200D01*
X510200Y180200D01*
X511200D01*
X512200Y179200D01*
X502200D02*
X503200Y180200D01*
X504200D01*
X503200Y181200D01*
X504200Y182200D01*
X503200D01*
X502200Y183200D01*
X501200Y182200D01*
X500200D01*
X501200Y181200D01*
X500200Y180200D01*
X501200D01*
X502200Y179200D01*
X492200D02*
X493200Y180200D01*
X494200D01*
X493200Y181200D01*
X494200Y182200D01*
X493200D01*
X492200Y183200D01*
X491200Y182200D01*
X490200D01*
X491200Y181200D01*
X490200Y180200D01*
X491200D01*
X492200Y179200D01*
X482200D02*
X483200Y180200D01*
X484200D01*
X483200Y181200D01*
X484200Y182200D01*
X483200D01*
X482200Y183200D01*
X481200Y182200D01*
X480200D01*
X481200Y181200D01*
X480200Y180200D01*
X481200D01*
X482200Y179200D01*
X472200D02*
X473200Y180200D01*
X474200D01*
X473200Y181200D01*
X474200Y182200D01*
X473200D01*
X472200Y183200D01*
X471200Y182200D01*
X470200D01*
X471200Y181200D01*
X470200Y180200D01*
X471200D01*
X472200Y179200D01*
X482800Y216400D02*
X483800Y218400D01*
X482800Y220400D01*
X484800Y219400D01*
X486800Y220400D01*
X485800Y218400D01*
X486800Y216400D01*
X484800Y217400D01*
X482800Y216400D01*
X485200Y214600D02*
X486200Y216600D01*
X485200Y218600D01*
X487200Y217600D01*
X489200Y218600D01*
X488200Y216600D01*
X489200Y214600D01*
X487200Y215600D01*
X485200Y214600D01*
X488200Y216400D02*
X489200Y218400D01*
X488200Y220400D01*
X490200Y219400D01*
X492200Y220400D01*
X491200Y218400D01*
X492200Y216400D01*
X490200Y217400D01*
X488200Y216400D01*
X490600Y213400D02*
X491600Y215400D01*
X490600Y217400D01*
X492600Y216400D01*
X494600Y217400D01*
X493600Y215400D01*
X494600Y213400D01*
X492600Y214400D01*
X490600Y213400D01*
X493000Y216400D02*
X494000Y218400D01*
X493000Y220400D01*
X495000Y219400D01*
X497000Y220400D01*
X496000Y218400D01*
X497000Y216400D01*
X495000Y217400D01*
X493000Y216400D01*
X495400Y213400D02*
X496400Y215400D01*
X495400Y217400D01*
X497400Y216400D01*
X499400Y217400D01*
X498400Y215400D01*
X499400Y213400D01*
X497400Y214400D01*
X495400Y213400D01*
X498400Y216400D02*
X499400Y218400D01*
X498400Y220400D01*
X500400Y219400D01*
X502400Y220400D01*
X501400Y218400D01*
X502400Y216400D01*
X500400Y217400D01*
X498400Y216400D01*
X500800Y213400D02*
X501800Y215400D01*
X500800Y217400D01*
X502800Y216400D01*
X504800Y217400D01*
X503800Y215400D01*
X504800Y213400D01*
X502800Y214400D01*
X500800Y213400D01*
X503200Y216400D02*
X504200Y218400D01*
X503200Y220400D01*
X505200Y219400D01*
X507200Y220400D01*
X506200Y218400D01*
X507200Y216400D01*
X505200Y217400D01*
X503200Y216400D01*
X525400Y200800D02*
X526400Y202800D01*
X525400Y204800D01*
X527400Y203800D01*
X529400Y204800D01*
X528400Y202800D01*
X529400Y200800D01*
X527400Y201800D01*
X525400Y200800D01*
X480400Y206200D02*
X481400Y208200D01*
X480400Y210200D01*
X482400Y209200D01*
X484400Y210200D01*
X483400Y208200D01*
X484400Y206200D01*
X482400Y207200D01*
X480400Y206200D01*
X525400Y196000D02*
X526400Y198000D01*
X525400Y200000D01*
X527400Y199000D01*
X529400Y200000D01*
X528400Y198000D01*
X529400Y196000D01*
X527400Y197000D01*
X525400Y196000D01*
X482800Y203800D02*
X483800Y205800D01*
X482800Y207800D01*
X484800Y206800D01*
X486800Y207800D01*
X485800Y205800D01*
X486800Y203800D01*
X484800Y204800D01*
X482800Y203800D01*
X548800Y223000D02*
X549800Y225000D01*
X548800Y227000D01*
X550800Y226000D01*
X552800Y227000D01*
X551800Y225000D01*
X552800Y223000D01*
X550800Y224000D01*
X548800Y223000D01*
X519400Y190087D02*
X520400Y192087D01*
X519400Y194087D01*
X521400Y193087D01*
X523400Y194087D01*
X522400Y192087D01*
X523400Y190087D01*
X521400Y191087D01*
X519400Y190087D01*
X548800Y204400D02*
X549800Y206400D01*
X548800Y208400D01*
X550800Y207400D01*
X552800Y208400D01*
X551800Y206400D01*
X552800Y204400D01*
X550800Y205400D01*
X548800Y204400D01*
X559000Y214600D02*
X560000Y216600D01*
X559000Y218600D01*
X561000Y217600D01*
X563000Y218600D01*
X562000Y216600D01*
X563000Y214600D01*
X561000Y215600D01*
X559000Y214600D01*
Y210400D02*
X560000Y212400D01*
X559000Y214400D01*
X561000Y213400D01*
X563000Y214400D01*
X562000Y212400D01*
X563000Y210400D01*
X561000Y211400D01*
X559000Y210400D01*
X562000Y212800D02*
X563000Y214800D01*
X562000Y216800D01*
X564000Y215800D01*
X566000Y216800D01*
X565000Y214800D01*
X566000Y212800D01*
X564000Y213800D01*
X562000Y212800D01*
Y216400D02*
X563000Y218400D01*
X562000Y220400D01*
X564000Y219400D01*
X566000Y220400D01*
X565000Y218400D01*
X566000Y216400D01*
X564000Y217400D01*
X562000Y216400D01*
X548800Y193480D02*
X549800Y195480D01*
X548800Y197480D01*
X550800Y196480D01*
X552800Y197480D01*
X551800Y195480D01*
X552800Y193480D01*
X550800Y194480D01*
X548800Y193480D01*
X527800Y231400D02*
X528800Y233400D01*
X527800Y235400D01*
X529800Y234400D01*
X531800Y235400D01*
X530800Y233400D01*
X531800Y231400D01*
X529800Y232400D01*
X527800Y231400D01*
X555150Y242800D02*
X556150Y244800D01*
X555150Y246800D01*
X557150Y245800D01*
X559150Y246800D01*
X558150Y244800D01*
X559150Y242800D01*
X557150Y243800D01*
X555150Y242800D01*
X560200Y180400D02*
X561200Y182400D01*
X560200Y184400D01*
X562200Y183400D01*
X564200Y184400D01*
X563200Y182400D01*
X564200Y180400D01*
X562200Y181400D01*
X560200Y180400D01*
X572800Y219400D02*
X573800Y221400D01*
X572800Y223400D01*
X574800Y222400D01*
X576800Y223400D01*
X575800Y221400D01*
X576800Y219400D01*
X574800Y220400D01*
X572800Y219400D01*
Y211000D02*
X573800Y213000D01*
X572800Y215000D01*
X574800Y214000D01*
X576800Y215000D01*
X575800Y213000D01*
X576800Y211000D01*
X574800Y212000D01*
X572800Y211000D01*
Y203200D02*
X573800Y205200D01*
X572800Y207200D01*
X574800Y206200D01*
X576800Y207200D01*
X575800Y205200D01*
X576800Y203200D01*
X574800Y204200D01*
X572800Y203200D01*
X580600Y215800D02*
X581600Y217800D01*
X580600Y219800D01*
X582600Y218800D01*
X584600Y219800D01*
X583600Y217800D01*
X584600Y215800D01*
X582600Y216800D01*
X580600Y215800D01*
Y226000D02*
X581600Y228000D01*
X580600Y230000D01*
X582600Y229000D01*
X584600Y230000D01*
X583600Y228000D01*
X584600Y226000D01*
X582600Y227000D01*
X580600Y226000D01*
Y205000D02*
X581600Y207000D01*
X580600Y209000D01*
X582600Y208000D01*
X584600Y209000D01*
X583600Y207000D01*
X584600Y205000D01*
X582600Y206000D01*
X580600Y205000D01*
X580000Y191200D02*
X581000Y193200D01*
X580000Y195200D01*
X582000Y194200D01*
X584000Y195200D01*
X583000Y193200D01*
X584000Y191200D01*
X582000Y192200D01*
X580000Y191200D01*
X564400Y191800D02*
X565400Y193800D01*
X564400Y195800D01*
X566400Y194800D01*
X568400Y195800D01*
X567400Y193800D01*
X568400Y191800D01*
X566400Y192800D01*
X564400Y191800D01*
X565000Y224200D02*
X566000Y226200D01*
X565000Y228200D01*
X567000Y227200D01*
X569000Y228200D01*
X568000Y226200D01*
X569000Y224200D01*
X567000Y225200D01*
X565000Y224200D01*
X502600Y206200D02*
X503600Y208200D01*
X502600Y210200D01*
X504600Y209200D01*
X506600Y210200D01*
X505600Y208200D01*
X506600Y206200D01*
X504600Y207200D01*
X502600Y206200D01*
X494200Y186400D02*
X495200Y188400D01*
X494200Y190400D01*
X496200Y189400D01*
X498200Y190400D01*
X497200Y188400D01*
X498200Y186400D01*
X496200Y187400D01*
X494200Y186400D01*
X484600Y184600D02*
X485600Y186600D01*
X484600Y188600D01*
X486600Y187600D01*
X488600Y188600D01*
X487600Y186600D01*
X488600Y184600D01*
X486600Y185600D01*
X484600Y184600D01*
X564400Y205600D02*
X565400Y207600D01*
X564400Y209600D01*
X566400Y208600D01*
X568400Y209600D01*
X567400Y207600D01*
X568400Y205600D01*
X566400Y206600D01*
X564400Y205600D01*
X481000Y244000D02*
X482000Y246000D01*
X481000Y248000D01*
X483000Y247000D01*
X485000Y248000D01*
X484000Y246000D01*
X485000Y244000D01*
X483000Y245000D01*
X481000Y244000D01*
X550600Y239200D02*
X551600Y241200D01*
X550600Y243200D01*
X552600Y242200D01*
X554600Y243200D01*
X553600Y241200D01*
X554600Y239200D01*
X552600Y240200D01*
X550600Y239200D01*
X570400Y249400D02*
X571400Y251400D01*
X570400Y253400D01*
X572400Y252400D01*
X574400Y253400D01*
X573400Y251400D01*
X574400Y249400D01*
X572400Y250400D01*
X570400Y249400D01*
X559600Y247600D02*
X560600Y249600D01*
X559600Y251600D01*
X561600Y250600D01*
X563600Y251600D01*
X562600Y249600D01*
X563600Y247600D01*
X561600Y248600D01*
X559600Y247600D01*
X570400Y180400D02*
X571400Y182400D01*
X570400Y184400D01*
X572400Y183400D01*
X574400Y184400D01*
X573400Y182400D01*
X574400Y180400D01*
X572400Y181400D01*
X570400Y180400D01*
X563800Y176200D02*
X564800Y178200D01*
X563800Y180200D01*
X565800Y179200D01*
X567800Y180200D01*
X566800Y178200D01*
X567800Y176200D01*
X565800Y177200D01*
X563800Y176200D01*
X564400Y183400D02*
X565400Y185400D01*
X564400Y187400D01*
X566400Y186400D01*
X568400Y187400D01*
X567400Y185400D01*
X568400Y183400D01*
X566400Y184400D01*
X564400Y183400D01*
X547600Y175000D02*
X548600Y177000D01*
X547600Y179000D01*
X549600Y178000D01*
X551600Y179000D01*
X550600Y177000D01*
X551600Y175000D01*
X549600Y176000D01*
X547600Y175000D01*
X525400Y209200D02*
X526400Y211200D01*
X525400Y213200D01*
X527400Y212200D01*
X529400Y213200D01*
X528400Y211200D01*
X529400Y209200D01*
X527400Y210200D01*
X525400Y209200D01*
Y220000D02*
X526400Y222000D01*
X525400Y224000D01*
X527400Y223000D01*
X529400Y224000D01*
X528400Y222000D01*
X529400Y220000D01*
X527400Y221000D01*
X525400Y220000D01*
X539800Y224800D02*
X540800Y226800D01*
X539800Y228800D01*
X541800Y227800D01*
X543800Y228800D01*
X542800Y226800D01*
X543800Y224800D01*
X541800Y225800D01*
X539800Y224800D01*
X470200Y243400D02*
X471200Y245400D01*
X470200Y247400D01*
X472200Y246400D01*
X474200Y247400D01*
X473200Y245400D01*
X474200Y243400D01*
X472200Y244400D01*
X470200Y243400D01*
X527800Y241600D02*
X528800Y243600D01*
X527800Y245600D01*
X529800Y244600D01*
X531800Y245600D01*
X530800Y243600D01*
X531800Y241600D01*
X529800Y242600D01*
X527800Y241600D01*
X574000Y244000D02*
X575000Y246000D01*
X574000Y248000D01*
X576000Y247000D01*
X578000Y248000D01*
X577000Y246000D01*
X578000Y244000D01*
X576000Y245000D01*
X574000Y244000D01*
X479800Y227200D02*
X480800Y229200D01*
X479800Y231200D01*
X481800Y230200D01*
X483800Y231200D01*
X482800Y229200D01*
X483800Y227200D01*
X481800Y228200D01*
X479800Y227200D01*
D11*
X577101Y198592D02*
G03*
X577101Y198592I-2000J0D01*
G01*
X577101Y232608D02*
G03*
X577101Y232608I-2000J0D01*
G01*
M02*
