%FSLAX25Y25*%
%MOIN*%
G70*
G01*
G75*
G04 Layer_Color=16711935*
%ADD10O,0.01575X0.05906*%
%ADD11R,0.01575X0.05906*%
%ADD12R,0.03937X0.04331*%
%ADD13R,0.03000X0.03000*%
%ADD14R,0.02756X0.03543*%
%ADD15R,0.07480X0.02362*%
%ADD16R,0.04528X0.01181*%
%ADD17R,0.04528X0.02362*%
%ADD18R,0.04724X0.03937*%
%ADD19R,0.04528X0.05512*%
%ADD20R,0.03000X0.03000*%
%ADD21R,0.04331X0.03937*%
%ADD22C,0.00600*%
%ADD23C,0.01000*%
%ADD24O,0.08263X0.03937*%
%ADD25O,0.07082X0.03937*%
%ADD26C,0.02559*%
%ADD27C,0.05906*%
%ADD28R,0.05906X0.05906*%
%ADD29R,0.05906X0.05906*%
%ADD30C,0.02000*%
%ADD31C,0.00394*%
%ADD32C,0.02362*%
%ADD33C,0.00984*%
%ADD34C,0.01181*%
%ADD35C,0.00787*%
%ADD36C,0.00197*%
%ADD37C,0.00800*%
%ADD38C,0.00100*%
%ADD39C,0.00300*%
%ADD40O,0.02375X0.06706*%
%ADD41R,0.02375X0.06706*%
%ADD42R,0.04737X0.05131*%
%ADD43R,0.03800X0.03800*%
%ADD44R,0.03556X0.04343*%
%ADD45R,0.08280X0.03162*%
%ADD46R,0.05328X0.01981*%
%ADD47R,0.05328X0.03162*%
%ADD48R,0.05524X0.04737*%
%ADD49R,0.05328X0.06312*%
%ADD50R,0.03800X0.03800*%
%ADD51R,0.05131X0.04737*%
%ADD52O,0.09063X0.04737*%
%ADD53O,0.07882X0.04737*%
%ADD54C,0.03359*%
%ADD55C,0.06706*%
%ADD56R,0.06706X0.06706*%
%ADD57R,0.06706X0.06706*%
D31*
X458006Y174000D02*
X469902D01*
X458006Y258000D02*
X469902D01*
X458400Y174000D02*
Y205898D01*
Y224527D02*
Y258000D01*
Y174000D02*
X459712Y177937D01*
X457088D02*
X458400Y174000D01*
X457088Y254063D02*
X458400Y258000D01*
X459712Y254063D01*
X587400Y254898D02*
Y267994D01*
X467400Y255498D02*
Y267994D01*
X536255Y267600D02*
X587400D01*
X467400D02*
X516970D01*
X583463Y268912D02*
X587400Y267600D01*
X583463Y266288D02*
X587400Y267600D01*
X467400D02*
X471337Y266288D01*
X467400Y267600D02*
X471337Y268912D01*
X460762Y209309D02*
Y206685D01*
X458138Y209309D01*
X457482D01*
X456826Y208653D01*
Y207341D01*
X457482Y206685D01*
X460762Y210621D02*
Y211933D01*
Y211277D01*
X456826D01*
X457482Y210621D01*
X460762Y213901D02*
X460106D01*
Y214557D01*
X460762D01*
Y213901D01*
X457482Y217180D02*
X456826Y217836D01*
Y219148D01*
X457482Y219804D01*
X458138D01*
X458794Y219148D01*
Y218492D01*
Y219148D01*
X459450Y219804D01*
X460106D01*
X460762Y219148D01*
Y217836D01*
X460106Y217180D01*
X460762Y223084D02*
X456826D01*
X458794Y221116D01*
Y223740D01*
X517757Y268518D02*
X518413Y269174D01*
X519725D01*
X520381Y268518D01*
Y267862D01*
X519725Y267206D01*
X519069D01*
X519725D01*
X520381Y266550D01*
Y265894D01*
X519725Y265238D01*
X518413D01*
X517757Y265894D01*
X521693Y268518D02*
X522349Y269174D01*
X523661D01*
X524317Y268518D01*
Y265894D01*
X523661Y265238D01*
X522349D01*
X521693Y265894D01*
Y268518D01*
X525629Y265238D02*
Y265894D01*
X526285D01*
Y265238D01*
X525629D01*
X530876D02*
Y269174D01*
X528908Y267206D01*
X531532D01*
X532844Y268518D02*
X533500Y269174D01*
X534812D01*
X535468Y268518D01*
Y267862D01*
X534812Y267206D01*
X535468Y266550D01*
Y265894D01*
X534812Y265238D01*
X533500D01*
X532844Y265894D01*
Y266550D01*
X533500Y267206D01*
X532844Y267862D01*
Y268518D01*
X533500Y267206D02*
X534812D01*
M02*
