%FSLAX25Y25*%
%MOIN*%
G70*
G01*
G75*
G04 Layer_Physical_Order=2*
G04 Layer_Color=16711680*
%ADD10O,0.01575X0.05906*%
%ADD11R,0.01575X0.05906*%
%ADD12R,0.03937X0.04331*%
%ADD13R,0.03000X0.03000*%
%ADD14R,0.02756X0.03543*%
%ADD15R,0.07480X0.02362*%
%ADD16R,0.04528X0.01181*%
%ADD17R,0.04528X0.02362*%
%ADD18R,0.04724X0.03937*%
%ADD19R,0.04528X0.05512*%
%ADD20R,0.03000X0.03000*%
%ADD21R,0.04331X0.03937*%
%ADD22C,0.00600*%
%ADD23C,0.01000*%
%ADD24O,0.08263X0.03937*%
%ADD25O,0.07082X0.03937*%
%ADD26C,0.02559*%
%ADD27C,0.05906*%
%ADD28R,0.05906X0.05906*%
%ADD29R,0.05906X0.05906*%
%ADD30C,0.02000*%
G36*
X583303Y257280D02*
X584177Y257165D01*
X584992Y256828D01*
X585691Y256291D01*
X586228Y255592D01*
X586565Y254777D01*
X586681Y253903D01*
X586688D01*
Y253800D01*
X586688Y253800D01*
X586688D01*
Y178200D01*
Y178097D01*
X586681D01*
X586565Y177223D01*
X586228Y176408D01*
X585691Y175709D01*
X584992Y175172D01*
X584177Y174835D01*
X583303Y174720D01*
Y174712D01*
X583251Y174702D01*
X583200Y174712D01*
X550595D01*
X550484Y175079D01*
X550484Y175079D01*
X550336Y175567D01*
X550753Y175847D01*
X551107Y176376D01*
X551132Y176500D01*
X548068D01*
X548093Y176376D01*
X548447Y175847D01*
X548864Y175567D01*
X548605Y174712D01*
X471497D01*
Y174720D01*
X470623Y174835D01*
X469808Y175172D01*
X469109Y175709D01*
X468572Y176408D01*
X468235Y177223D01*
X468550Y177635D01*
X468647Y177647D01*
D01*
X468744Y177647D01*
X468744Y177647D01*
X468744Y177647D01*
X475753D01*
Y184753D01*
X468744D01*
X468744Y184753D01*
X468744Y184753D01*
X468647Y184753D01*
X468112Y185288D01*
Y253903D01*
X468119D01*
X468235Y254777D01*
X468572Y255592D01*
X469109Y256291D01*
X469808Y256828D01*
X470623Y257165D01*
X471497Y257280D01*
Y257288D01*
X583303D01*
Y257280D01*
D02*
G37*
%LPC*%
G36*
X579198Y198092D02*
X575601D01*
Y196001D01*
X576673D01*
X577344Y196089D01*
X577969Y196348D01*
X578505Y196760D01*
X578917Y197296D01*
X579176Y197921D01*
X579198Y198092D01*
D02*
G37*
G36*
X574601D02*
X571004D01*
X571026Y197921D01*
X571285Y197296D01*
X571697Y196760D01*
X572233Y196348D01*
X572858Y196089D01*
X573529Y196001D01*
X574601D01*
Y198092D01*
D02*
G37*
G36*
X566900Y195332D02*
Y194300D01*
X567932D01*
X567907Y194424D01*
X567554Y194954D01*
X567024Y195307D01*
X566900Y195332D01*
D02*
G37*
G36*
X558263Y198092D02*
X554075D01*
X554098Y197922D01*
X554356Y197297D01*
X554768Y196760D01*
X555305Y196349D01*
X555930Y196090D01*
X556600Y196002D01*
X558263D01*
Y198092D01*
D02*
G37*
G36*
X576673Y201182D02*
X575601D01*
Y199092D01*
X579198D01*
X579176Y199262D01*
X578917Y199887D01*
X578505Y200424D01*
X577969Y200835D01*
X577344Y201094D01*
X576673Y201182D01*
D02*
G37*
G36*
X558263Y201183D02*
X556600D01*
X555930Y201095D01*
X555305Y200836D01*
X554768Y200424D01*
X554356Y199888D01*
X554098Y199263D01*
X554075Y199092D01*
X558263D01*
Y201183D01*
D02*
G37*
G36*
X563451Y198092D02*
X559263D01*
Y196002D01*
X560926D01*
X561596Y196090D01*
X562221Y196349D01*
X562758Y196760D01*
X563169Y197297D01*
X563428Y197922D01*
X563451Y198092D01*
D02*
G37*
G36*
X574601Y201182D02*
X573529D01*
X572858Y201094D01*
X572233Y200835D01*
X571697Y200424D01*
X571285Y199887D01*
X571026Y199262D01*
X571004Y199092D01*
X574601D01*
Y201182D01*
D02*
G37*
G36*
X567932Y193300D02*
X566900D01*
Y192268D01*
X567024Y192293D01*
X567554Y192647D01*
X567907Y193176D01*
X567932Y193300D01*
D02*
G37*
G36*
X472300Y196753D02*
X469247D01*
Y193700D01*
X472300D01*
Y196753D01*
D02*
G37*
G36*
X583532Y192700D02*
X582500D01*
Y191668D01*
X582624Y191693D01*
X583153Y192046D01*
X583507Y192576D01*
X583532Y192700D01*
D02*
G37*
G36*
X565900Y193300D02*
X564868D01*
X564893Y193176D01*
X565246Y192647D01*
X565776Y192293D01*
X565900Y192268D01*
Y193300D01*
D02*
G37*
G36*
X476353Y196753D02*
X473300D01*
Y193700D01*
X476353D01*
Y196753D01*
D02*
G37*
G36*
X550800Y226631D02*
X550176Y226507D01*
X549647Y226153D01*
X549293Y225624D01*
X549169Y225000D01*
X549293Y224376D01*
X549647Y223847D01*
X549678Y223825D01*
Y207575D01*
X549647Y207554D01*
X549293Y207024D01*
X549169Y206400D01*
X549293Y205776D01*
X549647Y205246D01*
X549678Y205225D01*
Y196655D01*
X549647Y196634D01*
X549293Y196105D01*
X549169Y195480D01*
X549176Y195442D01*
X546883Y193150D01*
X522614D01*
X522553Y193240D01*
X522024Y193594D01*
X521400Y193718D01*
X520776Y193594D01*
X520247Y193240D01*
X519893Y192711D01*
X519769Y192087D01*
X519893Y191462D01*
X520247Y190933D01*
X520776Y190579D01*
X521400Y190455D01*
X522024Y190579D01*
X522514Y190907D01*
X547348D01*
X547348Y190907D01*
X547777Y190992D01*
X548141Y191235D01*
X550762Y193856D01*
X550800Y193849D01*
X551424Y193973D01*
X551954Y194327D01*
X552307Y194856D01*
X552431Y195480D01*
X552307Y196105D01*
X551954Y196634D01*
X551922Y196655D01*
Y205225D01*
X551954Y205246D01*
X552307Y205776D01*
X552431Y206400D01*
X552307Y207024D01*
X551954Y207554D01*
X551922Y207575D01*
Y223825D01*
X551954Y223847D01*
X552307Y224376D01*
X552431Y225000D01*
X552307Y225624D01*
X551954Y226153D01*
X551424Y226507D01*
X550800Y226631D01*
D02*
G37*
G36*
X565900Y195332D02*
X565776Y195307D01*
X565246Y194954D01*
X564893Y194424D01*
X564868Y194300D01*
X565900D01*
Y195332D01*
D02*
G37*
G36*
X581500Y194732D02*
X581376Y194707D01*
X580847Y194353D01*
X580493Y193824D01*
X580468Y193700D01*
X581500D01*
Y194732D01*
D02*
G37*
G36*
X582500D02*
Y193700D01*
X583532D01*
X583507Y193824D01*
X583153Y194353D01*
X582624Y194707D01*
X582500Y194732D01*
D02*
G37*
G36*
X560926Y201183D02*
X559263D01*
Y199092D01*
X563451D01*
X563428Y199263D01*
X563169Y199888D01*
X562758Y200424D01*
X562221Y200836D01*
X561596Y201095D01*
X560926Y201183D01*
D02*
G37*
G36*
X506132Y207700D02*
X505100D01*
Y206668D01*
X505224Y206693D01*
X505754Y207047D01*
X506107Y207576D01*
X506132Y207700D01*
D02*
G37*
G36*
X582100Y208532D02*
X581976Y208507D01*
X581447Y208154D01*
X581093Y207624D01*
X581068Y207500D01*
X582100D01*
Y208532D01*
D02*
G37*
G36*
X567932Y207100D02*
X566900D01*
Y206068D01*
X567024Y206093D01*
X567554Y206447D01*
X567907Y206976D01*
X567932Y207100D01*
D02*
G37*
G36*
X504100Y207700D02*
X503068D01*
X503093Y207576D01*
X503446Y207047D01*
X503976Y206693D01*
X504100Y206668D01*
Y207700D01*
D02*
G37*
G36*
X566900Y209132D02*
Y208100D01*
X567932D01*
X567907Y208224D01*
X567554Y208753D01*
X567024Y209107D01*
X566900Y209132D01*
D02*
G37*
G36*
X504100Y209732D02*
X503976Y209707D01*
X503446Y209353D01*
X503093Y208824D01*
X503068Y208700D01*
X504100D01*
Y209732D01*
D02*
G37*
G36*
X583100Y208532D02*
Y207500D01*
X584132D01*
X584107Y207624D01*
X583753Y208154D01*
X583224Y208507D01*
X583100Y208532D01*
D02*
G37*
G36*
X565900Y209132D02*
X565776Y209107D01*
X565246Y208753D01*
X564893Y208224D01*
X564868Y208100D01*
X565900D01*
Y209132D01*
D02*
G37*
G36*
Y207100D02*
X564868D01*
X564893Y206976D01*
X565246Y206447D01*
X565776Y206093D01*
X565900Y206068D01*
Y207100D01*
D02*
G37*
G36*
X574300Y204700D02*
X573268D01*
X573293Y204576D01*
X573646Y204047D01*
X574176Y203693D01*
X574300Y203668D01*
Y204700D01*
D02*
G37*
G36*
X576332D02*
X575300D01*
Y203668D01*
X575424Y203693D01*
X575953Y204047D01*
X576307Y204576D01*
X576332Y204700D01*
D02*
G37*
G36*
X482400Y209831D02*
X481776Y209707D01*
X481247Y209353D01*
X480893Y208824D01*
X480769Y208200D01*
X480893Y207576D01*
X481247Y207047D01*
X481776Y206693D01*
X482400Y206569D01*
X482571Y206603D01*
X483203Y205971D01*
X483169Y205800D01*
X483293Y205176D01*
X483646Y204646D01*
X484176Y204293D01*
X484800Y204169D01*
X485424Y204293D01*
X485954Y204646D01*
X486307Y205176D01*
X486368Y205482D01*
X495820D01*
X503951Y197351D01*
X504249Y197152D01*
X504307Y197141D01*
X504600Y197082D01*
X526089D01*
X526247Y196846D01*
X526776Y196493D01*
X527400Y196369D01*
X528024Y196493D01*
X528553Y196846D01*
X528907Y197376D01*
X529031Y198000D01*
X528907Y198624D01*
X528553Y199153D01*
X528024Y199507D01*
X527400Y199631D01*
X526776Y199507D01*
X526247Y199153D01*
X526089Y198918D01*
X504980D01*
X502916Y200981D01*
X503058Y201696D01*
X503181Y201926D01*
X503400Y201882D01*
X526089D01*
X526247Y201646D01*
X526776Y201293D01*
X527400Y201169D01*
X528024Y201293D01*
X528553Y201646D01*
X528907Y202176D01*
X529031Y202800D01*
X528907Y203424D01*
X528553Y203954D01*
X528024Y204307D01*
X527400Y204431D01*
X526776Y204307D01*
X526247Y203954D01*
X526089Y203718D01*
X503780D01*
X498649Y208849D01*
X498351Y209048D01*
X498000Y209118D01*
X483711D01*
X483554Y209353D01*
X483024Y209707D01*
X482400Y209831D01*
D02*
G37*
G36*
X560731Y206138D02*
X559998Y205993D01*
X559376Y205577D01*
X558960Y204955D01*
X558815Y204222D01*
X558960Y203489D01*
X559376Y202867D01*
X559998Y202451D01*
X560731Y202306D01*
X561464Y202451D01*
X562086Y202867D01*
X562501Y203489D01*
X562647Y204222D01*
X562501Y204955D01*
X562086Y205577D01*
X561464Y205993D01*
X560731Y206138D01*
D02*
G37*
G36*
X574300Y206732D02*
X574176Y206707D01*
X573646Y206353D01*
X573293Y205824D01*
X573268Y205700D01*
X574300D01*
Y206732D01*
D02*
G37*
G36*
X575300D02*
Y205700D01*
X576332D01*
X576307Y205824D01*
X575953Y206353D01*
X575424Y206707D01*
X575300Y206732D01*
D02*
G37*
G36*
X582100Y206500D02*
X581068D01*
X581093Y206376D01*
X581447Y205847D01*
X581976Y205493D01*
X582100Y205468D01*
Y206500D01*
D02*
G37*
G36*
X584132D02*
X583100D01*
Y205468D01*
X583224Y205493D01*
X583753Y205847D01*
X584107Y206376D01*
X584132Y206500D01*
D02*
G37*
G36*
X581500Y192700D02*
X580468D01*
X580493Y192576D01*
X580847Y192046D01*
X581376Y191693D01*
X581500Y191668D01*
Y192700D01*
D02*
G37*
G36*
X485718Y180700D02*
X482700D01*
Y177682D01*
X483127Y177739D01*
X483992Y178097D01*
X484734Y178666D01*
X485303Y179408D01*
X485661Y180273D01*
X485718Y180700D01*
D02*
G37*
G36*
X565300Y179732D02*
X565176Y179707D01*
X564646Y179353D01*
X564293Y178824D01*
X564268Y178700D01*
X565300D01*
Y179732D01*
D02*
G37*
G36*
X542200Y184783D02*
X541272Y184661D01*
X540408Y184303D01*
X539666Y183734D01*
X539097Y182992D01*
X538739Y182127D01*
X538617Y181200D01*
X538739Y180273D01*
X539097Y179408D01*
X539666Y178666D01*
X540408Y178097D01*
X541272Y177739D01*
X542200Y177617D01*
X543127Y177739D01*
X543992Y178097D01*
X544734Y178666D01*
X545303Y179408D01*
X545661Y180273D01*
X545783Y181200D01*
X545661Y182127D01*
X545303Y182992D01*
X544734Y183734D01*
X543992Y184303D01*
X543127Y184661D01*
X542200Y184783D01*
D02*
G37*
G36*
X481700Y180700D02*
X478682D01*
X478739Y180273D01*
X479097Y179408D01*
X479666Y178666D01*
X480408Y178097D01*
X481273Y177739D01*
X481700Y177682D01*
Y180700D01*
D02*
G37*
G36*
X571900Y181900D02*
X570868D01*
X570893Y181776D01*
X571246Y181246D01*
X571776Y180893D01*
X571900Y180868D01*
Y181900D01*
D02*
G37*
G36*
X573932D02*
X572900D01*
Y180868D01*
X573024Y180893D01*
X573554Y181246D01*
X573907Y181776D01*
X573932Y181900D01*
D02*
G37*
G36*
X566300Y179732D02*
Y178700D01*
X567332D01*
X567307Y178824D01*
X566954Y179353D01*
X566424Y179707D01*
X566300Y179732D01*
D02*
G37*
G36*
X562200Y184031D02*
X561576Y183907D01*
X561047Y183554D01*
X560693Y183024D01*
X560569Y182400D01*
X560693Y181776D01*
X561047Y181246D01*
X561576Y180893D01*
X562200Y180769D01*
X562824Y180893D01*
X563353Y181246D01*
X563707Y181776D01*
X563831Y182400D01*
X563707Y183024D01*
X563353Y183554D01*
X562824Y183907D01*
X562200Y184031D01*
D02*
G37*
G36*
X532200Y184783D02*
X531273Y184661D01*
X530408Y184303D01*
X529666Y183734D01*
X529097Y182992D01*
X528739Y182127D01*
X528617Y181200D01*
X528739Y180273D01*
X529097Y179408D01*
X529666Y178666D01*
X530408Y178097D01*
X531273Y177739D01*
X532200Y177617D01*
X533127Y177739D01*
X533992Y178097D01*
X534734Y178666D01*
X535303Y179408D01*
X535661Y180273D01*
X535783Y181200D01*
X535661Y182127D01*
X535303Y182992D01*
X534734Y183734D01*
X533992Y184303D01*
X533127Y184661D01*
X532200Y184783D01*
D02*
G37*
G36*
X549100Y178532D02*
X548976Y178507D01*
X548447Y178154D01*
X548093Y177624D01*
X548068Y177500D01*
X549100D01*
Y178532D01*
D02*
G37*
G36*
X550100D02*
Y177500D01*
X551132D01*
X551107Y177624D01*
X550753Y178154D01*
X550224Y178507D01*
X550100Y178532D01*
D02*
G37*
G36*
X565300Y177700D02*
X564268D01*
X564293Y177576D01*
X564646Y177047D01*
X565176Y176693D01*
X565300Y176668D01*
Y177700D01*
D02*
G37*
G36*
X567332D02*
X566300D01*
Y176668D01*
X566424Y176693D01*
X566954Y177047D01*
X567307Y177576D01*
X567332Y177700D01*
D02*
G37*
G36*
X512200Y184783D02*
X511272Y184661D01*
X510408Y184303D01*
X509666Y183734D01*
X509097Y182992D01*
X508739Y182127D01*
X508617Y181200D01*
X508739Y180273D01*
X509097Y179408D01*
X509666Y178666D01*
X510408Y178097D01*
X511272Y177739D01*
X512200Y177617D01*
X513128Y177739D01*
X513992Y178097D01*
X514734Y178666D01*
X515303Y179408D01*
X515661Y180273D01*
X515783Y181200D01*
X515661Y182127D01*
X515303Y182992D01*
X514734Y183734D01*
X513992Y184303D01*
X513128Y184661D01*
X512200Y184783D01*
D02*
G37*
G36*
X522200D02*
X521273Y184661D01*
X520408Y184303D01*
X519666Y183734D01*
X519097Y182992D01*
X518739Y182127D01*
X518617Y181200D01*
X518739Y180273D01*
X519097Y179408D01*
X519666Y178666D01*
X520408Y178097D01*
X521273Y177739D01*
X522200Y177617D01*
X523128Y177739D01*
X523992Y178097D01*
X524734Y178666D01*
X525303Y179408D01*
X525661Y180273D01*
X525783Y181200D01*
X525661Y182127D01*
X525303Y182992D01*
X524734Y183734D01*
X523992Y184303D01*
X523128Y184661D01*
X522200Y184783D01*
D02*
G37*
G36*
X492200D02*
X491273Y184661D01*
X490408Y184303D01*
X489666Y183734D01*
X489097Y182992D01*
X488739Y182127D01*
X488617Y181200D01*
X488739Y180273D01*
X489097Y179408D01*
X489666Y178666D01*
X490408Y178097D01*
X491273Y177739D01*
X492200Y177617D01*
X493127Y177739D01*
X493992Y178097D01*
X494734Y178666D01*
X495303Y179408D01*
X495661Y180273D01*
X495783Y181200D01*
X495661Y182127D01*
X495303Y182992D01*
X494734Y183734D01*
X493992Y184303D01*
X493127Y184661D01*
X492200Y184783D01*
D02*
G37*
G36*
X502200D02*
X501272Y184661D01*
X500408Y184303D01*
X499666Y183734D01*
X499097Y182992D01*
X498739Y182127D01*
X498617Y181200D01*
X498739Y180273D01*
X499097Y179408D01*
X499666Y178666D01*
X500408Y178097D01*
X501272Y177739D01*
X502200Y177617D01*
X503127Y177739D01*
X503992Y178097D01*
X504734Y178666D01*
X505303Y179408D01*
X505661Y180273D01*
X505783Y181200D01*
X505661Y182127D01*
X505303Y182992D01*
X504734Y183734D01*
X503992Y184303D01*
X503127Y184661D01*
X502200Y184783D01*
D02*
G37*
G36*
X481700Y184718D02*
X481273Y184661D01*
X480408Y184303D01*
X479666Y183734D01*
X479097Y182992D01*
X478739Y182127D01*
X478682Y181700D01*
X481700D01*
Y184718D01*
D02*
G37*
G36*
X486100Y188132D02*
X485976Y188107D01*
X485447Y187753D01*
X485093Y187224D01*
X485068Y187100D01*
X486100D01*
Y188132D01*
D02*
G37*
G36*
X487100D02*
Y187100D01*
X488132D01*
X488107Y187224D01*
X487753Y187753D01*
X487224Y188107D01*
X487100Y188132D01*
D02*
G37*
G36*
X495700Y187900D02*
X494668D01*
X494693Y187776D01*
X495047Y187247D01*
X495576Y186893D01*
X495700Y186868D01*
Y187900D01*
D02*
G37*
G36*
X497732D02*
X496700D01*
Y186868D01*
X496824Y186893D01*
X497354Y187247D01*
X497707Y187776D01*
X497732Y187900D01*
D02*
G37*
G36*
X472300Y192700D02*
X469247D01*
Y189647D01*
X472300D01*
Y192700D01*
D02*
G37*
G36*
X476353D02*
X473300D01*
Y189647D01*
X476353D01*
Y192700D01*
D02*
G37*
G36*
X495700Y189932D02*
X495576Y189907D01*
X495047Y189553D01*
X494693Y189024D01*
X494668Y188900D01*
X495700D01*
Y189932D01*
D02*
G37*
G36*
X496700D02*
Y188900D01*
X497732D01*
X497707Y189024D01*
X497354Y189553D01*
X496824Y189907D01*
X496700Y189932D01*
D02*
G37*
G36*
X566900Y186932D02*
Y185900D01*
X567932D01*
X567907Y186024D01*
X567554Y186554D01*
X567024Y186907D01*
X566900Y186932D01*
D02*
G37*
G36*
X572900Y183932D02*
Y182900D01*
X573932D01*
X573907Y183024D01*
X573554Y183554D01*
X573024Y183907D01*
X572900Y183932D01*
D02*
G37*
G36*
X565900Y184900D02*
X564868D01*
X564893Y184776D01*
X565246Y184247D01*
X565776Y183893D01*
X565900Y183868D01*
Y184900D01*
D02*
G37*
G36*
X482700Y184718D02*
Y181700D01*
X485718D01*
X485661Y182127D01*
X485303Y182992D01*
X484734Y183734D01*
X483992Y184303D01*
X483127Y184661D01*
X482700Y184718D01*
D02*
G37*
G36*
X571900Y183932D02*
X571776Y183907D01*
X571246Y183554D01*
X570893Y183024D01*
X570868Y182900D01*
X571900D01*
Y183932D01*
D02*
G37*
G36*
X488132Y186100D02*
X487100D01*
Y185068D01*
X487224Y185093D01*
X487753Y185447D01*
X488107Y185976D01*
X488132Y186100D01*
D02*
G37*
G36*
X565900Y186932D02*
X565776Y186907D01*
X565246Y186554D01*
X564893Y186024D01*
X564868Y185900D01*
X565900D01*
Y186932D01*
D02*
G37*
G36*
X567932Y184900D02*
X566900D01*
Y183868D01*
X567024Y183893D01*
X567554Y184247D01*
X567907Y184776D01*
X567932Y184900D01*
D02*
G37*
G36*
X486100Y186100D02*
X485068D01*
X485093Y185976D01*
X485447Y185447D01*
X485976Y185093D01*
X486100Y185068D01*
Y186100D01*
D02*
G37*
G36*
X505100Y209732D02*
Y208700D01*
X506132D01*
X506107Y208824D01*
X505754Y209353D01*
X505224Y209707D01*
X505100Y209732D01*
D02*
G37*
G36*
X552100Y242732D02*
X551976Y242707D01*
X551446Y242354D01*
X551093Y241824D01*
X551068Y241700D01*
X552100D01*
Y242732D01*
D02*
G37*
G36*
X553100D02*
Y241700D01*
X554132D01*
X554107Y241824D01*
X553754Y242354D01*
X553224Y242707D01*
X553100Y242732D01*
D02*
G37*
G36*
X552100Y240700D02*
X551068D01*
X551093Y240576D01*
X551446Y240047D01*
X551976Y239693D01*
X552100Y239668D01*
Y240700D01*
D02*
G37*
G36*
X554132D02*
X553100D01*
Y239668D01*
X553224Y239693D01*
X553754Y240047D01*
X554107Y240576D01*
X554132Y240700D01*
D02*
G37*
G36*
X529300Y243100D02*
X528268D01*
X528293Y242976D01*
X528647Y242446D01*
X529176Y242093D01*
X529300Y242068D01*
Y243100D01*
D02*
G37*
G36*
X473732Y244900D02*
X472700D01*
Y243868D01*
X472824Y243893D01*
X473353Y244247D01*
X473707Y244776D01*
X473732Y244900D01*
D02*
G37*
G36*
X530300Y245132D02*
Y244100D01*
X531332D01*
X531307Y244224D01*
X530954Y244754D01*
X530424Y245107D01*
X530300Y245132D01*
D02*
G37*
G36*
X531332Y243100D02*
X530300D01*
Y242068D01*
X530424Y242093D01*
X530954Y242446D01*
X531307Y242976D01*
X531332Y243100D01*
D02*
G37*
G36*
X471700Y244900D02*
X470668D01*
X470693Y244776D01*
X471046Y244247D01*
X471576Y243893D01*
X471700Y243868D01*
Y244900D01*
D02*
G37*
G36*
X579198Y232108D02*
X575601D01*
Y230017D01*
X576673D01*
X577344Y230105D01*
X577968Y230364D01*
X578505Y230776D01*
X578917Y231312D01*
X579176Y231937D01*
X579198Y232108D01*
D02*
G37*
G36*
X558263Y232108D02*
X554075D01*
X554098Y231938D01*
X554356Y231313D01*
X554768Y230776D01*
X555305Y230365D01*
X555929Y230106D01*
X556600Y230017D01*
X558263D01*
Y232108D01*
D02*
G37*
G36*
X481300Y230732D02*
X481176Y230707D01*
X480647Y230353D01*
X480293Y229824D01*
X480268Y229700D01*
X481300D01*
Y230732D01*
D02*
G37*
G36*
X574601Y232108D02*
X571004D01*
X571026Y231937D01*
X571285Y231312D01*
X571697Y230776D01*
X572233Y230364D01*
X572858Y230105D01*
X573528Y230017D01*
X574601D01*
Y232108D01*
D02*
G37*
G36*
X563450Y232108D02*
X559263D01*
Y230017D01*
X560926D01*
X561596Y230106D01*
X562221Y230365D01*
X562757Y230776D01*
X563169Y231313D01*
X563428Y231938D01*
X563450Y232108D01*
D02*
G37*
G36*
X558263Y235199D02*
X556600D01*
X555929Y235111D01*
X555305Y234852D01*
X554768Y234440D01*
X554356Y233904D01*
X554098Y233279D01*
X554075Y233108D01*
X558263D01*
Y235199D01*
D02*
G37*
G36*
X560926D02*
X559263D01*
Y233108D01*
X563450D01*
X563428Y233279D01*
X563169Y233904D01*
X562757Y234440D01*
X562221Y234852D01*
X561596Y235111D01*
X560926Y235199D01*
D02*
G37*
G36*
X574601Y235198D02*
X573528D01*
X572858Y235110D01*
X572233Y234851D01*
X571697Y234439D01*
X571285Y233903D01*
X571026Y233278D01*
X571004Y233108D01*
X574601D01*
Y235198D01*
D02*
G37*
G36*
X576673D02*
X575601D01*
Y233108D01*
X579198D01*
X579176Y233278D01*
X578917Y233903D01*
X578505Y234439D01*
X577968Y234851D01*
X577344Y235110D01*
X576673Y235198D01*
D02*
G37*
G36*
X544000Y255583D02*
X543073Y255461D01*
X542208Y255103D01*
X541466Y254534D01*
X540897Y253792D01*
X540539Y252927D01*
X540417Y252000D01*
X540539Y251073D01*
X540897Y250208D01*
X540989Y250087D01*
X530020Y239118D01*
X516000D01*
X515649Y239048D01*
X515351Y238849D01*
X504551Y228049D01*
X503718Y228606D01*
Y231220D01*
X512780Y240282D01*
X523200D01*
X523551Y240352D01*
X523849Y240551D01*
X527396Y244098D01*
X528184Y243677D01*
X528268Y244100D01*
X529300D01*
Y245132D01*
X529723Y245216D01*
X529302Y246004D01*
X532200Y248903D01*
X532208Y248897D01*
X533073Y248539D01*
X534000Y248417D01*
X534928Y248539D01*
X535792Y248897D01*
X536534Y249466D01*
X537103Y250208D01*
X537461Y251073D01*
X537583Y252000D01*
X537461Y252927D01*
X537103Y253792D01*
X536534Y254534D01*
X535792Y255103D01*
X534928Y255461D01*
X534000Y255583D01*
X533073Y255461D01*
X532208Y255103D01*
X531466Y254534D01*
X530897Y253792D01*
X530539Y252927D01*
X530417Y252000D01*
X530539Y251073D01*
X530897Y250208D01*
X530903Y250200D01*
X522820Y242118D01*
X519006D01*
X518449Y242951D01*
X523924Y248427D01*
X524000Y248417D01*
X524928Y248539D01*
X525792Y248897D01*
X526534Y249466D01*
X527103Y250208D01*
X527461Y251073D01*
X527583Y252000D01*
X527461Y252927D01*
X527103Y253792D01*
X526534Y254534D01*
X525792Y255103D01*
X524928Y255461D01*
X524000Y255583D01*
X523072Y255461D01*
X522208Y255103D01*
X521466Y254534D01*
X520897Y253792D01*
X520539Y252927D01*
X520417Y252000D01*
X520539Y251073D01*
X520897Y250208D01*
X521466Y249466D01*
X521522Y248619D01*
X517420Y244518D01*
X511200D01*
X510849Y244448D01*
X510551Y244249D01*
X499751Y233449D01*
X499552Y233151D01*
X499482Y232800D01*
Y220100D01*
X498765Y219567D01*
X498318Y219703D01*
Y235420D01*
X511974Y249076D01*
X512208Y248897D01*
X513072Y248539D01*
X514000Y248417D01*
X514927Y248539D01*
X515792Y248897D01*
X516534Y249466D01*
X517103Y250208D01*
X517461Y251073D01*
X517583Y252000D01*
X517461Y252927D01*
X517103Y253792D01*
X516534Y254534D01*
X515792Y255103D01*
X514927Y255461D01*
X514000Y255583D01*
X513072Y255461D01*
X512208Y255103D01*
X511466Y254534D01*
X510897Y253792D01*
X510539Y252927D01*
X510417Y252000D01*
X510539Y251073D01*
X510784Y250481D01*
X496751Y236449D01*
X495918Y237006D01*
Y243820D01*
X501521Y249424D01*
X502208Y248897D01*
X503073Y248539D01*
X504000Y248417D01*
X504927Y248539D01*
X505792Y248897D01*
X506534Y249466D01*
X507103Y250208D01*
X507461Y251073D01*
X507583Y252000D01*
X507461Y252927D01*
X507103Y253792D01*
X506534Y254534D01*
X505792Y255103D01*
X504927Y255461D01*
X504000Y255583D01*
X503073Y255461D01*
X502208Y255103D01*
X501466Y254534D01*
X500897Y253792D01*
X500539Y252927D01*
X500417Y252000D01*
X500539Y251073D01*
X500549Y251047D01*
X494351Y244849D01*
X493518Y245406D01*
Y247994D01*
X494000Y248417D01*
X494928Y248539D01*
X495792Y248897D01*
X496534Y249466D01*
X497103Y250208D01*
X497461Y251073D01*
X497583Y252000D01*
X497461Y252927D01*
X497103Y253792D01*
X496534Y254534D01*
X495792Y255103D01*
X494928Y255461D01*
X494000Y255583D01*
X493073Y255461D01*
X492208Y255103D01*
X491466Y254534D01*
X490897Y253792D01*
X490539Y252927D01*
X490417Y252000D01*
X490539Y251073D01*
X490897Y250208D01*
X491466Y249466D01*
X491682Y249300D01*
Y246006D01*
X490849Y245449D01*
X486663Y249635D01*
X487103Y250208D01*
X487461Y251073D01*
X487583Y252000D01*
X487461Y252927D01*
X487103Y253792D01*
X486534Y254534D01*
X485792Y255103D01*
X484928Y255461D01*
X484000Y255583D01*
X483073Y255461D01*
X482208Y255103D01*
X481466Y254534D01*
X480897Y253792D01*
X480539Y252927D01*
X480417Y252000D01*
X480539Y251073D01*
X480897Y250208D01*
X481466Y249466D01*
X482208Y248897D01*
X483073Y248539D01*
X484000Y248417D01*
X484928Y248539D01*
X485094Y248608D01*
X489282Y244420D01*
Y219711D01*
X489046Y219553D01*
X488693Y219024D01*
X488569Y218400D01*
X488569Y218400D01*
X488569Y218400D01*
X487824Y218107D01*
X487200Y218231D01*
X486576Y218107D01*
X486431Y218400D01*
D01*
X486431D01*
X486431Y218400D01*
X486307Y219024D01*
X486188Y219203D01*
X486188Y219203D01*
X485954Y219553D01*
Y219553D01*
X485718Y219711D01*
Y239400D01*
X485659Y239693D01*
X485648Y239751D01*
X485449Y240049D01*
X481468Y244030D01*
X482035Y244720D01*
X482035D01*
X482035Y244720D01*
X482376Y244493D01*
X482500Y244468D01*
Y245500D01*
X481468D01*
X481493Y245376D01*
X481720Y245035D01*
X481030Y244468D01*
X477406Y248092D01*
X477553Y248447D01*
X477553D01*
X477553Y248447D01*
Y255553D01*
X470447D01*
Y248447D01*
X474455D01*
X483882Y239020D01*
Y230503D01*
X483027Y230243D01*
X482954Y230353D01*
X482424Y230707D01*
X482300Y230732D01*
Y229199D01*
Y227668D01*
X482424Y227693D01*
X482954Y228046D01*
X483027Y228157D01*
X483882Y227897D01*
Y219711D01*
X483646Y219553D01*
X483293Y219024D01*
X483169Y218400D01*
X483293Y217776D01*
X483646Y217247D01*
X483862Y217102D01*
X483688Y216226D01*
X482158Y215921D01*
X480600D01*
X480600Y215922D01*
X480171Y215836D01*
X479807Y215593D01*
X477294Y213080D01*
X476802Y213145D01*
X476371Y213291D01*
X476261Y214127D01*
X475903Y214992D01*
X475334Y215734D01*
X474592Y216303D01*
X473728Y216661D01*
X472800Y216783D01*
X471873Y216661D01*
X471008Y216303D01*
X470266Y215734D01*
X469697Y214992D01*
X469339Y214127D01*
X469217Y213200D01*
X469339Y212273D01*
X469697Y211408D01*
X470266Y210666D01*
X471008Y210097D01*
X471873Y209739D01*
X472800Y209617D01*
X473728Y209739D01*
X474592Y210097D01*
X475334Y210666D01*
X475632Y211055D01*
X476478Y210768D01*
Y205632D01*
X475632Y205345D01*
X475334Y205734D01*
X474592Y206303D01*
X473728Y206661D01*
X472800Y206783D01*
X471873Y206661D01*
X471008Y206303D01*
X470266Y205734D01*
X469697Y204992D01*
X469339Y204127D01*
X469217Y203200D01*
X469339Y202273D01*
X469697Y201408D01*
X470266Y200666D01*
X471008Y200097D01*
X471873Y199739D01*
X472800Y199617D01*
X473728Y199739D01*
X474592Y200097D01*
X475334Y200666D01*
X475903Y201408D01*
X476181Y202078D01*
X476200D01*
X476200Y202078D01*
X476629Y202164D01*
X476993Y202407D01*
X478393Y203807D01*
X478393Y203807D01*
X478636Y204171D01*
X478722Y204600D01*
X478722Y204600D01*
Y211335D01*
X481065Y213679D01*
X486735D01*
X488807Y211607D01*
X488807Y211607D01*
X489171Y211364D01*
X489600Y211279D01*
X507600D01*
X507600Y211278D01*
X508029Y211364D01*
X508393Y211607D01*
X510832Y214046D01*
X510833Y214046D01*
X511076Y214410D01*
X511161Y214839D01*
Y227228D01*
X516465Y232532D01*
X528456D01*
X528647Y232246D01*
X529176Y231893D01*
X529800Y231769D01*
X530424Y231893D01*
X530954Y232246D01*
X531307Y232776D01*
X531431Y233400D01*
X531424Y233438D01*
X541665Y243678D01*
X552300D01*
X552387Y242789D01*
X552600Y242832D01*
X552813Y242789D01*
X552890Y243574D01*
X552900Y243678D01*
X555975D01*
X555997Y243647D01*
X556526Y243293D01*
X557150Y243169D01*
X557774Y243293D01*
X558303Y243647D01*
X558657Y244176D01*
X558781Y244800D01*
X558657Y245424D01*
X558303Y245953D01*
X557774Y246307D01*
X557150Y246431D01*
X556526Y246307D01*
X555997Y245953D01*
X555975Y245921D01*
X541200D01*
X541200Y245922D01*
X540771Y245836D01*
X540407Y245593D01*
X529838Y235024D01*
X529800Y235031D01*
X529176Y234907D01*
X528978Y234775D01*
X516000D01*
X516000Y234775D01*
X515571Y234690D01*
X515207Y234447D01*
X515207Y234447D01*
X509246Y228486D01*
X509003Y228122D01*
X508918Y227693D01*
X508918Y227693D01*
Y215304D01*
X507135Y213522D01*
X504438D01*
X504334Y213677D01*
X503996Y214310D01*
X504307Y214776D01*
X504431Y215400D01*
X504307Y216024D01*
X504245Y216117D01*
X504742Y216860D01*
X505200Y216769D01*
X505824Y216893D01*
X506354Y217247D01*
X506707Y217776D01*
X506831Y218400D01*
X506707Y219024D01*
X506354Y219553D01*
X506118Y219711D01*
Y227020D01*
X516380Y237282D01*
X530400D01*
X530751Y237352D01*
X531049Y237551D01*
X542340Y248842D01*
X543073Y248539D01*
X544000Y248417D01*
X544927Y248539D01*
X545792Y248897D01*
X546534Y249466D01*
X547103Y250208D01*
X547461Y251073D01*
X547583Y252000D01*
X547461Y252927D01*
X547103Y253792D01*
X546534Y254534D01*
X545792Y255103D01*
X544927Y255461D01*
X544000Y255583D01*
D02*
G37*
G36*
X571900Y250900D02*
X570868D01*
X570893Y250776D01*
X571246Y250247D01*
X571776Y249893D01*
X571900Y249868D01*
Y250900D01*
D02*
G37*
G36*
X561100Y249100D02*
X560068D01*
X560093Y248976D01*
X560447Y248446D01*
X560976Y248093D01*
X561100Y248068D01*
Y249100D01*
D02*
G37*
G36*
X563132D02*
X562100D01*
Y248068D01*
X562224Y248093D01*
X562753Y248446D01*
X563107Y248976D01*
X563132Y249100D01*
D02*
G37*
G36*
X573932Y250900D02*
X572900D01*
Y249868D01*
X573024Y249893D01*
X573554Y250247D01*
X573907Y250776D01*
X573932Y250900D01*
D02*
G37*
G36*
X571900Y252932D02*
X571776Y252907D01*
X571246Y252554D01*
X570893Y252024D01*
X570868Y251900D01*
X571900D01*
Y252932D01*
D02*
G37*
G36*
X572900D02*
Y251900D01*
X573932D01*
X573907Y252024D01*
X573554Y252554D01*
X573024Y252907D01*
X572900Y252932D01*
D02*
G37*
G36*
X561100Y251132D02*
X560976Y251107D01*
X560447Y250753D01*
X560093Y250224D01*
X560068Y250100D01*
X561100D01*
Y251132D01*
D02*
G37*
G36*
X562100D02*
Y250100D01*
X563132D01*
X563107Y250224D01*
X562753Y250753D01*
X562224Y251107D01*
X562100Y251132D01*
D02*
G37*
G36*
X577532Y245500D02*
X576500D01*
Y244468D01*
X576624Y244493D01*
X577153Y244847D01*
X577507Y245376D01*
X577532Y245500D01*
D02*
G37*
G36*
X471700Y246932D02*
X471576Y246907D01*
X471046Y246553D01*
X470693Y246024D01*
X470668Y245900D01*
X471700D01*
Y246932D01*
D02*
G37*
G36*
X484532Y245500D02*
X483500D01*
Y244468D01*
X483624Y244493D01*
X484154Y244847D01*
X484507Y245376D01*
X484532Y245500D01*
D02*
G37*
G36*
X575500D02*
X574468D01*
X574493Y245376D01*
X574847Y244847D01*
X575376Y244493D01*
X575500Y244468D01*
Y245500D01*
D02*
G37*
G36*
X472700Y246932D02*
Y245900D01*
X473732D01*
X473707Y246024D01*
X473353Y246553D01*
X472824Y246907D01*
X472700Y246932D01*
D02*
G37*
G36*
X575500Y247532D02*
X575376Y247507D01*
X574847Y247153D01*
X574493Y246624D01*
X574468Y246500D01*
X575500D01*
Y247532D01*
D02*
G37*
G36*
X576500D02*
Y246500D01*
X577532D01*
X577507Y246624D01*
X577153Y247153D01*
X576624Y247507D01*
X576500Y247532D01*
D02*
G37*
G36*
X482500D02*
X482376Y247507D01*
X481847Y247153D01*
X481493Y246624D01*
X481468Y246500D01*
X482500D01*
Y247532D01*
D02*
G37*
G36*
X483500D02*
Y246500D01*
X484532D01*
X484507Y246624D01*
X484154Y247153D01*
X483624Y247507D01*
X483500Y247532D01*
D02*
G37*
G36*
X582100Y219332D02*
X581976Y219307D01*
X581447Y218953D01*
X581093Y218424D01*
X581068Y218300D01*
X582100D01*
Y219332D01*
D02*
G37*
G36*
X583100D02*
Y218300D01*
X584132D01*
X584107Y218424D01*
X583753Y218953D01*
X583224Y219307D01*
X583100Y219332D01*
D02*
G37*
G36*
X584132Y217300D02*
X583100D01*
Y216268D01*
X583224Y216293D01*
X583753Y216647D01*
X584107Y217176D01*
X584132Y217300D01*
D02*
G37*
G36*
X564000Y220031D02*
X563376Y219907D01*
X562847Y219553D01*
X562493Y219024D01*
X562369Y218400D01*
X562369Y218400D01*
X562369Y218400D01*
X561624Y218107D01*
X561000Y218231D01*
X560376Y218107D01*
X559846Y217754D01*
X559493Y217224D01*
X559369Y216600D01*
X559493Y215976D01*
X559846Y215446D01*
X560082Y215289D01*
Y213711D01*
X559846Y213554D01*
X559493Y213024D01*
X559369Y212400D01*
X559493Y211776D01*
X559846Y211246D01*
X560376Y210893D01*
X561000Y210769D01*
X561624Y210893D01*
X562153Y211246D01*
X562507Y211776D01*
X562631Y212400D01*
X562540Y212858D01*
X563283Y213355D01*
X563376Y213293D01*
X564000Y213169D01*
X564624Y213293D01*
X565154Y213647D01*
X565507Y214176D01*
X565631Y214800D01*
X565507Y215424D01*
X565154Y215953D01*
X564918Y216111D01*
Y217089D01*
X565154Y217247D01*
X565507Y217776D01*
X565631Y218400D01*
X565507Y219024D01*
X565154Y219553D01*
X564624Y219907D01*
X564000Y220031D01*
D02*
G37*
G36*
X472800Y226783D02*
X471873Y226661D01*
X471008Y226303D01*
X470266Y225734D01*
X469697Y224992D01*
X469339Y224127D01*
X469217Y223200D01*
X469339Y222273D01*
X469697Y221408D01*
X470266Y220666D01*
X471008Y220097D01*
X471873Y219739D01*
X472800Y219617D01*
X473728Y219739D01*
X474592Y220097D01*
X475334Y220666D01*
X475903Y221408D01*
X476261Y222273D01*
X476383Y223200D01*
X476261Y224127D01*
X475903Y224992D01*
X475334Y225734D01*
X474592Y226303D01*
X473728Y226661D01*
X472800Y226783D01*
D02*
G37*
G36*
X526900Y221500D02*
X525868D01*
X525893Y221376D01*
X526247Y220847D01*
X526776Y220493D01*
X526900Y220468D01*
Y221500D01*
D02*
G37*
G36*
X528932D02*
X527900D01*
Y220468D01*
X528024Y220493D01*
X528553Y220847D01*
X528907Y221376D01*
X528932Y221500D01*
D02*
G37*
G36*
X574300Y220900D02*
X573268D01*
X573293Y220776D01*
X573646Y220247D01*
X574176Y219893D01*
X574300Y219868D01*
Y220900D01*
D02*
G37*
G36*
X576332D02*
X575300D01*
Y219868D01*
X575424Y219893D01*
X575953Y220247D01*
X576307Y220776D01*
X576332Y220900D01*
D02*
G37*
G36*
X574300Y212500D02*
X573268D01*
X573293Y212376D01*
X573646Y211846D01*
X574176Y211493D01*
X574300Y211468D01*
Y212500D01*
D02*
G37*
G36*
X576332D02*
X575300D01*
Y211468D01*
X575424Y211493D01*
X575953Y211846D01*
X576307Y212376D01*
X576332Y212500D01*
D02*
G37*
G36*
X526900Y210700D02*
X525868D01*
X525893Y210576D01*
X526247Y210047D01*
X526776Y209693D01*
X526900Y209668D01*
Y210700D01*
D02*
G37*
G36*
X528932D02*
X527900D01*
Y209668D01*
X528024Y209693D01*
X528553Y210047D01*
X528907Y210576D01*
X528932Y210700D01*
D02*
G37*
G36*
X526900Y212732D02*
X526776Y212707D01*
X526247Y212353D01*
X525893Y211824D01*
X525868Y211700D01*
X526900D01*
Y212732D01*
D02*
G37*
G36*
X575300Y214532D02*
Y213500D01*
X576332D01*
X576307Y213624D01*
X575953Y214154D01*
X575424Y214507D01*
X575300Y214532D01*
D02*
G37*
G36*
X582100Y217300D02*
X581068D01*
X581093Y217176D01*
X581447Y216647D01*
X581976Y216293D01*
X582100Y216268D01*
Y217300D01*
D02*
G37*
G36*
X527900Y212732D02*
Y211700D01*
X528932D01*
X528907Y211824D01*
X528553Y212353D01*
X528024Y212707D01*
X527900Y212732D01*
D02*
G37*
G36*
X574300Y214532D02*
X574176Y214507D01*
X573646Y214154D01*
X573293Y213624D01*
X573268Y213500D01*
X574300D01*
Y214532D01*
D02*
G37*
G36*
X566500Y227732D02*
X566376Y227707D01*
X565846Y227354D01*
X565493Y226824D01*
X565468Y226700D01*
X566500D01*
Y227732D01*
D02*
G37*
G36*
X567500D02*
Y226700D01*
X568532D01*
X568507Y226824D01*
X568153Y227354D01*
X567624Y227707D01*
X567500Y227732D01*
D02*
G37*
G36*
X582100Y227500D02*
X581068D01*
X581093Y227376D01*
X581447Y226847D01*
X581976Y226493D01*
X582100Y226468D01*
Y227500D01*
D02*
G37*
G36*
X584132D02*
X583100D01*
Y226468D01*
X583224Y226493D01*
X583753Y226847D01*
X584107Y227376D01*
X584132Y227500D01*
D02*
G37*
G36*
X541300Y228332D02*
X541176Y228307D01*
X540647Y227954D01*
X540293Y227424D01*
X540268Y227300D01*
X541300D01*
Y228332D01*
D02*
G37*
G36*
X582100Y229532D02*
X581976Y229507D01*
X581447Y229153D01*
X581093Y228624D01*
X581068Y228500D01*
X582100D01*
Y229532D01*
D02*
G37*
G36*
X583100D02*
Y228500D01*
X584132D01*
X584107Y228624D01*
X583753Y229153D01*
X583224Y229507D01*
X583100Y229532D01*
D02*
G37*
G36*
X542300Y228332D02*
Y227300D01*
X543332D01*
X543307Y227424D01*
X542953Y227954D01*
X542424Y228307D01*
X542300Y228332D01*
D02*
G37*
G36*
X481300Y228700D02*
X480268D01*
X480293Y228576D01*
X480647Y228046D01*
X481176Y227693D01*
X481300Y227668D01*
Y228700D01*
D02*
G37*
G36*
X526900Y223532D02*
X526776Y223507D01*
X526247Y223153D01*
X525893Y222624D01*
X525868Y222500D01*
X526900D01*
Y223532D01*
D02*
G37*
G36*
X527900D02*
Y222500D01*
X528932D01*
X528907Y222624D01*
X528553Y223153D01*
X528024Y223507D01*
X527900Y223532D01*
D02*
G37*
G36*
X574300Y222932D02*
X574176Y222907D01*
X573646Y222553D01*
X573293Y222024D01*
X573268Y221900D01*
X574300D01*
Y222932D01*
D02*
G37*
G36*
X575300D02*
Y221900D01*
X576332D01*
X576307Y222024D01*
X575953Y222553D01*
X575424Y222907D01*
X575300Y222932D01*
D02*
G37*
G36*
X566500Y225700D02*
X565468D01*
X565493Y225576D01*
X565846Y225046D01*
X566376Y224693D01*
X566500Y224668D01*
Y225700D01*
D02*
G37*
G36*
X541300Y226300D02*
X540268D01*
X540293Y226176D01*
X540647Y225646D01*
X541176Y225293D01*
X541300Y225268D01*
Y226300D01*
D02*
G37*
G36*
X543332D02*
X542300D01*
Y225268D01*
X542424Y225293D01*
X542953Y225646D01*
X543307Y226176D01*
X543332Y226300D01*
D02*
G37*
G36*
X568532Y225700D02*
X567500D01*
Y224668D01*
X567624Y224693D01*
X568153Y225046D01*
X568507Y225576D01*
X568532Y225700D01*
D02*
G37*
G36*
X560731Y228894D02*
X559998Y228748D01*
X559376Y228333D01*
X558960Y227711D01*
X558815Y226978D01*
X558960Y226245D01*
X559376Y225623D01*
X559998Y225207D01*
X560731Y225062D01*
X561464Y225207D01*
X562086Y225623D01*
X562501Y226245D01*
X562647Y226978D01*
X562501Y227711D01*
X562086Y228333D01*
X561464Y228748D01*
X560731Y228894D01*
D02*
G37*
%LPD*%
D22*
X484800Y218400D02*
Y239400D01*
X473400Y250800D02*
X484800Y239400D01*
X492600Y215400D02*
Y249600D01*
X494400Y251400D01*
X495000Y218400D02*
Y244200D01*
X502800Y252000D01*
X504000D01*
X504600D01*
X497400Y235800D02*
X513600Y252000D01*
X497400Y215400D02*
Y235800D01*
X500400Y218400D02*
Y232800D01*
X511200Y243600D02*
X517800D01*
X524400Y250200D01*
Y251400D01*
X500400Y232800D02*
X511200Y243600D01*
X502800Y215400D02*
Y231600D01*
X512400Y241200D01*
X523200D01*
X505200Y218400D02*
Y227400D01*
X523200Y241200D02*
X533400Y251400D01*
X516000Y238200D02*
X530400D01*
X543600Y251400D01*
X505200Y227400D02*
X516000Y238200D01*
X543600Y251400D02*
X544200D01*
X484800Y205800D02*
Y206400D01*
X490200Y218400D02*
Y244800D01*
X484800Y206400D02*
X496200D01*
X504600Y198000D01*
X527400D01*
X482400Y208200D02*
X498000D01*
X503400Y202800D01*
X527400D01*
X483000Y252000D02*
X490200Y244800D01*
X561000Y212400D02*
Y216600D01*
X564000Y214800D02*
Y218400D01*
D23*
X547348Y192028D02*
X550800Y195480D01*
X521458Y192028D02*
X547348D01*
X521400Y192087D02*
X521458Y192028D01*
X530054Y233654D02*
X541200Y244800D01*
X510039Y227693D02*
X516000Y233654D01*
X507600Y212400D02*
X510039Y214839D01*
X489600Y212400D02*
X507600D01*
X487200Y214800D02*
X489600Y212400D01*
X487200Y214800D02*
Y216600D01*
X510039Y214839D02*
Y227693D01*
X562200Y182306D02*
Y182400D01*
X541200Y244800D02*
X557150D01*
X480600Y214800D02*
X487200D01*
X477600Y204600D02*
Y211800D01*
X476200Y203200D02*
X477600Y204600D01*
X472800Y203200D02*
X476200D01*
X477600Y211800D02*
X480600Y214800D01*
X516000Y233654D02*
X530054D01*
X550800Y195480D02*
Y206400D01*
Y225000D01*
D24*
X558763Y198592D02*
D03*
X558763Y232608D02*
D03*
D25*
X575101Y198592D02*
D03*
X575101Y232608D02*
D03*
D26*
X560731Y204222D02*
D03*
Y226978D02*
D03*
D27*
X544000Y252000D02*
D03*
X534000D02*
D03*
X524000D02*
D03*
X514000D02*
D03*
X504000D02*
D03*
X494000D02*
D03*
X484000D02*
D03*
X472800Y203200D02*
D03*
Y213200D02*
D03*
Y223200D02*
D03*
X542200Y181200D02*
D03*
X532200D02*
D03*
X522200D02*
D03*
X512200D02*
D03*
X502200D02*
D03*
X492200D02*
D03*
X482200D02*
D03*
D28*
X474000Y252000D02*
D03*
X472200Y181200D02*
D03*
D29*
X472800Y193200D02*
D03*
D30*
X484800Y218400D02*
D03*
X487200Y216600D02*
D03*
X490200Y218400D02*
D03*
X492600Y215400D02*
D03*
X495000Y218400D02*
D03*
X497400Y215400D02*
D03*
X500400Y218400D02*
D03*
X502800Y215400D02*
D03*
X505200Y218400D02*
D03*
X527400Y202800D02*
D03*
X482400Y208200D02*
D03*
X527400Y198000D02*
D03*
X484800Y205800D02*
D03*
X550800Y225000D02*
D03*
X521400Y192087D02*
D03*
X550800Y206400D02*
D03*
X561000Y216600D02*
D03*
Y212400D02*
D03*
X564000Y214800D02*
D03*
Y218400D02*
D03*
X550800Y195480D02*
D03*
X529800Y233400D02*
D03*
X557150Y244800D02*
D03*
X562200Y182400D02*
D03*
X574800Y221400D02*
D03*
Y213000D02*
D03*
Y205200D02*
D03*
X582600Y217800D02*
D03*
Y228000D02*
D03*
Y207000D02*
D03*
X582000Y193200D02*
D03*
X566400Y193800D02*
D03*
X567000Y226200D02*
D03*
X504600Y208200D02*
D03*
X496200Y188400D02*
D03*
X486600Y186600D02*
D03*
X566400Y207600D02*
D03*
X483000Y246000D02*
D03*
X552600Y241200D02*
D03*
X572400Y251400D02*
D03*
X561600Y249600D02*
D03*
X572400Y182400D02*
D03*
X565800Y178200D02*
D03*
X566400Y185400D02*
D03*
X549600Y177000D02*
D03*
X527400Y211200D02*
D03*
Y222000D02*
D03*
X541800Y226800D02*
D03*
X472200Y245400D02*
D03*
X529800Y243600D02*
D03*
X576000Y246000D02*
D03*
X481800Y229200D02*
D03*
M02*
