M48
;Layer_Color=9474304
;FILE_FORMAT=2:5
INCH,LZ
;TYPE=PLATED
T1F00S00C0.01000
T3F00S00C0.03543
;TYPE=NON_PLATED
T4F00S00C0.02559
%
T01
X04866Y01866
X04962Y01884
X04974Y02154
X04926
X04902Y02184
X04872Y02166
X04848Y02184
X0495
X05004
X05052
X05028Y02154
X05046Y02082
X04824
X04848Y02058
X04818Y02292
X0483Y0246
X04722Y02454
X05298Y02436
Y02334
X05274Y0222
Y02112
Y02028
Y0198
X05214Y0192087
X05508Y019548
Y02064
X0561Y02124
Y02166
X0564Y02148
Y02184
X0567Y02262
X05748Y02214
Y0213
Y02052
X05826Y0207
Y02178
Y0228
X0576Y0246
X05724Y02514
X05616Y02496
X055715Y02448
X05526Y02412
X05508Y0225
X05418Y02268
X05664Y02076
Y01938
Y01854
X05622Y01824
X05658Y01782
X05724Y01824
X0582Y01932
X05496Y0177
T03
X04722Y01812
X04822
X04922
X05022
X05122
X05222
X05322
X05422
X0544Y0252
X0534
X0524
X0514
X0504
X0494
X0484
X0474
X04728Y02232
Y02132
Y02032
Y01932
T04
X0560731Y0204222
Y0226978
M30
