%FSLAX25Y25*%
%MOIN*%
G70*
G01*
G75*
G04 Layer_Color=32896*
%ADD10O,0.01575X0.05906*%
%ADD11R,0.01575X0.05906*%
%ADD12R,0.03937X0.04331*%
%ADD13R,0.03000X0.03000*%
%ADD14R,0.02756X0.03543*%
%ADD15R,0.07480X0.02362*%
%ADD16R,0.04528X0.01181*%
%ADD17R,0.04528X0.02362*%
%ADD18R,0.04724X0.03937*%
%ADD19R,0.04528X0.05512*%
%ADD20R,0.03000X0.03000*%
%ADD21R,0.04331X0.03937*%
%ADD22C,0.00600*%
%ADD23C,0.01000*%
%ADD24O,0.08263X0.03937*%
%ADD25O,0.07082X0.03937*%
%ADD26C,0.02559*%
%ADD27C,0.05906*%
%ADD28R,0.05906X0.05906*%
%ADD29R,0.05906X0.05906*%
%ADD30C,0.02000*%
%ADD31C,0.00394*%
%ADD32C,0.02362*%
%ADD33C,0.00984*%
%ADD34C,0.01181*%
%ADD35C,0.00787*%
%ADD36C,0.00197*%
%ADD37C,0.00800*%
%ADD38C,0.00100*%
%ADD39C,0.00300*%
D39*
X540600Y185400D02*
X543599D01*
Y186899D01*
X543099Y187399D01*
X542100D01*
X541600Y186899D01*
Y185400D01*
X540600Y188399D02*
Y189399D01*
Y188899D01*
X543599D01*
X543099Y188399D01*
X542100Y190898D02*
X543099Y191898D01*
X542100Y192898D01*
X540600Y193897D02*
Y194897D01*
Y194397D01*
X543599D01*
X543099Y193897D01*
X530500Y185400D02*
X533499D01*
Y186899D01*
X532999Y187399D01*
X531999D01*
X531500Y186899D01*
Y185400D01*
X530500Y188399D02*
Y189399D01*
Y188899D01*
X533499D01*
X532999Y188399D01*
X531999Y190898D02*
X532999Y191898D01*
X531999Y192898D01*
X532999Y193897D02*
X533499Y194397D01*
Y195397D01*
X532999Y195897D01*
X531000D01*
X530500Y195397D01*
Y194397D01*
X531000Y193897D01*
X532999D01*
X520400Y185400D02*
X523399D01*
Y186899D01*
X522899Y187399D01*
X521900D01*
X521400Y186899D01*
Y185400D01*
X522899Y188399D02*
X523399Y188899D01*
Y189899D01*
X522899Y190398D01*
X522399D01*
X521900Y189899D01*
Y189399D01*
Y189899D01*
X521400Y190398D01*
X520900D01*
X520400Y189899D01*
Y188899D01*
X520900Y188399D01*
X521900Y191398D02*
X522899Y192398D01*
X521900Y193397D01*
X523399Y194397D02*
Y196396D01*
X522899D01*
X520900Y194397D01*
X520400D01*
X510300Y185400D02*
X513299D01*
Y186899D01*
X512799Y187399D01*
X511799D01*
X511300Y186899D01*
Y185400D01*
X512799Y188399D02*
X513299Y188899D01*
Y189899D01*
X512799Y190398D01*
X512299D01*
X511799Y189899D01*
Y189399D01*
Y189899D01*
X511300Y190398D01*
X510800D01*
X510300Y189899D01*
Y188899D01*
X510800Y188399D01*
X511799Y191398D02*
X512799Y192398D01*
X511799Y193397D01*
X513299Y196396D02*
X512799Y195397D01*
X511799Y194397D01*
X510800D01*
X510300Y194897D01*
Y195897D01*
X510800Y196396D01*
X511300D01*
X511799Y195897D01*
Y194397D01*
X500200Y185400D02*
X503199D01*
Y186899D01*
X502699Y187399D01*
X501699D01*
X501200Y186899D01*
Y185400D01*
X502699Y188399D02*
X503199Y188899D01*
Y189899D01*
X502699Y190398D01*
X502199D01*
X501699Y189899D01*
Y189399D01*
Y189899D01*
X501200Y190398D01*
X500700D01*
X500200Y189899D01*
Y188899D01*
X500700Y188399D01*
X501699Y191398D02*
X502699Y192398D01*
X501699Y193397D01*
X503199Y196396D02*
Y194397D01*
X501699D01*
X502199Y195397D01*
Y195897D01*
X501699Y196396D01*
X500700D01*
X500200Y195897D01*
Y194897D01*
X500700Y194397D01*
X490100Y185400D02*
X493099D01*
Y186899D01*
X492599Y187399D01*
X491600D01*
X491100Y186899D01*
Y185400D01*
X492599Y188399D02*
X493099Y188899D01*
Y189899D01*
X492599Y190398D01*
X492099D01*
X491600Y189899D01*
Y189399D01*
Y189899D01*
X491100Y190398D01*
X490600D01*
X490100Y189899D01*
Y188899D01*
X490600Y188399D01*
X491600Y191398D02*
X492599Y192398D01*
X491600Y193397D01*
X490100Y195897D02*
X493099D01*
X491600Y194397D01*
Y196396D01*
X485201Y187899D02*
X485701Y188399D01*
X486700D01*
X487200Y187899D01*
Y185900D01*
X486700Y185400D01*
X485701D01*
X485201Y185900D01*
Y186899D01*
X486200D01*
X484201Y185400D02*
Y188399D01*
X482202Y185400D01*
Y188399D01*
X481202D02*
Y185400D01*
X479702D01*
X479203Y185900D01*
Y187899D01*
X479702Y188399D01*
X481202D01*
X546000Y247200D02*
X543001D01*
Y245701D01*
X543501Y245201D01*
X544500D01*
X545000Y245701D01*
Y247200D01*
X546000Y244201D02*
Y243201D01*
Y243701D01*
X543001D01*
X543501Y244201D01*
X544500Y241702D02*
X543501Y240702D01*
X544500Y239702D01*
X546000Y236703D02*
Y238703D01*
X544001Y236703D01*
X543501D01*
X543001Y237203D01*
Y238203D01*
X543501Y238703D01*
X535800Y247200D02*
X532801D01*
Y245701D01*
X533301Y245201D01*
X534301D01*
X534800Y245701D01*
Y247200D01*
X535800Y244201D02*
Y243201D01*
Y243701D01*
X532801D01*
X533301Y244201D01*
X534301Y241702D02*
X533301Y240702D01*
X534301Y239702D01*
X533301Y238703D02*
X532801Y238203D01*
Y237203D01*
X533301Y236703D01*
X533801D01*
X534301Y237203D01*
Y237703D01*
Y237203D01*
X534800Y236703D01*
X535300D01*
X535800Y237203D01*
Y238203D01*
X535300Y238703D01*
X525600Y247200D02*
X522601D01*
Y245701D01*
X523101Y245201D01*
X524100D01*
X524600Y245701D01*
Y247200D01*
X525600Y244201D02*
Y243201D01*
Y243701D01*
X522601D01*
X523101Y244201D01*
X524100Y241702D02*
X523101Y240702D01*
X524100Y239702D01*
X525600Y237203D02*
X522601D01*
X524100Y238703D01*
Y236703D01*
X516000Y247200D02*
X513001D01*
Y245701D01*
X513501Y245201D01*
X514501D01*
X515000Y245701D01*
Y247200D01*
X516000Y244201D02*
Y243201D01*
Y243701D01*
X513001D01*
X513501Y244201D01*
X514501Y241702D02*
X513501Y240702D01*
X514501Y239702D01*
X513001Y236703D02*
Y238703D01*
X514501D01*
X514001Y237703D01*
Y237203D01*
X514501Y236703D01*
X515500D01*
X516000Y237203D01*
Y238203D01*
X515500Y238703D01*
X505200Y247200D02*
X502201D01*
Y245701D01*
X502701Y245201D01*
X503700D01*
X504200Y245701D01*
Y247200D01*
X505200Y244201D02*
Y243201D01*
Y243701D01*
X502201D01*
X502701Y244201D01*
X503700Y241702D02*
X502701Y240702D01*
X503700Y239702D01*
X502201Y236703D02*
X502701Y237703D01*
X503700Y238703D01*
X504700D01*
X505200Y238203D01*
Y237203D01*
X504700Y236703D01*
X504200D01*
X503700Y237203D01*
Y238703D01*
X495600Y247200D02*
X492601D01*
Y245701D01*
X493101Y245201D01*
X494101D01*
X494600Y245701D01*
Y247200D01*
X495600Y244201D02*
Y243201D01*
Y243701D01*
X492601D01*
X493101Y244201D01*
X494101Y241702D02*
X493101Y240702D01*
X494101Y239702D01*
X492601Y238703D02*
Y236703D01*
X493101D01*
X495100Y238703D01*
X495600D01*
X486000Y247200D02*
X483001D01*
Y245701D01*
X483501Y245201D01*
X484501D01*
X485000Y245701D01*
Y247200D01*
X483001Y242202D02*
Y244201D01*
X484501D01*
X484001Y243201D01*
Y242702D01*
X484501Y242202D01*
X485500D01*
X486000Y242702D01*
Y243701D01*
X485500Y244201D01*
X484501Y241202D02*
X483501Y240202D01*
X484501Y239203D01*
X486000Y236703D02*
X483001D01*
X484501Y238203D01*
Y236204D01*
X475800Y247200D02*
X472801D01*
Y245701D01*
X473301Y245201D01*
X474300D01*
X474800Y245701D01*
Y247200D01*
X472801Y242202D02*
Y244201D01*
X474300D01*
X473801Y243201D01*
Y242702D01*
X474300Y242202D01*
X475300D01*
X475800Y242702D01*
Y243701D01*
X475300Y244201D01*
X474300Y241202D02*
X473301Y240202D01*
X474300Y239203D01*
X472801Y236204D02*
Y238203D01*
X474300D01*
X473801Y237203D01*
Y236703D01*
X474300Y236204D01*
X475300D01*
X475800Y236703D01*
Y237703D01*
X475300Y238203D01*
X484001Y196299D02*
X484501Y196799D01*
X485500D01*
X486000Y196299D01*
Y194300D01*
X485500Y193800D01*
X484501D01*
X484001Y194300D01*
Y195299D01*
X485000D01*
X483001Y193800D02*
Y196799D01*
X481002Y193800D01*
Y196799D01*
X480002D02*
Y193800D01*
X478502D01*
X478003Y194300D01*
Y196299D01*
X478502Y196799D01*
X480002D01*
X501600Y221400D02*
Y224399D01*
X500101D01*
X499601Y223899D01*
Y222900D01*
X500101Y222400D01*
X501600D01*
X498601Y223899D02*
X498101Y224399D01*
X497101D01*
X496602Y223899D01*
Y223399D01*
X497101Y222900D01*
X497601D01*
X497101D01*
X496602Y222400D01*
Y221900D01*
X497101Y221400D01*
X498101D01*
X498601Y221900D01*
X495602Y222900D02*
X494602Y223899D01*
X493603Y222900D01*
X492603Y223899D02*
X492103Y224399D01*
X491103D01*
X490604Y223899D01*
Y223399D01*
X491103Y222900D01*
X491603D01*
X491103D01*
X490604Y222400D01*
Y221900D01*
X491103Y221400D01*
X492103D01*
X492603Y221900D01*
X489604Y221400D02*
X487605Y223399D01*
X484606Y223899D02*
X485105Y224399D01*
X486105D01*
X486605Y223899D01*
Y223399D01*
X486105Y222900D01*
X485105D01*
X484606Y222400D01*
Y221900D01*
X485105Y221400D01*
X486105D01*
X486605Y221900D01*
X483606Y224399D02*
Y221400D01*
X482106D01*
X481606Y221900D01*
Y223899D01*
X482106Y224399D01*
X483606D01*
X480607Y221400D02*
Y223399D01*
X479607Y224399D01*
X478607Y223399D01*
Y221400D01*
Y222900D01*
X480607D01*
X501600Y211200D02*
Y214199D01*
X500101D01*
X499601Y213699D01*
Y212700D01*
X500101Y212200D01*
X501600D01*
X498601Y213699D02*
X498101Y214199D01*
X497101D01*
X496602Y213699D01*
Y213199D01*
X497101Y212700D01*
X497601D01*
X497101D01*
X496602Y212200D01*
Y211700D01*
X497101Y211200D01*
X498101D01*
X498601Y211700D01*
X495602Y212700D02*
X494602Y213699D01*
X493603Y212700D01*
X490604Y211200D02*
X492603D01*
X490604Y213199D01*
Y213699D01*
X491103Y214199D01*
X492103D01*
X492603Y213699D01*
X489604Y211200D02*
X487605Y213199D01*
X484606Y213699D02*
X485105Y214199D01*
X486105D01*
X486605Y213699D01*
Y213199D01*
X486105Y212700D01*
X485105D01*
X484606Y212200D01*
Y211700D01*
X485105Y211200D01*
X486105D01*
X486605Y211700D01*
X481606Y213699D02*
X482106Y214199D01*
X483106D01*
X483606Y213699D01*
Y211700D01*
X483106Y211200D01*
X482106D01*
X481606Y211700D01*
X480607Y214199D02*
Y211200D01*
X478607D01*
X486364Y204278D02*
Y202278D01*
X485364Y201279D01*
X484365Y202278D01*
Y204278D01*
X481366Y203778D02*
X481865Y204278D01*
X482865D01*
X483365Y203778D01*
Y201779D01*
X482865Y201279D01*
X481865D01*
X481366Y201779D01*
X478367Y203778D02*
X478866Y204278D01*
X479866D01*
X480366Y203778D01*
Y201779D01*
X479866Y201279D01*
X478866D01*
X478367Y201779D01*
X477000Y188399D02*
Y186400D01*
X476000Y185400D01*
X475001Y186400D01*
Y188399D01*
X472002Y187899D02*
X472502Y188399D01*
X473501D01*
X474001Y187899D01*
Y185900D01*
X473501Y185400D01*
X472502D01*
X472002Y185900D01*
X469003Y187899D02*
X469502Y188399D01*
X470502D01*
X471002Y187899D01*
Y185900D01*
X470502Y185400D01*
X469502D01*
X469003Y185900D01*
M02*
