%FSLAX25Y25*%
%MOIN*%
G70*
G01*
G75*
G04 Layer_Color=8388736*
%ADD10O,0.01575X0.05906*%
%ADD11R,0.01575X0.05906*%
%ADD12R,0.03937X0.04331*%
%ADD13R,0.03000X0.03000*%
%ADD14R,0.02756X0.03543*%
%ADD15R,0.07480X0.02362*%
%ADD16R,0.04528X0.01181*%
%ADD17R,0.04528X0.02362*%
%ADD18R,0.04724X0.03937*%
%ADD19R,0.04528X0.05512*%
%ADD20R,0.03000X0.03000*%
%ADD21R,0.04331X0.03937*%
%ADD22C,0.00600*%
%ADD23C,0.01000*%
%ADD24O,0.08263X0.03937*%
%ADD25O,0.07082X0.03937*%
%ADD26C,0.02559*%
%ADD27C,0.05906*%
%ADD28R,0.05906X0.05906*%
%ADD29R,0.05906X0.05906*%
%ADD30C,0.02000*%
%ADD31C,0.00394*%
%ADD32C,0.02362*%
%ADD33C,0.00984*%
%ADD34C,0.01181*%
%ADD35C,0.00787*%
%ADD36C,0.00197*%
%ADD37C,0.00800*%
%ADD38C,0.00100*%
%ADD39C,0.00300*%
%ADD40O,0.02375X0.06706*%
%ADD41R,0.02375X0.06706*%
%ADD42R,0.04737X0.05131*%
%ADD43R,0.03800X0.03800*%
%ADD44R,0.03556X0.04343*%
%ADD45R,0.08280X0.03162*%
%ADD46R,0.05328X0.01981*%
%ADD47R,0.05328X0.03162*%
%ADD48R,0.05524X0.04737*%
%ADD49R,0.05328X0.06312*%
%ADD50R,0.03800X0.03800*%
%ADD51R,0.05131X0.04737*%
%ADD52O,0.09063X0.04737*%
%ADD53O,0.07882X0.04737*%
%ADD54C,0.03359*%
%ADD55C,0.06706*%
%ADD56R,0.06706X0.06706*%
%ADD57R,0.06706X0.06706*%
D40*
X482168Y200572D02*
D03*
X484727Y200572D02*
D03*
X487287D02*
D03*
X489846Y200572D02*
D03*
X492405D02*
D03*
X494964D02*
D03*
X497523D02*
D03*
X500082D02*
D03*
X502641D02*
D03*
X505200Y200572D02*
D03*
X482168Y223800D02*
D03*
X484727D02*
D03*
X487287D02*
D03*
X489846D02*
D03*
X492405D02*
D03*
X494964D02*
D03*
X497523D02*
D03*
X500082D02*
D03*
X502641D02*
D03*
D41*
X505200D02*
D03*
D42*
X508100Y240346D02*
D03*
Y233654D02*
D03*
X513500Y240346D02*
D03*
Y233654D02*
D03*
X519000Y240346D02*
D03*
Y233654D02*
D03*
X524400Y240346D02*
D03*
Y233654D02*
D03*
X475800Y240346D02*
D03*
Y233654D02*
D03*
X470400Y240346D02*
D03*
Y233654D02*
D03*
D43*
X501535Y240318D02*
D03*
Y233818D02*
D03*
X494935Y240118D02*
D03*
Y233618D02*
D03*
X488335Y240118D02*
D03*
Y233618D02*
D03*
X482335Y240118D02*
D03*
Y233618D02*
D03*
X546600Y204350D02*
D03*
X546600Y210850D02*
D03*
Y197050D02*
D03*
X546600Y190550D02*
D03*
D44*
X546600Y220041D02*
D03*
Y225159D02*
D03*
X533400Y241959D02*
D03*
Y236841D02*
D03*
D45*
X514862Y227500D02*
D03*
Y222500D02*
D03*
Y217500D02*
D03*
Y212500D02*
D03*
Y207500D02*
D03*
Y202500D02*
D03*
Y197500D02*
D03*
Y192500D02*
D03*
X535138Y227500D02*
D03*
Y222500D02*
D03*
Y217500D02*
D03*
Y212500D02*
D03*
Y207500D02*
D03*
Y202500D02*
D03*
Y197500D02*
D03*
Y192500D02*
D03*
D46*
X556499Y208710D02*
D03*
Y210679D02*
D03*
Y212647D02*
D03*
Y214616D02*
D03*
Y216584D02*
D03*
Y218553D02*
D03*
Y220521D02*
D03*
Y222490D02*
D03*
D47*
Y225049D02*
D03*
Y228198D02*
D03*
Y206151D02*
D03*
Y203001D02*
D03*
D48*
X582373Y182400D02*
D03*
X554027D02*
D03*
X582373Y250200D02*
D03*
X554027D02*
D03*
D49*
X540450Y233269D02*
D03*
X546750Y241931D02*
D03*
X540450D02*
D03*
X546750Y233269D02*
D03*
D50*
X488650Y193200D02*
D03*
X482150Y193200D02*
D03*
X563650Y239400D02*
D03*
X557150Y239400D02*
D03*
D51*
X579346Y239400D02*
D03*
X572654D02*
D03*
D52*
X558763Y198592D02*
D03*
X558763Y232608D02*
D03*
D53*
X575101Y198592D02*
D03*
X575101Y232608D02*
D03*
D54*
X560731Y204222D02*
D03*
Y226978D02*
D03*
D55*
X544000Y252000D02*
D03*
X534000D02*
D03*
X524000D02*
D03*
X514000D02*
D03*
X504000D02*
D03*
X494000D02*
D03*
X484000D02*
D03*
X472800Y203200D02*
D03*
Y213200D02*
D03*
Y223200D02*
D03*
X542200Y181200D02*
D03*
X532200D02*
D03*
X522200D02*
D03*
X512200D02*
D03*
X502200D02*
D03*
X492200D02*
D03*
X482200D02*
D03*
D56*
X474000Y252000D02*
D03*
X472200Y181200D02*
D03*
D57*
X472800Y193200D02*
D03*
M02*
