%FSLAX25Y25*%
%MOIN*%
G70*
G01*
G75*
G04 Layer_Color=32768*
%ADD10O,0.01575X0.05906*%
%ADD11R,0.01575X0.05906*%
%ADD12R,0.03937X0.04331*%
%ADD13R,0.03000X0.03000*%
%ADD14R,0.02756X0.03543*%
%ADD15R,0.07480X0.02362*%
%ADD16R,0.04528X0.01181*%
%ADD17R,0.04528X0.02362*%
%ADD18R,0.04724X0.03937*%
%ADD19R,0.04528X0.05512*%
%ADD20R,0.03000X0.03000*%
%ADD21R,0.04331X0.03937*%
%ADD22C,0.00600*%
%ADD23C,0.01000*%
%ADD24O,0.08263X0.03937*%
%ADD25O,0.07082X0.03937*%
%ADD26C,0.02559*%
%ADD27C,0.05906*%
%ADD28R,0.05906X0.05906*%
%ADD29R,0.05906X0.05906*%
%ADD30C,0.02000*%
%ADD31C,0.00394*%
%ADD32C,0.02362*%
%ADD33C,0.00984*%
%ADD34C,0.01181*%
%ADD35C,0.00787*%
%ADD36C,0.00197*%
%ADD37C,0.00800*%
%ADD38C,0.00100*%
%ADD39C,0.00300*%
%ADD40O,0.02375X0.06706*%
%ADD41R,0.02375X0.06706*%
%ADD42R,0.04737X0.05131*%
%ADD43R,0.03800X0.03800*%
%ADD44R,0.03556X0.04343*%
%ADD45R,0.08280X0.03162*%
%ADD46R,0.05328X0.01981*%
%ADD47R,0.05328X0.03162*%
%ADD48R,0.05524X0.04737*%
%ADD49R,0.05328X0.06312*%
%ADD50R,0.03800X0.03800*%
%ADD51R,0.05131X0.04737*%
%ADD52O,0.09063X0.04737*%
%ADD53O,0.07882X0.04737*%
%ADD54C,0.03359*%
%ADD55C,0.06706*%
%ADD56R,0.06706X0.06706*%
%ADD57R,0.06706X0.06706*%
%ADD58C,0.00500*%
D31*
X525000Y208031D02*
Y211968D01*
X523031Y210000D02*
X526969D01*
X510039Y227913D02*
X539961D01*
X510039Y192087D02*
X539961D01*
X510039D02*
Y227913D01*
X539961Y192087D02*
Y227913D01*
D58*
X498535Y243069D02*
X504535Y243068D01*
Y231069D02*
Y243068D01*
X498535Y231068D02*
Y243069D01*
Y231068D02*
X504535Y231069D01*
X491935Y242869D02*
X497935Y242868D01*
Y230869D02*
Y242868D01*
X491935Y230868D02*
Y242869D01*
Y230868D02*
X497935Y230869D01*
X485335Y242869D02*
X491335Y242868D01*
Y230869D02*
Y242868D01*
X485335Y230868D02*
Y242869D01*
Y230868D02*
X491335Y230869D01*
X479335Y242869D02*
X485335Y242868D01*
Y230869D02*
Y242868D01*
X479335Y230868D02*
Y242869D01*
Y230868D02*
X485335Y230869D01*
X543600Y201600D02*
X549600Y201600D01*
X543600Y201600D02*
X543600Y213600D01*
X549600Y213600D02*
X549600Y201600D01*
X543600Y213600D02*
X549600Y213600D01*
X491400Y190200D02*
X491400Y196200D01*
X479400Y190200D02*
X491400Y190200D01*
X479400Y196200D02*
X491400Y196200D01*
X479400Y196200D02*
X479400Y190200D01*
X543600Y199800D02*
X549600Y199800D01*
X549600Y187800D02*
X549600Y199800D01*
X543600Y199800D02*
X543600Y187800D01*
X549600Y187800D01*
X566400Y236400D02*
X566400Y242400D01*
X554400Y236400D02*
X566400Y236400D01*
X554400Y242400D02*
X566400Y242400D01*
X554400Y242400D02*
X554400Y236400D01*
M02*
