%FSLAX25Y25*%
%MOIN*%
G70*
G01*
G75*
G04 Layer_Physical_Order=1*
G04 Layer_Color=255*
%ADD10O,0.01575X0.05906*%
%ADD11R,0.01575X0.05906*%
%ADD12R,0.03937X0.04331*%
%ADD13R,0.03000X0.03000*%
%ADD14R,0.02756X0.03543*%
%ADD15R,0.07480X0.02362*%
%ADD16R,0.04528X0.01181*%
%ADD17R,0.04528X0.02362*%
%ADD18R,0.04724X0.03937*%
%ADD19R,0.04528X0.05512*%
%ADD20R,0.03000X0.03000*%
%ADD21R,0.04331X0.03937*%
%ADD22C,0.00600*%
%ADD23C,0.01000*%
%ADD24O,0.08263X0.03937*%
%ADD25O,0.07082X0.03937*%
%ADD26C,0.02559*%
%ADD27C,0.05906*%
%ADD28R,0.05906X0.05906*%
%ADD29R,0.05906X0.05906*%
%ADD30C,0.02000*%
G36*
X470322Y216581D02*
X470266Y215734D01*
X469697Y214992D01*
X469339Y214127D01*
X469217Y213200D01*
X469339Y212273D01*
X469697Y211408D01*
X470266Y210666D01*
X471008Y210097D01*
X471873Y209739D01*
X472800Y209617D01*
X473728Y209739D01*
X474592Y210097D01*
X475334Y210666D01*
X475618Y210685D01*
X475751Y210551D01*
X476049Y210352D01*
X476400Y210282D01*
X481097D01*
X481357Y209427D01*
X481247Y209353D01*
X480893Y208824D01*
X480769Y208200D01*
X480893Y207576D01*
X481247Y207047D01*
X481482Y206889D01*
Y203947D01*
X481168Y203737D01*
X480862Y203278D01*
X480754Y202737D01*
Y198406D01*
X480844Y197951D01*
X480056Y197530D01*
X475984Y201602D01*
X476261Y202273D01*
X476383Y203200D01*
X476261Y204127D01*
X475903Y204992D01*
X475334Y205734D01*
X474592Y206303D01*
X473728Y206661D01*
X472800Y206783D01*
X471873Y206661D01*
X471008Y206303D01*
X470266Y205734D01*
X469697Y204992D01*
X469339Y204127D01*
X469217Y203200D01*
X469339Y202273D01*
X469697Y201408D01*
X470266Y200666D01*
X471008Y200097D01*
X471873Y199739D01*
X472800Y199617D01*
X473728Y199739D01*
X474398Y200016D01*
X478278Y196135D01*
Y193206D01*
X478278Y193206D01*
X478278Y193206D01*
Y188865D01*
X474167Y184753D01*
X468744D01*
X468744Y184753D01*
X468744Y184753D01*
X468647Y184753D01*
X468112Y185288D01*
Y217622D01*
X468938Y217965D01*
X470322Y216581D01*
D02*
G37*
G36*
X583303Y257280D02*
X584177Y257165D01*
X584992Y256828D01*
X585691Y256291D01*
X586228Y255592D01*
X586565Y254777D01*
X586681Y253903D01*
X586688D01*
Y253800D01*
X586688Y253800D01*
X586688D01*
Y178200D01*
Y178097D01*
X586681D01*
X586565Y177223D01*
X586228Y176408D01*
X585691Y175709D01*
X584992Y175172D01*
X584177Y174835D01*
X583303Y174720D01*
Y174712D01*
X583251Y174702D01*
X583200Y174712D01*
X550595D01*
X550484Y175079D01*
X550484Y175079D01*
X550336Y175567D01*
X550753Y175847D01*
X551107Y176376D01*
X551132Y176500D01*
X548068D01*
X548093Y176376D01*
X548447Y175847D01*
X548864Y175567D01*
X548605Y174712D01*
X471497D01*
Y174720D01*
X470623Y174835D01*
X469808Y175172D01*
X469109Y175709D01*
X468572Y176408D01*
X468235Y177223D01*
X468550Y177635D01*
X468647Y177647D01*
D01*
X468744Y177647D01*
X468744Y177647D01*
X468744Y177647D01*
X475753D01*
Y183167D01*
X480193Y187607D01*
X480193Y187607D01*
X480436Y187971D01*
X480436Y187971D01*
X480436Y187971D01*
X480522Y188400D01*
X480522Y188400D01*
Y191100D01*
X484250D01*
Y195300D01*
X480522D01*
Y196600D01*
X480522Y196600D01*
X480465Y196883D01*
X481208Y197379D01*
X481627Y197099D01*
X482168Y196992D01*
X482710Y197099D01*
X483169Y197406D01*
Y197406D01*
X483727D01*
X484186Y197099D01*
X484727Y196992D01*
X485269Y197099D01*
X485728Y197406D01*
X486286D01*
X486745Y197099D01*
X487287Y196992D01*
X487828Y197099D01*
X488287Y197406D01*
X488845D01*
Y197406D01*
X489304Y197099D01*
X489846Y196992D01*
X490387Y197099D01*
X490699Y197308D01*
X491487Y196887D01*
Y195300D01*
X490750D01*
Y195300D01*
X489150D01*
Y193199D01*
Y191100D01*
X490750D01*
Y191100D01*
X490855D01*
X491487Y190468D01*
Y184690D01*
X491273Y184661D01*
X490408Y184303D01*
X489666Y183734D01*
X489097Y182992D01*
X488739Y182127D01*
X488617Y181200D01*
X488739Y180273D01*
X489097Y179408D01*
X489666Y178666D01*
X490408Y178097D01*
X491273Y177739D01*
X492200Y177617D01*
X493127Y177739D01*
X493992Y178097D01*
X494734Y178666D01*
X495303Y179408D01*
X495661Y180273D01*
X495783Y181200D01*
X495661Y182127D01*
X495303Y182992D01*
X494734Y183734D01*
X493992Y184303D01*
X493322Y184581D01*
Y194042D01*
X494177Y194302D01*
X494315Y194096D01*
X501282Y187129D01*
Y184663D01*
X501272Y184661D01*
X500408Y184303D01*
X499666Y183734D01*
X499097Y182992D01*
X498739Y182127D01*
X498617Y181200D01*
X498739Y180273D01*
X499097Y179408D01*
X499666Y178666D01*
X500408Y178097D01*
X501272Y177739D01*
X502200Y177617D01*
X503127Y177739D01*
X503992Y178097D01*
X504734Y178666D01*
X505303Y179408D01*
X505661Y180273D01*
X505783Y181200D01*
X505661Y182127D01*
X505303Y182992D01*
X504734Y183734D01*
X503992Y184303D01*
X503127Y184661D01*
X503118Y184663D01*
Y185823D01*
X503943Y186165D01*
X504757Y185351D01*
X505055Y185152D01*
X505406Y185082D01*
X507220D01*
X509190Y183113D01*
X509097Y182992D01*
X508739Y182127D01*
X508617Y181200D01*
X508739Y180273D01*
X509097Y179408D01*
X509666Y178666D01*
X510408Y178097D01*
X511272Y177739D01*
X512200Y177617D01*
X513128Y177739D01*
X513992Y178097D01*
X514734Y178666D01*
X515303Y179408D01*
X515661Y180273D01*
X515783Y181200D01*
X515674Y182032D01*
X516475Y182427D01*
X518351Y180551D01*
X518351D01*
X518351Y180551D01*
X518351Y180551D01*
Y180551D01*
X518649Y180352D01*
X518730Y180336D01*
X518739Y180273D01*
X519097Y179408D01*
X519666Y178666D01*
X520408Y178097D01*
X521273Y177739D01*
X522200Y177617D01*
X523128Y177739D01*
X523992Y178097D01*
X524734Y178666D01*
X525303Y179408D01*
X525661Y180273D01*
X525783Y181200D01*
X525661Y182127D01*
X525303Y182992D01*
X524734Y183734D01*
X523992Y184303D01*
X523128Y184661D01*
X522200Y184783D01*
X522499Y185082D01*
X527620D01*
X527951Y184751D01*
X527951D01*
X527951Y184751D01*
X529363Y183339D01*
X529097Y182992D01*
X528739Y182127D01*
X528617Y181200D01*
X528739Y180273D01*
X529097Y179408D01*
X529666Y178666D01*
X530408Y178097D01*
X531273Y177739D01*
X532200Y177617D01*
X533127Y177739D01*
X533992Y178097D01*
X534734Y178666D01*
X535303Y179408D01*
X535661Y180273D01*
X535783Y181200D01*
X535661Y182127D01*
X535303Y182992D01*
X534734Y183734D01*
X533992Y184303D01*
X533127Y184661D01*
X532200Y184783D01*
X531273Y184661D01*
X530823Y184475D01*
X529249Y186049D01*
X528649Y186649D01*
X528351Y186848D01*
X528351Y186848D01*
X528351D01*
Y186848D01*
X528355Y186882D01*
X535420D01*
X539189Y183113D01*
X539097Y182992D01*
X538739Y182127D01*
X538617Y181200D01*
X538739Y180273D01*
X539097Y179408D01*
X539666Y178666D01*
X540408Y178097D01*
X541272Y177739D01*
X542200Y177617D01*
X543127Y177739D01*
X543992Y178097D01*
X544734Y178666D01*
X545303Y179408D01*
X545661Y180273D01*
X545783Y181200D01*
X545661Y182127D01*
X545303Y182992D01*
X544734Y183734D01*
X543992Y184303D01*
X543127Y184661D01*
X542200Y184783D01*
X541272Y184661D01*
X540540Y184358D01*
X536449Y188449D01*
X536458Y188478D01*
X544500D01*
Y188450D01*
X546391D01*
X551065Y183776D01*
Y179832D01*
X556989D01*
Y181278D01*
X561025D01*
X561047Y181246D01*
X561576Y180893D01*
X562200Y180769D01*
X562824Y180893D01*
X563353Y181246D01*
X563707Y181776D01*
X563831Y182400D01*
X563707Y183024D01*
X563353Y183554D01*
X562824Y183907D01*
X562200Y184031D01*
X561576Y183907D01*
X561047Y183554D01*
X561025Y183522D01*
X556989D01*
Y184968D01*
X553044D01*
X548700Y189313D01*
Y192650D01*
X544500D01*
Y190722D01*
X539478D01*
Y192000D01*
X530798D01*
Y190722D01*
X528465D01*
X524922Y194265D01*
Y197700D01*
X525811Y197787D01*
X525811Y197787D01*
D01*
X525893Y197376D01*
X526247Y196846D01*
X526776Y196493D01*
X527400Y196369D01*
X528024Y196493D01*
X528158Y196582D01*
X530798D01*
Y195719D01*
X539478D01*
Y199281D01*
X530798D01*
Y198418D01*
X528948D01*
X528907Y198624D01*
X528553Y199153D01*
X528024Y199507D01*
X527400Y199631D01*
X526776Y199507D01*
X526247Y199153D01*
X525893Y198624D01*
X525811Y198213D01*
X525026Y198290D01*
X524922Y198300D01*
Y202500D01*
X525811Y202587D01*
X525811Y202587D01*
D01*
X525893Y202176D01*
X526247Y201646D01*
X526776Y201293D01*
X527400Y201169D01*
X528024Y201293D01*
X528458Y201582D01*
X530798D01*
Y200719D01*
X539478D01*
Y204281D01*
X530798D01*
Y203418D01*
X528908D01*
X528907Y203424D01*
X528553Y203954D01*
X528024Y204307D01*
X527400Y204431D01*
X526776Y204307D01*
X526247Y203954D01*
X525893Y203424D01*
X525811Y203013D01*
X525026Y203090D01*
X524922Y203100D01*
Y210900D01*
X525811Y210987D01*
X525769Y211200D01*
X525811Y211413D01*
X525026Y211490D01*
X524922Y211500D01*
Y221700D01*
X525811Y221787D01*
X525769Y222000D01*
X525811Y222213D01*
X525026Y222290D01*
X524922Y222300D01*
Y230888D01*
X526968D01*
Y232532D01*
X528456D01*
X528647Y232246D01*
X529176Y231893D01*
X529800Y231769D01*
X530424Y231893D01*
X530954Y232246D01*
X531307Y232776D01*
X531431Y233400D01*
X531307Y234024D01*
D01*
X531392Y234449D01*
X531422Y234469D01*
D01*
X531546Y234469D01*
Y234469D01*
X531546D01*
D01*
D01*
X531806D01*
Y234469D01*
X533082D01*
Y229281D01*
X530798D01*
Y225719D01*
X539478D01*
Y225856D01*
X540333Y226115D01*
X540647Y225646D01*
X541176Y225293D01*
X541300Y225268D01*
Y226799D01*
Y228332D01*
X541176Y228307D01*
X540647Y227954D01*
X540333Y227485D01*
X539478Y227744D01*
Y229281D01*
D01*
X539478Y229281D01*
X539478Y229281D01*
X539478D01*
Y229281D01*
X540110Y229913D01*
X539950D01*
Y233268D01*
Y236625D01*
X537610D01*
X537268Y237451D01*
X538392Y238575D01*
X543314D01*
Y238575D01*
X543886D01*
X543946Y238575D01*
X543946Y238575D01*
X543946Y238575D01*
X546250D01*
Y241930D01*
Y245286D01*
X543946D01*
X543946Y245286D01*
X543946Y245286D01*
X543886Y245286D01*
X543600D01*
X543314D01*
X543254Y245286D01*
X543254Y245286D01*
X543254Y245286D01*
X537587D01*
Y240365D01*
X536204Y238982D01*
X535378Y239324D01*
Y239400D01*
Y239587D01*
X535378Y239845D01*
X535378Y239845D01*
X535378Y239845D01*
Y241459D01*
X531422D01*
Y239845D01*
X531422Y239845D01*
X531422Y239845D01*
X531422Y239587D01*
Y239213D01*
D01*
D01*
D01*
X531422D01*
D01*
Y235188D01*
X531220Y235080D01*
D01*
X531123Y235029D01*
Y235029D01*
D01*
D01*
D01*
X530764Y234837D01*
Y234837D01*
X530634Y234767D01*
X530424Y234907D01*
X529800Y235031D01*
X529176Y234907D01*
X528978Y234775D01*
X526968D01*
Y236419D01*
X521832D01*
D01*
D01*
X521832Y236419D01*
X521568D01*
Y236419D01*
X516432D01*
D01*
D01*
X516432Y236419D01*
X516069D01*
Y236419D01*
X510931D01*
D01*
D01*
X510931Y236419D01*
X510669D01*
Y236419D01*
X505532D01*
Y230888D01*
X510669D01*
Y230888D01*
X510669D01*
X510669Y230888D01*
X510931D01*
Y230888D01*
X516069D01*
Y230888D01*
X516069D01*
X516069Y230888D01*
X516432D01*
Y230888D01*
X521568D01*
Y230888D01*
X521568D01*
X521568Y230888D01*
X521832D01*
D01*
X522678Y230888D01*
Y194573D01*
X522080Y193677D01*
X521988Y193601D01*
X521400Y193718D01*
X520776Y193594D01*
X520247Y193240D01*
X520225Y193208D01*
X519202D01*
Y194281D01*
X510522D01*
Y191150D01*
X510522Y191150D01*
X510522Y191150D01*
X510522Y190719D01*
X510321Y190518D01*
X507277D01*
X506118Y191677D01*
Y197351D01*
X506200Y197406D01*
X506507Y197865D01*
X506615Y198406D01*
Y202737D01*
X506507Y203278D01*
X506200Y203737D01*
X505741Y204044D01*
X505200Y204152D01*
X504659Y204044D01*
X504200Y203737D01*
Y203737D01*
X503641D01*
X503182Y204044D01*
X502641Y204152D01*
X502100Y204044D01*
X501641Y203737D01*
X501082D01*
X500623Y204044D01*
X500082Y204152D01*
X499541Y204044D01*
X499082Y203737D01*
X498523D01*
X498064Y204044D01*
X497523Y204152D01*
X496981Y204044D01*
X496523Y203737D01*
X495964D01*
X495505Y204044D01*
X494964Y204152D01*
X494422Y204044D01*
X493963Y203737D01*
X493405D01*
X492946Y204044D01*
X492405Y204152D01*
X491863Y204044D01*
X491551Y203836D01*
X490763Y204257D01*
Y209754D01*
X490693Y210105D01*
X490494Y210403D01*
X486702Y214196D01*
X487056Y214859D01*
X487138Y214981D01*
X487200Y214969D01*
X487824Y215093D01*
X488353Y215446D01*
X488707Y215976D01*
X488831Y216600D01*
X488831Y216600D01*
D01*
D01*
D01*
X489576Y216893D01*
X490200Y216769D01*
X490658Y216860D01*
X491155Y216117D01*
X491093Y216024D01*
X490969Y215400D01*
X491093Y214776D01*
X491446Y214247D01*
X491976Y213893D01*
X492600Y213769D01*
X493224Y213893D01*
X493753Y214247D01*
X494107Y214776D01*
X494231Y215400D01*
X494107Y216024D01*
X494045Y216117D01*
X494542Y216860D01*
X495000Y216769D01*
X495458Y216860D01*
X495955Y216117D01*
X495893Y216024D01*
X495769Y215400D01*
X495893Y214776D01*
X496246Y214247D01*
X496776Y213893D01*
X497400Y213769D01*
X498024Y213893D01*
X498554Y214247D01*
X498907Y214776D01*
X499031Y215400D01*
X498907Y216024D01*
X498554Y216553D01*
X498440Y216629D01*
Y216708D01*
X499247Y217247D01*
X499776Y216893D01*
X500400Y216769D01*
X500858Y216860D01*
X501355Y216117D01*
X501293Y216024D01*
X501169Y215400D01*
X501293Y214776D01*
X501647Y214247D01*
X502176Y213893D01*
X502800Y213769D01*
X503424Y213893D01*
X503954Y214247D01*
X504307Y214776D01*
X504431Y215400D01*
X504307Y216024D01*
X504245Y216117D01*
X504742Y216860D01*
X505200Y216769D01*
X505824Y216893D01*
X506354Y217247D01*
X506707Y217776D01*
X506831Y218400D01*
X506707Y219024D01*
X506354Y219553D01*
X506118Y219711D01*
Y220247D01*
X506587D01*
Y227353D01*
X503813D01*
X503813Y227353D01*
X503289Y227201D01*
X503182Y227272D01*
X502641Y227380D01*
X502100Y227272D01*
X501788Y227064D01*
X500999Y227485D01*
Y228502D01*
X502249Y229751D01*
X502448Y230049D01*
X502518Y230400D01*
X502518Y230400D01*
X502518Y230400D01*
Y230400D01*
Y231718D01*
X503635D01*
Y235918D01*
X499435D01*
Y231718D01*
X500682D01*
Y230780D01*
X499433Y229531D01*
X499247Y229253D01*
X498371Y229427D01*
X498371Y229428D01*
X498172Y229726D01*
X496843Y231054D01*
X497035Y231518D01*
X497035D01*
X497035Y231518D01*
Y235718D01*
X492835D01*
Y232630D01*
X492010Y232288D01*
X490849Y233449D01*
X490551Y233648D01*
X490435Y233671D01*
Y235718D01*
X486235D01*
Y232030D01*
X485410Y231688D01*
X484435Y232662D01*
Y235718D01*
X480457D01*
Y238018D01*
X484435D01*
Y240921D01*
X485410Y241895D01*
X486235Y241553D01*
Y238018D01*
X490435D01*
Y240921D01*
X492010Y242495D01*
X492835Y242153D01*
Y238018D01*
X497035D01*
Y241338D01*
X498380Y242682D01*
X499435D01*
Y242418D01*
X499435D01*
Y238218D01*
X503635D01*
Y239429D01*
X505532D01*
Y237581D01*
X510669D01*
Y237581D01*
X510669D01*
X510669Y237581D01*
X510931D01*
Y237581D01*
X516069D01*
Y237581D01*
X516069D01*
X516069Y237581D01*
X516432D01*
Y237581D01*
X521568D01*
Y237581D01*
X521568D01*
X521568Y237581D01*
X521832D01*
Y237581D01*
X526968D01*
Y243112D01*
X524986D01*
X522641Y245457D01*
X522983Y246282D01*
X548400D01*
X548751Y246352D01*
X549049Y246551D01*
X549049Y246551D01*
X549049Y246551D01*
X550249Y247751D01*
X550602Y247944D01*
X550602Y247944D01*
X551065Y247632D01*
X551069Y247632D01*
X551069Y247632D01*
Y247632D01*
X555009D01*
X556028Y246612D01*
Y245975D01*
X555997Y245953D01*
X555643Y245424D01*
X555519Y244800D01*
X555643Y244176D01*
X555997Y243647D01*
X556028Y243625D01*
Y241500D01*
X555050D01*
Y241500D01*
X554172D01*
X554232Y241200D01*
X554161Y240844D01*
X555050Y240757D01*
Y237300D01*
X559250D01*
Y241500D01*
X558272D01*
Y243625D01*
X558303Y243647D01*
X558657Y244176D01*
X558781Y244800D01*
X558657Y245424D01*
X558303Y245953D01*
X558272Y245975D01*
Y247077D01*
X558272Y247077D01*
X558186Y247506D01*
X557943Y247870D01*
X556989Y248824D01*
Y252768D01*
X556989D01*
Y252850D01*
X557621Y253482D01*
X566620D01*
X566682Y253420D01*
Y240318D01*
X565750D01*
Y241500D01*
X561550D01*
Y237300D01*
X565750D01*
Y238482D01*
X569888D01*
Y236831D01*
X575419D01*
Y241968D01*
X569888D01*
Y240318D01*
X568518D01*
Y253800D01*
X568448Y254151D01*
X568249Y254449D01*
X567649Y255049D01*
X567351Y255248D01*
X567000Y255318D01*
X550800D01*
X550449Y255248D01*
X550151Y255049D01*
X548951Y253849D01*
X548752Y253551D01*
X548682Y253200D01*
Y248780D01*
X548020Y248118D01*
X546167D01*
X545879Y248964D01*
X546534Y249466D01*
X547103Y250208D01*
X547461Y251073D01*
X547583Y252000D01*
X547461Y252927D01*
X547103Y253792D01*
X546534Y254534D01*
X545792Y255103D01*
X544927Y255461D01*
X544000Y255583D01*
X543073Y255461D01*
X542208Y255103D01*
X541466Y254534D01*
X540897Y253792D01*
X540539Y252927D01*
X540417Y252000D01*
X540539Y251073D01*
X540897Y250208D01*
X541466Y249466D01*
X542121Y248964D01*
X541833Y248118D01*
X536167D01*
X535879Y248964D01*
X536534Y249466D01*
X537103Y250208D01*
X537461Y251073D01*
X537583Y252000D01*
X537461Y252927D01*
X537103Y253792D01*
X536534Y254534D01*
X535792Y255103D01*
X534928Y255461D01*
X534000Y255583D01*
X533073Y255461D01*
X532208Y255103D01*
X531466Y254534D01*
X530897Y253792D01*
X530539Y252927D01*
X530417Y252000D01*
X530539Y251073D01*
X530897Y250208D01*
X531466Y249466D01*
X532121Y248964D01*
X531833Y248118D01*
X526167D01*
X525879Y248964D01*
X526534Y249466D01*
X527103Y250208D01*
X527461Y251073D01*
X527583Y252000D01*
X527461Y252927D01*
X527103Y253792D01*
X526534Y254534D01*
X525792Y255103D01*
X524928Y255461D01*
X524000Y255583D01*
X523072Y255461D01*
X522208Y255103D01*
X521466Y254534D01*
X520897Y253792D01*
X520539Y252927D01*
X520417Y252000D01*
X520539Y251073D01*
X520897Y250208D01*
X521466Y249466D01*
X522121Y248964D01*
X521833Y248118D01*
X516167D01*
X515879Y248964D01*
X516534Y249466D01*
X517103Y250208D01*
X517461Y251073D01*
X517583Y252000D01*
X517461Y252927D01*
X517103Y253792D01*
X516534Y254534D01*
X515792Y255103D01*
X514927Y255461D01*
X514000Y255583D01*
X513072Y255461D01*
X512208Y255103D01*
X511466Y254534D01*
X510897Y253792D01*
X510539Y252927D01*
X510417Y252000D01*
X510539Y251073D01*
X510897Y250208D01*
X511466Y249466D01*
X512121Y248964D01*
X511833Y248118D01*
X506167D01*
X505879Y248964D01*
X506534Y249466D01*
X507103Y250208D01*
X507461Y251073D01*
X507583Y252000D01*
X507461Y252927D01*
X507103Y253792D01*
X506534Y254534D01*
X505792Y255103D01*
X504927Y255461D01*
X504000Y255583D01*
X503073Y255461D01*
X502208Y255103D01*
X501466Y254534D01*
X500897Y253792D01*
X500539Y252927D01*
X500417Y252000D01*
X500539Y251073D01*
X500897Y250208D01*
X501466Y249466D01*
X502121Y248964D01*
X501833Y248118D01*
X496167D01*
X495879Y248964D01*
X496534Y249466D01*
X497103Y250208D01*
X497461Y251073D01*
X497583Y252000D01*
X497461Y252927D01*
X497103Y253792D01*
X496534Y254534D01*
X495792Y255103D01*
X494928Y255461D01*
X494000Y255583D01*
X493073Y255461D01*
X492208Y255103D01*
X491466Y254534D01*
X490897Y253792D01*
X490539Y252927D01*
X490417Y252000D01*
X490539Y251073D01*
X490897Y250208D01*
X491466Y249466D01*
X492121Y248964D01*
X491833Y248118D01*
X489180D01*
X487097Y250200D01*
X487103Y250208D01*
X487461Y251073D01*
X487583Y252000D01*
X487461Y252927D01*
X487103Y253792D01*
X486534Y254534D01*
X485792Y255103D01*
X484928Y255461D01*
X484000Y255583D01*
X483073Y255461D01*
X482208Y255103D01*
X481466Y254534D01*
X480897Y253792D01*
X480539Y252927D01*
X480417Y252000D01*
X480539Y251073D01*
X480897Y250208D01*
X481466Y249466D01*
X482208Y248897D01*
X483073Y248539D01*
X484000Y248417D01*
X484928Y248539D01*
X485792Y248897D01*
X485800Y248903D01*
X487612Y247091D01*
X487568Y246649D01*
X483138Y242218D01*
X480235D01*
Y241254D01*
X479410Y240912D01*
X479182Y241140D01*
X478818Y241383D01*
X478389Y241468D01*
X478369Y241570D01*
Y243112D01*
X473232D01*
D01*
D01*
X473232Y243112D01*
X473195D01*
X472935Y243967D01*
X473353Y244247D01*
X473707Y244776D01*
X473732Y244900D01*
X470668D01*
X470693Y244776D01*
X470978Y244348D01*
X470728Y243770D01*
X470559Y243517D01*
X468794Y243225D01*
X468112Y243803D01*
Y253903D01*
X468119D01*
X468235Y254777D01*
X468572Y255592D01*
X469109Y256291D01*
X469808Y256828D01*
X470623Y257165D01*
X471497Y257280D01*
Y257288D01*
X583303D01*
Y257280D01*
D02*
G37*
%LPC*%
G36*
X546100Y199150D02*
X544500D01*
Y197550D01*
X546100D01*
Y199150D01*
D02*
G37*
G36*
X563451Y198092D02*
X559263D01*
Y196002D01*
X560926D01*
X561596Y196090D01*
X562221Y196349D01*
X562758Y196760D01*
X563169Y197297D01*
X563428Y197922D01*
X563451Y198092D01*
D02*
G37*
G36*
X550800Y197112D02*
X550176Y196987D01*
X549647Y196634D01*
X549555Y196497D01*
X548700Y196757D01*
Y196550D01*
X547100D01*
Y194950D01*
X548700D01*
Y194950D01*
X549274D01*
X549293Y194856D01*
X549647Y194327D01*
X549678Y194305D01*
Y193800D01*
X549678Y193800D01*
X549764Y193371D01*
X550007Y193007D01*
X554207Y188807D01*
X554207Y188807D01*
X554571Y188564D01*
X554571Y188564D01*
X554571Y188564D01*
D01*
X554571Y188564D01*
X554571Y188564D01*
X555000Y188478D01*
X555000Y188478D01*
X574709D01*
X579411Y183776D01*
Y179832D01*
X585335D01*
Y184968D01*
X581391D01*
X575966Y190393D01*
X575602Y190636D01*
X575173Y190722D01*
X575173Y190722D01*
X555465D01*
X551922Y194265D01*
Y194305D01*
X551954Y194327D01*
X552307Y194856D01*
X552431Y195480D01*
X552307Y196105D01*
X551954Y196634D01*
X551424Y196987D01*
X550800Y197112D01*
D02*
G37*
G36*
X519202Y204281D02*
X510522D01*
Y200719D01*
X519202D01*
Y204281D01*
D02*
G37*
G36*
X574300Y204700D02*
X573268D01*
X573293Y204576D01*
X573646Y204047D01*
X574176Y203693D01*
X574300Y203668D01*
Y204700D01*
D02*
G37*
G36*
X576673Y201182D02*
X575601D01*
Y199092D01*
X579198D01*
X579176Y199262D01*
X578917Y199887D01*
X578505Y200424D01*
X577969Y200835D01*
X577344Y201094D01*
X576673Y201182D01*
D02*
G37*
G36*
X548700Y199150D02*
X547100D01*
Y197550D01*
X548700D01*
Y199150D01*
D02*
G37*
G36*
X574601Y201182D02*
X573529D01*
X572858Y201094D01*
X572233Y200835D01*
X571697Y200424D01*
X571285Y199887D01*
X571026Y199262D01*
X571004Y199092D01*
X574601D01*
Y201182D01*
D02*
G37*
G36*
X565900Y195332D02*
X565776Y195307D01*
X565246Y194954D01*
X564893Y194424D01*
X564868Y194300D01*
X565900D01*
Y195332D01*
D02*
G37*
G36*
X566900D02*
Y194300D01*
X567932D01*
X567907Y194424D01*
X567554Y194954D01*
X567024Y195307D01*
X566900Y195332D01*
D02*
G37*
G36*
X581500Y194732D02*
X581376Y194707D01*
X580847Y194353D01*
X580493Y193824D01*
X580468Y193700D01*
X581500D01*
Y194732D01*
D02*
G37*
G36*
X582500D02*
Y193700D01*
X583532D01*
X583507Y193824D01*
X583153Y194353D01*
X582624Y194707D01*
X582500Y194732D01*
D02*
G37*
G36*
X546100Y196550D02*
X544500D01*
Y194950D01*
X546100D01*
Y196550D01*
D02*
G37*
G36*
X579198Y198092D02*
X575601D01*
Y196001D01*
X576673D01*
X577344Y196089D01*
X577969Y196348D01*
X578505Y196760D01*
X578917Y197296D01*
X579176Y197921D01*
X579198Y198092D01*
D02*
G37*
G36*
X558263Y198092D02*
X554075D01*
X554098Y197922D01*
X554356Y197297D01*
X554768Y196760D01*
X555305Y196349D01*
X555930Y196090D01*
X556600Y196002D01*
X558263D01*
Y198092D01*
D02*
G37*
G36*
X519202Y199281D02*
X510522D01*
Y195719D01*
X519202D01*
Y199281D01*
D02*
G37*
G36*
X574601Y198092D02*
X571004D01*
X571026Y197921D01*
X571285Y197296D01*
X571697Y196760D01*
X572233Y196348D01*
X572858Y196089D01*
X573529Y196001D01*
X574601D01*
Y198092D01*
D02*
G37*
G36*
X576332Y204700D02*
X575300D01*
Y203668D01*
X575424Y203693D01*
X575953Y204047D01*
X576307Y204576D01*
X576332Y204700D01*
D02*
G37*
G36*
X566900Y209132D02*
Y208100D01*
X567932D01*
X567907Y208224D01*
X567554Y208753D01*
X567024Y209107D01*
X566900Y209132D01*
D02*
G37*
G36*
X504100Y209732D02*
X503976Y209707D01*
X503446Y209353D01*
X503093Y208824D01*
X503068Y208700D01*
X504100D01*
Y209732D01*
D02*
G37*
G36*
X583100Y208532D02*
Y207500D01*
X584132D01*
X584107Y207624D01*
X583753Y208154D01*
X583224Y208507D01*
X583100Y208532D01*
D02*
G37*
G36*
X565900Y209132D02*
X565776Y209107D01*
X565246Y208753D01*
X564893Y208224D01*
X564868Y208100D01*
X565900D01*
Y209132D01*
D02*
G37*
G36*
X505100Y209732D02*
Y208700D01*
X506132D01*
X506107Y208824D01*
X505754Y209353D01*
X505224Y209707D01*
X505100Y209732D01*
D02*
G37*
G36*
X526900Y210700D02*
X525868D01*
X525893Y210576D01*
X526247Y210047D01*
X526776Y209693D01*
X526900Y209668D01*
Y210700D01*
D02*
G37*
G36*
X528932D02*
X527900D01*
Y209668D01*
X528024Y209693D01*
X528553Y210047D01*
X528907Y210576D01*
X528932Y210700D01*
D02*
G37*
G36*
X546100Y210350D02*
X544500D01*
Y208750D01*
X546100D01*
Y210350D01*
D02*
G37*
G36*
X548700D02*
X547100D01*
Y208750D01*
X548700D01*
Y210350D01*
D02*
G37*
G36*
X582100Y208532D02*
X581976Y208507D01*
X581447Y208154D01*
X581093Y207624D01*
X581068Y207500D01*
X582100D01*
Y208532D01*
D02*
G37*
G36*
X574300Y206732D02*
X574176Y206707D01*
X573646Y206353D01*
X573293Y205824D01*
X573268Y205700D01*
X574300D01*
Y206732D01*
D02*
G37*
G36*
X575300D02*
Y205700D01*
X576332D01*
X576307Y205824D01*
X575953Y206353D01*
X575424Y206707D01*
X575300Y206732D01*
D02*
G37*
G36*
X582100Y206500D02*
X581068D01*
X581093Y206376D01*
X581447Y205847D01*
X581976Y205493D01*
X582100Y205468D01*
Y206500D01*
D02*
G37*
G36*
X584132D02*
X583100D01*
Y205468D01*
X583224Y205493D01*
X583753Y205847D01*
X584107Y206376D01*
X584132Y206500D01*
D02*
G37*
G36*
X519202Y209281D02*
X510522D01*
Y205719D01*
X519202D01*
Y209281D01*
D02*
G37*
G36*
X504100Y207700D02*
X503068D01*
X503093Y207576D01*
X503446Y207047D01*
X503976Y206693D01*
X504100Y206668D01*
Y207700D01*
D02*
G37*
G36*
X506132D02*
X505100D01*
Y206668D01*
X505224Y206693D01*
X505754Y207047D01*
X506107Y207576D01*
X506132Y207700D01*
D02*
G37*
G36*
X565900Y207100D02*
X564868D01*
X564893Y206976D01*
X565246Y206447D01*
X565776Y206093D01*
X565900Y206068D01*
Y207100D01*
D02*
G37*
G36*
X567932D02*
X566900D01*
Y206068D01*
X567024Y206093D01*
X567554Y206447D01*
X567907Y206976D01*
X567932Y207100D01*
D02*
G37*
G36*
X571900Y183932D02*
X571776Y183907D01*
X571246Y183554D01*
X570893Y183024D01*
X570868Y182900D01*
X571900D01*
Y183932D01*
D02*
G37*
G36*
X572900D02*
Y182900D01*
X573932D01*
X573907Y183024D01*
X573554Y183554D01*
X573024Y183907D01*
X572900Y183932D01*
D02*
G37*
G36*
X481700Y184718D02*
X481273Y184661D01*
X480408Y184303D01*
X479666Y183734D01*
X479097Y182992D01*
X478739Y182127D01*
X478682Y181700D01*
X481700D01*
Y184718D01*
D02*
G37*
G36*
X482700D02*
Y181700D01*
X485718D01*
X485661Y182127D01*
X485303Y182992D01*
X484734Y183734D01*
X483992Y184303D01*
X483127Y184661D01*
X482700Y184718D01*
D02*
G37*
G36*
X565900Y184900D02*
X564868D01*
X564893Y184776D01*
X565246Y184247D01*
X565776Y183893D01*
X565900Y183868D01*
Y184900D01*
D02*
G37*
G36*
X488132Y186100D02*
X487100D01*
Y185068D01*
X487224Y185093D01*
X487753Y185447D01*
X488107Y185976D01*
X488132Y186100D01*
D02*
G37*
G36*
X565900Y186932D02*
X565776Y186907D01*
X565246Y186554D01*
X564893Y186024D01*
X564868Y185900D01*
X565900D01*
Y186932D01*
D02*
G37*
G36*
X567932Y184900D02*
X566900D01*
Y183868D01*
X567024Y183893D01*
X567554Y184247D01*
X567907Y184776D01*
X567932Y184900D01*
D02*
G37*
G36*
X486100Y186100D02*
X485068D01*
X485093Y185976D01*
X485447Y185447D01*
X485976Y185093D01*
X486100Y185068D01*
Y186100D01*
D02*
G37*
G36*
X573932Y181900D02*
X572900D01*
Y180868D01*
X573024Y180893D01*
X573554Y181246D01*
X573907Y181776D01*
X573932Y181900D01*
D02*
G37*
G36*
X549100Y178532D02*
X548976Y178507D01*
X548447Y178154D01*
X548093Y177624D01*
X548068Y177500D01*
X549100D01*
Y178532D01*
D02*
G37*
G36*
X550100D02*
Y177500D01*
X551132D01*
X551107Y177624D01*
X550753Y178154D01*
X550224Y178507D01*
X550100Y178532D01*
D02*
G37*
G36*
X565300Y177700D02*
X564268D01*
X564293Y177576D01*
X564646Y177047D01*
X565176Y176693D01*
X565300Y176668D01*
Y177700D01*
D02*
G37*
G36*
X567332D02*
X566300D01*
Y176668D01*
X566424Y176693D01*
X566954Y177047D01*
X567307Y177576D01*
X567332Y177700D01*
D02*
G37*
G36*
X481700Y180700D02*
X478682D01*
X478739Y180273D01*
X479097Y179408D01*
X479666Y178666D01*
X480408Y178097D01*
X481273Y177739D01*
X481700Y177682D01*
Y180700D01*
D02*
G37*
G36*
X566300Y179732D02*
Y178700D01*
X567332D01*
X567307Y178824D01*
X566954Y179353D01*
X566424Y179707D01*
X566300Y179732D01*
D02*
G37*
G36*
X571900Y181900D02*
X570868D01*
X570893Y181776D01*
X571246Y181246D01*
X571776Y180893D01*
X571900Y180868D01*
Y181900D01*
D02*
G37*
G36*
X485718Y180700D02*
X482700D01*
Y177682D01*
X483127Y177739D01*
X483992Y178097D01*
X484734Y178666D01*
X485303Y179408D01*
X485661Y180273D01*
X485718Y180700D01*
D02*
G37*
G36*
X565300Y179732D02*
X565176Y179707D01*
X564646Y179353D01*
X564293Y178824D01*
X564268Y178700D01*
X565300D01*
Y179732D01*
D02*
G37*
G36*
X565900Y193300D02*
X564868D01*
X564893Y193176D01*
X565246Y192647D01*
X565776Y192293D01*
X565900Y192268D01*
Y193300D01*
D02*
G37*
G36*
X567932D02*
X566900D01*
Y192268D01*
X567024Y192293D01*
X567554Y192647D01*
X567907Y193176D01*
X567932Y193300D01*
D02*
G37*
G36*
X581500Y192700D02*
X580468D01*
X580493Y192576D01*
X580847Y192046D01*
X581376Y191693D01*
X581500Y191668D01*
Y192700D01*
D02*
G37*
G36*
X583532D02*
X582500D01*
Y191668D01*
X582624Y191693D01*
X583153Y192046D01*
X583507Y192576D01*
X583532Y192700D01*
D02*
G37*
G36*
X534638Y194281D02*
X530798D01*
Y193000D01*
X534638D01*
Y194281D01*
D02*
G37*
G36*
X472300Y196753D02*
X469247D01*
Y193700D01*
X472300D01*
Y196753D01*
D02*
G37*
G36*
X476353D02*
X473300D01*
Y193700D01*
X476353D01*
Y196753D01*
D02*
G37*
G36*
X539478Y194281D02*
X535638D01*
Y193000D01*
X539478D01*
Y194281D01*
D02*
G37*
G36*
X488150Y195300D02*
X486550D01*
Y193700D01*
X488150D01*
Y195300D01*
D02*
G37*
G36*
Y192700D02*
X486550D01*
Y191100D01*
X488150D01*
Y192700D01*
D02*
G37*
G36*
X497732Y187900D02*
X496700D01*
Y186868D01*
X496824Y186893D01*
X497354Y187247D01*
X497707Y187776D01*
X497732Y187900D01*
D02*
G37*
G36*
X486100Y188132D02*
X485976Y188107D01*
X485447Y187753D01*
X485093Y187224D01*
X485068Y187100D01*
X486100D01*
Y188132D01*
D02*
G37*
G36*
X566900Y186932D02*
Y185900D01*
X567932D01*
X567907Y186024D01*
X567554Y186554D01*
X567024Y186907D01*
X566900Y186932D01*
D02*
G37*
G36*
X495700Y187900D02*
X494668D01*
X494693Y187776D01*
X495047Y187247D01*
X495576Y186893D01*
X495700Y186868D01*
Y187900D01*
D02*
G37*
G36*
X487100Y188132D02*
Y187100D01*
X488132D01*
X488107Y187224D01*
X487753Y187753D01*
X487224Y188107D01*
X487100Y188132D01*
D02*
G37*
G36*
X472300Y192700D02*
X469247D01*
Y189647D01*
X472300D01*
Y192700D01*
D02*
G37*
G36*
X476353D02*
X473300D01*
Y189647D01*
X476353D01*
Y192700D01*
D02*
G37*
G36*
X495700Y189932D02*
X495576Y189907D01*
X495047Y189553D01*
X494693Y189024D01*
X494668Y188900D01*
X495700D01*
Y189932D01*
D02*
G37*
G36*
X496700D02*
Y188900D01*
X497732D01*
X497707Y189024D01*
X497354Y189553D01*
X496824Y189907D01*
X496700Y189932D01*
D02*
G37*
G36*
X549613Y245286D02*
X547250D01*
Y242431D01*
X549613D01*
Y245286D01*
D02*
G37*
G36*
X535378Y244331D02*
X533900D01*
Y242459D01*
X535378D01*
Y244331D01*
D02*
G37*
G36*
X530300Y245132D02*
Y243599D01*
Y242068D01*
X530424Y242093D01*
X530634Y242233D01*
X531422Y241812D01*
Y242459D01*
X532900D01*
Y244331D01*
X531422D01*
Y244331D01*
X531236Y244331D01*
X530954Y244754D01*
X530424Y245107D01*
X530300Y245132D01*
D02*
G37*
G36*
X529300Y243100D02*
X528268D01*
X528293Y242976D01*
X528647Y242446D01*
X529176Y242093D01*
X529300Y242068D01*
Y243100D01*
D02*
G37*
G36*
Y245132D02*
X529176Y245107D01*
X528647Y244754D01*
X528293Y244224D01*
X528268Y244100D01*
X529300D01*
Y245132D01*
D02*
G37*
G36*
X575500Y245500D02*
X574468D01*
X574493Y245376D01*
X574847Y244847D01*
X575376Y244493D01*
X575500Y244468D01*
Y245500D01*
D02*
G37*
G36*
X577532D02*
X576500D01*
Y244468D01*
X576624Y244493D01*
X577153Y244847D01*
X577507Y245376D01*
X577532Y245500D01*
D02*
G37*
G36*
X482500D02*
X481468D01*
X481493Y245376D01*
X481847Y244847D01*
X482376Y244493D01*
X482500Y244468D01*
Y245500D01*
D02*
G37*
G36*
X484532D02*
X483500D01*
Y244468D01*
X483624Y244493D01*
X484154Y244847D01*
X484507Y245376D01*
X484532Y245500D01*
D02*
G37*
G36*
X553100Y242732D02*
Y241700D01*
X554132D01*
X554107Y241824D01*
X553754Y242354D01*
X553224Y242707D01*
X553100Y242732D01*
D02*
G37*
G36*
X582112Y238900D02*
X579846D01*
Y236831D01*
X582112D01*
Y238900D01*
D02*
G37*
G36*
X549613Y241431D02*
X547250D01*
Y238575D01*
X549613D01*
Y241431D01*
D02*
G37*
G36*
X543946Y236625D02*
X543946Y236625D01*
X543886Y236625D01*
X543600D01*
X543314D01*
X543254Y236625D01*
X543254Y236625D01*
X543254Y236625D01*
X540950D01*
Y233268D01*
Y229913D01*
X543314D01*
X543314Y229913D01*
Y229913D01*
X543314D01*
X543886D01*
X543946Y229913D01*
X543946Y229913D01*
X543946Y229913D01*
X545682D01*
Y227531D01*
X544622D01*
Y224920D01*
X543120Y223418D01*
X539478D01*
Y224281D01*
X530798D01*
Y220719D01*
X539478D01*
Y221582D01*
X543500D01*
X543851Y221652D01*
X544622Y220499D01*
Y220541D01*
X548578D01*
Y222413D01*
D01*
Y222413D01*
X548578Y222413D01*
Y222787D01*
X548578D01*
Y223906D01*
X549433Y224166D01*
X549647Y223847D01*
X550176Y223493D01*
X550800Y223369D01*
X551424Y223493D01*
X551954Y223847D01*
X552007Y223927D01*
X553635D01*
Y223268D01*
Y221299D01*
Y219330D01*
Y217502D01*
X548578D01*
Y217502D01*
Y217669D01*
X548578Y218134D01*
X548578Y218134D01*
X548578Y218134D01*
Y219541D01*
X544622D01*
Y218134D01*
X544622Y218134D01*
X544622Y218134D01*
X544622Y217669D01*
X544454Y217502D01*
X540996D01*
X540649Y217849D01*
X540351Y218048D01*
X540000Y218118D01*
X539478D01*
Y219281D01*
X530798D01*
Y215719D01*
X539053D01*
X539396Y214893D01*
X538783Y214281D01*
X530798D01*
Y210719D01*
X539478D01*
Y212380D01*
X540796Y213698D01*
X544500D01*
Y212950D01*
X544500D01*
Y211350D01*
X548700D01*
Y212950D01*
X548700D01*
Y213066D01*
X549332Y213698D01*
X553635D01*
Y213425D01*
Y211456D01*
Y209488D01*
Y207519D01*
Y207273D01*
X552141D01*
X551954Y207554D01*
X551424Y207907D01*
X550800Y208031D01*
X550176Y207907D01*
X549647Y207554D01*
X549293Y207024D01*
X549179Y206450D01*
X548700D01*
Y206450D01*
X544848D01*
X543049Y208249D01*
X542751Y208448D01*
X542400Y208518D01*
X539478D01*
Y209281D01*
X530798D01*
Y205719D01*
X539478D01*
Y206682D01*
X542020D01*
X544500Y204202D01*
Y202250D01*
X548700D01*
Y205124D01*
X549555Y205383D01*
X549647Y205246D01*
X550176Y204893D01*
X550800Y204769D01*
X551424Y204893D01*
X551629Y205029D01*
X553635D01*
Y204370D01*
Y203501D01*
X556500D01*
Y202501D01*
X553635D01*
Y201220D01*
X554157D01*
X554749Y200448D01*
X554764Y200419D01*
X554356Y199888D01*
X554098Y199263D01*
X554075Y199092D01*
X563451D01*
X563428Y199263D01*
X563169Y199888D01*
X562758Y200424D01*
X562221Y200836D01*
X561596Y201095D01*
X560926Y201183D01*
X560098D01*
X559677Y201971D01*
X559913Y202325D01*
X560054Y202440D01*
X560731Y202306D01*
X561464Y202451D01*
X562086Y202867D01*
X562501Y203489D01*
X562647Y204222D01*
X562501Y204955D01*
X562086Y205577D01*
X561464Y205993D01*
X560731Y206138D01*
X560054Y206004D01*
X559913Y206119D01*
X559363Y206943D01*
Y207519D01*
Y209488D01*
Y210622D01*
X560151Y211043D01*
X560376Y210893D01*
X561000Y210769D01*
X561624Y210893D01*
X562153Y211246D01*
X562507Y211776D01*
X562631Y212400D01*
X562540Y212858D01*
X563283Y213355D01*
X563376Y213293D01*
X564000Y213169D01*
X564624Y213293D01*
X565154Y213647D01*
X565507Y214176D01*
X565631Y214800D01*
X565507Y215424D01*
X565154Y215953D01*
X564624Y216307D01*
X564000Y216431D01*
X563589Y216350D01*
X563491Y216600D01*
X563589Y216850D01*
X564000Y216769D01*
X564624Y216893D01*
X565154Y217247D01*
X565507Y217776D01*
X565631Y218400D01*
X565507Y219024D01*
X565154Y219553D01*
X564624Y219907D01*
X564000Y220031D01*
X563376Y219907D01*
X562847Y219553D01*
X562756Y219418D01*
X559363D01*
Y219743D01*
Y221299D01*
Y223268D01*
Y224257D01*
X559913Y225081D01*
X560054Y225196D01*
X560731Y225062D01*
X561464Y225207D01*
X562086Y225623D01*
X562501Y226245D01*
X562647Y226978D01*
X562501Y227711D01*
X562086Y228333D01*
X561464Y228748D01*
X560731Y228894D01*
X560054Y228760D01*
X559913Y228875D01*
X559363Y229699D01*
Y229979D01*
X559401Y230017D01*
X560926D01*
X561596Y230106D01*
X562221Y230365D01*
X562757Y230776D01*
X563169Y231313D01*
X563428Y231938D01*
X563450Y232108D01*
X554075D01*
X554098Y231938D01*
X554356Y231313D01*
X554765Y230781D01*
X554752Y230756D01*
X554156Y229979D01*
X553635D01*
Y228698D01*
X556500D01*
Y227698D01*
X553635D01*
Y226417D01*
Y226170D01*
X551929D01*
X551424Y226507D01*
X550800Y226631D01*
X550176Y226507D01*
X549647Y226153D01*
X549433Y225834D01*
X548578Y226094D01*
Y227531D01*
X547518D01*
Y229913D01*
X549613D01*
Y236625D01*
X543946D01*
X543946Y236625D01*
D02*
G37*
G36*
X578846Y238900D02*
X576581D01*
Y236831D01*
X578846D01*
Y238900D01*
D02*
G37*
G36*
X552100Y240700D02*
X551068D01*
X551093Y240576D01*
X551446Y240047D01*
X551976Y239693D01*
X552100Y239668D01*
Y240700D01*
D02*
G37*
G36*
X582112Y241968D02*
X579846D01*
Y239900D01*
X582112D01*
Y241968D01*
D02*
G37*
G36*
X552100Y242732D02*
X551976Y242707D01*
X551446Y242354D01*
X551093Y241824D01*
X551068Y241700D01*
X552100D01*
Y242732D01*
D02*
G37*
G36*
X554132Y240700D02*
X553100D01*
Y239668D01*
X553224Y239693D01*
X553754Y240047D01*
X554107Y240576D01*
X554132Y240700D01*
D02*
G37*
G36*
X578846Y241968D02*
X576581D01*
Y239900D01*
X578846D01*
Y241968D01*
D02*
G37*
G36*
X573932Y250900D02*
X572900D01*
Y249868D01*
X573024Y249893D01*
X573554Y250247D01*
X573907Y250776D01*
X573932Y250900D01*
D02*
G37*
G36*
X561100Y251132D02*
X560976Y251107D01*
X560447Y250753D01*
X560093Y250224D01*
X560068Y250100D01*
X561100D01*
Y251132D01*
D02*
G37*
G36*
X477553Y255553D02*
X470447D01*
Y248447D01*
X477553D01*
Y255553D01*
D02*
G37*
G36*
X571900Y250900D02*
X570868D01*
X570893Y250776D01*
X571246Y250247D01*
X571776Y249893D01*
X571900Y249868D01*
Y250900D01*
D02*
G37*
G36*
X562100Y251132D02*
Y250100D01*
X563132D01*
X563107Y250224D01*
X562753Y250753D01*
X562224Y251107D01*
X562100Y251132D01*
D02*
G37*
G36*
X571900Y252932D02*
X571776Y252907D01*
X571246Y252554D01*
X570893Y252024D01*
X570868Y251900D01*
X571900D01*
Y252932D01*
D02*
G37*
G36*
X572900D02*
Y251900D01*
X573932D01*
X573907Y252024D01*
X573554Y252554D01*
X573024Y252907D01*
X572900Y252932D01*
D02*
G37*
G36*
X581873Y252768D02*
X579411D01*
Y250700D01*
X581873D01*
Y252768D01*
D02*
G37*
G36*
X585335D02*
X582873D01*
Y250700D01*
X585335D01*
Y252768D01*
D02*
G37*
G36*
X563132Y249100D02*
X562100D01*
Y248068D01*
X562224Y248093D01*
X562753Y248446D01*
X563107Y248976D01*
X563132Y249100D01*
D02*
G37*
G36*
X482500Y247532D02*
X482376Y247507D01*
X481847Y247153D01*
X481493Y246624D01*
X481468Y246500D01*
X482500D01*
Y247532D01*
D02*
G37*
G36*
X483500D02*
Y246500D01*
X484532D01*
X484507Y246624D01*
X484154Y247153D01*
X483624Y247507D01*
X483500Y247532D01*
D02*
G37*
G36*
X471700Y246932D02*
X471576Y246907D01*
X471046Y246553D01*
X470693Y246024D01*
X470668Y245900D01*
X471700D01*
Y246932D01*
D02*
G37*
G36*
X472700D02*
Y245900D01*
X473732D01*
X473707Y246024D01*
X473353Y246553D01*
X472824Y246907D01*
X472700Y246932D01*
D02*
G37*
G36*
X575500Y247532D02*
X575376Y247507D01*
X574847Y247153D01*
X574493Y246624D01*
X574468Y246500D01*
X575500D01*
Y247532D01*
D02*
G37*
G36*
X585335Y249700D02*
X582873D01*
Y247632D01*
X585335D01*
Y249700D01*
D02*
G37*
G36*
X561100Y249100D02*
X560068D01*
X560093Y248976D01*
X560447Y248446D01*
X560976Y248093D01*
X561100Y248068D01*
Y249100D01*
D02*
G37*
G36*
X576500Y247532D02*
Y246500D01*
X577532D01*
X577507Y246624D01*
X577153Y247153D01*
X576624Y247507D01*
X576500Y247532D01*
D02*
G37*
G36*
X581873Y249700D02*
X579411D01*
Y247632D01*
X581873D01*
Y249700D01*
D02*
G37*
G36*
X574300Y220900D02*
X573268D01*
X573293Y220776D01*
X573646Y220247D01*
X574176Y219893D01*
X574300Y219868D01*
Y220900D01*
D02*
G37*
G36*
X576332D02*
X575300D01*
Y219868D01*
X575424Y219893D01*
X575953Y220247D01*
X576307Y220776D01*
X576332Y220900D01*
D02*
G37*
G36*
X582100Y219332D02*
X581976Y219307D01*
X581447Y218953D01*
X581093Y218424D01*
X581068Y218300D01*
X582100D01*
Y219332D01*
D02*
G37*
G36*
X583100D02*
Y218300D01*
X584132D01*
X584107Y218424D01*
X583753Y218953D01*
X583224Y219307D01*
X583100Y219332D01*
D02*
G37*
G36*
X526900Y221500D02*
X525868D01*
X525893Y221376D01*
X526247Y220847D01*
X526776Y220493D01*
X526900Y220468D01*
Y221500D01*
D02*
G37*
G36*
X574300Y222932D02*
X574176Y222907D01*
X573646Y222553D01*
X573293Y222024D01*
X573268Y221900D01*
X574300D01*
Y222932D01*
D02*
G37*
G36*
X575300D02*
Y221900D01*
X576332D01*
X576307Y222024D01*
X575953Y222553D01*
X575424Y222907D01*
X575300Y222932D01*
D02*
G37*
G36*
X528932Y221500D02*
X527900D01*
Y220468D01*
X528024Y220493D01*
X528553Y220847D01*
X528907Y221376D01*
X528932Y221500D01*
D02*
G37*
G36*
X519202Y224281D02*
X510522D01*
Y220719D01*
X519202D01*
Y224281D01*
D02*
G37*
G36*
X584132Y217300D02*
X583100D01*
Y216268D01*
X583224Y216293D01*
X583753Y216647D01*
X584107Y217176D01*
X584132Y217300D01*
D02*
G37*
G36*
X576332Y212500D02*
X575300D01*
Y211468D01*
X575424Y211493D01*
X575953Y211846D01*
X576307Y212376D01*
X576332Y212500D01*
D02*
G37*
G36*
X526900Y212732D02*
X526776Y212707D01*
X526247Y212353D01*
X525893Y211824D01*
X525868Y211700D01*
X526900D01*
Y212732D01*
D02*
G37*
G36*
X519202Y214281D02*
X510522D01*
Y210719D01*
X519202D01*
Y214281D01*
D02*
G37*
G36*
X574300Y212500D02*
X573268D01*
X573293Y212376D01*
X573646Y211846D01*
X574176Y211493D01*
X574300Y211468D01*
Y212500D01*
D02*
G37*
G36*
X527900Y212732D02*
Y211700D01*
X528932D01*
X528907Y211824D01*
X528553Y212353D01*
X528024Y212707D01*
X527900Y212732D01*
D02*
G37*
G36*
X519202Y219281D02*
X510522D01*
Y215719D01*
X519202D01*
Y219281D01*
D02*
G37*
G36*
X582100Y217300D02*
X581068D01*
X581093Y217176D01*
X581447Y216647D01*
X581976Y216293D01*
X582100Y216268D01*
Y217300D01*
D02*
G37*
G36*
X574300Y214532D02*
X574176Y214507D01*
X573646Y214154D01*
X573293Y213624D01*
X573268Y213500D01*
X574300D01*
Y214532D01*
D02*
G37*
G36*
X575300D02*
Y213500D01*
X576332D01*
X576307Y213624D01*
X575953Y214154D01*
X575424Y214507D01*
X575300Y214532D01*
D02*
G37*
G36*
X583100Y229532D02*
Y228500D01*
X584132D01*
X584107Y228624D01*
X583753Y229153D01*
X583224Y229507D01*
X583100Y229532D01*
D02*
G37*
G36*
X574601Y232108D02*
X571004D01*
X571026Y231937D01*
X571285Y231312D01*
X571697Y230776D01*
X572233Y230364D01*
X572858Y230105D01*
X573528Y230017D01*
X574601D01*
Y232108D01*
D02*
G37*
G36*
X542300Y228332D02*
Y227300D01*
X543332D01*
X543307Y227424D01*
X542953Y227954D01*
X542424Y228307D01*
X542300Y228332D01*
D02*
G37*
G36*
X582100Y229532D02*
X581976Y229507D01*
X581447Y229153D01*
X581093Y228624D01*
X581068Y228500D01*
X582100D01*
Y229532D01*
D02*
G37*
G36*
X579198Y232108D02*
X575601D01*
Y230017D01*
X576673D01*
X577344Y230105D01*
X577968Y230364D01*
X578505Y230776D01*
X578917Y231312D01*
X579176Y231937D01*
X579198Y232108D01*
D02*
G37*
G36*
X558263Y235199D02*
X556600D01*
X555929Y235111D01*
X555305Y234852D01*
X554768Y234440D01*
X554356Y233904D01*
X554098Y233279D01*
X554075Y233108D01*
X558263D01*
Y235199D01*
D02*
G37*
G36*
X560926D02*
X559263D01*
Y233108D01*
X563450D01*
X563428Y233279D01*
X563169Y233904D01*
X562757Y234440D01*
X562221Y234852D01*
X561596Y235111D01*
X560926Y235199D01*
D02*
G37*
G36*
X574601Y235198D02*
X573528D01*
X572858Y235110D01*
X572233Y234851D01*
X571697Y234439D01*
X571285Y233903D01*
X571026Y233278D01*
X571004Y233108D01*
X574601D01*
Y235198D01*
D02*
G37*
G36*
X576673D02*
X575601D01*
Y233108D01*
X579198D01*
X579176Y233278D01*
X578917Y233903D01*
X578505Y234439D01*
X577968Y234851D01*
X577344Y235110D01*
X576673Y235198D01*
D02*
G37*
G36*
X567500Y227732D02*
Y226700D01*
X568532D01*
X568507Y226824D01*
X568153Y227354D01*
X567624Y227707D01*
X567500Y227732D01*
D02*
G37*
G36*
X566500Y225700D02*
X565468D01*
X565493Y225576D01*
X565846Y225046D01*
X566376Y224693D01*
X566500Y224668D01*
Y225700D01*
D02*
G37*
G36*
X568532D02*
X567500D01*
Y224668D01*
X567624Y224693D01*
X568153Y225046D01*
X568507Y225576D01*
X568532Y225700D01*
D02*
G37*
G36*
X526900Y223532D02*
X526776Y223507D01*
X526247Y223153D01*
X525893Y222624D01*
X525868Y222500D01*
X526900D01*
Y223532D01*
D02*
G37*
G36*
X527900D02*
Y222500D01*
X528932D01*
X528907Y222624D01*
X528553Y223153D01*
X528024Y223507D01*
X527900Y223532D01*
D02*
G37*
G36*
X543332Y226300D02*
X542300D01*
Y225268D01*
X542424Y225293D01*
X542953Y225646D01*
X543307Y226176D01*
X543332Y226300D01*
D02*
G37*
G36*
X584132Y227500D02*
X583100D01*
Y226468D01*
X583224Y226493D01*
X583753Y226847D01*
X584107Y227376D01*
X584132Y227500D01*
D02*
G37*
G36*
X566500Y227732D02*
X566376Y227707D01*
X565846Y227354D01*
X565493Y226824D01*
X565468Y226700D01*
X566500D01*
Y227732D01*
D02*
G37*
G36*
X519202Y229281D02*
X510522D01*
Y225719D01*
X519202D01*
Y229281D01*
D02*
G37*
G36*
X582100Y227500D02*
X581068D01*
X581093Y227376D01*
X581447Y226847D01*
X581976Y226493D01*
X582100Y226468D01*
Y227500D01*
D02*
G37*
%LPD*%
D10*
X482168Y200572D02*
D03*
X484727Y200572D02*
D03*
X487287D02*
D03*
X489846Y200572D02*
D03*
X492405D02*
D03*
X494964D02*
D03*
X497523D02*
D03*
X500082D02*
D03*
X502641D02*
D03*
X505200Y200572D02*
D03*
X482168Y223800D02*
D03*
X484727D02*
D03*
X487287D02*
D03*
X489846D02*
D03*
X492405D02*
D03*
X494964D02*
D03*
X497523D02*
D03*
X500082D02*
D03*
X502641D02*
D03*
D11*
X505200D02*
D03*
D12*
X508100Y240346D02*
D03*
Y233654D02*
D03*
X513500Y240346D02*
D03*
Y233654D02*
D03*
X519000Y240346D02*
D03*
Y233654D02*
D03*
X524400Y240346D02*
D03*
Y233654D02*
D03*
X475800Y240346D02*
D03*
Y233654D02*
D03*
X470400Y240346D02*
D03*
Y233654D02*
D03*
D13*
X501535Y240318D02*
D03*
Y233818D02*
D03*
X494935Y240118D02*
D03*
Y233618D02*
D03*
X488335Y240118D02*
D03*
Y233618D02*
D03*
X482335Y240118D02*
D03*
Y233618D02*
D03*
X546600Y204350D02*
D03*
X546600Y210850D02*
D03*
Y197050D02*
D03*
X546600Y190550D02*
D03*
D14*
X546600Y220041D02*
D03*
Y225159D02*
D03*
X533400Y241959D02*
D03*
Y236841D02*
D03*
D15*
X514862Y227500D02*
D03*
Y222500D02*
D03*
Y217500D02*
D03*
Y212500D02*
D03*
Y207500D02*
D03*
Y202500D02*
D03*
Y197500D02*
D03*
Y192500D02*
D03*
X535138Y227500D02*
D03*
Y222500D02*
D03*
Y217500D02*
D03*
Y212500D02*
D03*
Y207500D02*
D03*
Y202500D02*
D03*
Y197500D02*
D03*
Y192500D02*
D03*
D16*
X556499Y208710D02*
D03*
Y210679D02*
D03*
Y212647D02*
D03*
Y214616D02*
D03*
Y216584D02*
D03*
Y218553D02*
D03*
Y220521D02*
D03*
Y222490D02*
D03*
D17*
Y225049D02*
D03*
Y228198D02*
D03*
Y206151D02*
D03*
Y203001D02*
D03*
D18*
X582373Y182400D02*
D03*
X554027D02*
D03*
X582373Y250200D02*
D03*
X554027D02*
D03*
D19*
X540450Y233269D02*
D03*
X546750Y241931D02*
D03*
X540450D02*
D03*
X546750Y233269D02*
D03*
D20*
X488650Y193200D02*
D03*
X482150Y193200D02*
D03*
X563650Y239400D02*
D03*
X557150Y239400D02*
D03*
D21*
X579346Y239400D02*
D03*
X572654D02*
D03*
D22*
X500082Y200400D02*
Y200572D01*
X502200Y180600D02*
Y181200D01*
X492405Y182805D02*
Y200572D01*
X492000Y182400D02*
X492405Y182805D01*
X507600Y186000D02*
X512400Y181200D01*
Y180600D02*
X512700Y180900D01*
X502641Y192159D02*
Y200572D01*
Y192159D02*
X506400Y188400D01*
X500082Y193021D02*
Y200572D01*
Y193021D02*
X505903Y187200D01*
X505406Y186000D02*
X507600D01*
X497523Y193883D02*
Y200572D01*
Y193883D02*
X505406Y186000D01*
X502200Y181200D02*
Y187509D01*
X494964Y194745D02*
Y200572D01*
Y194745D02*
X502200Y187509D01*
X505200Y191297D02*
Y200572D01*
Y191297D02*
X506897Y189600D01*
X472800Y220800D02*
X480000Y213600D01*
X472800Y220800D02*
Y223200D01*
Y226200D01*
X475800Y229200D01*
Y233654D01*
X468600Y226800D02*
X470400Y228600D01*
Y233654D01*
X468600Y219600D02*
Y226800D01*
Y219600D02*
X473400Y214800D01*
Y211800D02*
Y214800D01*
X472800Y212400D02*
X475200D01*
X476400Y211200D01*
X500082Y223800D02*
Y228882D01*
X501600Y230400D01*
Y232800D01*
X501000Y233400D02*
X501600Y232800D01*
X497523Y223800D02*
Y229077D01*
X495000Y231600D02*
X497523Y229077D01*
X494964Y223800D02*
Y228036D01*
X488400Y232800D02*
X490200D01*
X494964Y228036D01*
X492405Y223800D02*
Y228195D01*
X490800Y229800D02*
X492405Y228195D01*
X486000Y229800D02*
X490800D01*
X482400Y233400D02*
X486000Y229800D01*
X484727Y218473D02*
Y223800D01*
Y218473D02*
X484800Y218400D01*
X487200Y216600D02*
X487287Y216687D01*
Y223800D01*
X489846Y218754D02*
Y223800D01*
Y218754D02*
X490200Y218400D01*
X492405Y214995D02*
X492600Y214800D01*
Y215400D01*
X492405Y214995D02*
Y223800D01*
X494964Y218436D02*
Y223800D01*
Y218436D02*
X495000Y218400D01*
X497523Y215523D02*
Y223800D01*
X497400Y215400D02*
X497523Y215523D01*
X495000Y231600D02*
Y234000D01*
X500082Y218682D02*
Y223800D01*
X499800Y218400D02*
X500082Y218682D01*
X499800Y218400D02*
X500400D01*
X502641Y215559D02*
Y223800D01*
Y215559D02*
X502800Y215400D01*
X505200Y219000D02*
Y223800D01*
Y218400D02*
X505800D01*
X505200Y219000D02*
X505800Y218400D01*
X527700Y202500D02*
X535138D01*
X527400Y202800D02*
X527700Y202500D01*
X480000Y213600D02*
X486000D01*
X489846Y209754D01*
Y200572D02*
Y209754D01*
X476400Y211200D02*
X486000D01*
X487287Y209913D01*
Y200572D02*
Y209913D01*
X527500Y197500D02*
X535138D01*
X527400Y197400D02*
X527500Y197500D01*
X527400Y197400D02*
Y198000D01*
X482400Y200400D02*
Y208200D01*
X484800Y199800D02*
Y205800D01*
X573000Y239400D02*
X574200Y238200D01*
X535138Y222500D02*
X543500D01*
X546600Y225600D01*
Y234600D01*
X534000Y235480D02*
X540450Y241931D01*
X534000Y227913D02*
Y235480D01*
X540000Y217200D02*
X540616Y216584D01*
X536400Y217200D02*
X540000D01*
X535800Y217800D02*
X536400Y217200D01*
X540416Y214616D02*
X556499D01*
X536400Y213000D02*
X538800D01*
X540416Y214616D01*
X545650Y204350D02*
X546600D01*
X542400Y207600D02*
X545650Y204350D01*
X537000Y207600D02*
X542400D01*
X536400Y207000D02*
X537000Y207600D01*
X494935Y240118D02*
X495000Y240183D01*
X501563Y240346D02*
X508100D01*
X501535Y240318D02*
X501563Y240346D01*
X513500D02*
Y241300D01*
X498000Y243600D02*
X511200D01*
X495000Y240183D02*
Y240600D01*
X498000Y243600D01*
X511200D02*
X513500Y241300D01*
X519000Y240346D02*
Y242400D01*
X488335Y240118D02*
X493017Y244800D01*
X516600D02*
X519000Y242400D01*
X493017Y244800D02*
X516600D01*
X524400Y240346D02*
Y242400D01*
X488217Y246000D02*
X520800D01*
X482335Y240118D02*
X488217Y246000D01*
X520800D02*
X524400Y242400D01*
X484000Y252000D02*
X488800Y247200D01*
X556499Y214616D02*
X556683Y214800D01*
X540616Y216584D02*
X556499D01*
X560984D02*
X561000Y216600D01*
X556746Y212400D02*
X561000D01*
X556499Y212647D02*
X556746Y212400D01*
X556499Y216584D02*
X560984D01*
X556499Y214616D02*
X563216D01*
X563400Y214800D01*
X564000D01*
X563900Y218500D02*
X564000Y218400D01*
X562200Y218500D02*
X563900D01*
X556499Y218553D02*
X556552Y218500D01*
X562200D01*
X563650Y239400D02*
X567600D01*
X549600Y248400D02*
Y253200D01*
X550800Y254400D01*
X488800Y247200D02*
X548400D01*
X549600Y248400D01*
X567600Y239400D02*
X573000D01*
X550800Y254400D02*
X567000D01*
X567600Y253800D01*
Y239400D02*
Y253800D01*
X505903Y187200D02*
X513000D01*
X519000Y181200D01*
X523200D01*
X506400Y188400D02*
X514800D01*
X528000Y186000D02*
X528600Y185400D01*
X532800Y181200D01*
X506897Y189600D02*
X516000D01*
X514800Y188400D02*
X517200Y186000D01*
X528000D01*
X516000Y189600D02*
X517800Y187800D01*
X535800D02*
X543000Y180600D01*
X517800Y187800D02*
X535800D01*
D23*
X550849Y225049D02*
X556499D01*
X550800Y225000D02*
X550849Y225049D01*
X515276Y192087D02*
X521400D01*
X514862Y192500D02*
X515276Y192087D01*
X551049Y206151D02*
X556499D01*
X550800Y206400D02*
X551049Y206151D01*
X470400Y240346D02*
X475800D01*
X478389D01*
X479335Y239400D01*
Y218465D02*
Y239400D01*
X486900Y216300D02*
X487200Y216600D01*
X481500Y216300D02*
X486900D01*
X479335Y218465D02*
X481500Y216300D01*
X554027Y250200D02*
X557150Y247077D01*
X508100Y233654D02*
X513500D01*
X519000D01*
X524400D01*
X529546D01*
X557150Y239400D02*
Y244800D01*
Y247077D01*
X554027Y182400D02*
X562200D01*
X546600Y189827D02*
Y190550D01*
Y189827D02*
X554027Y182400D01*
X472200Y181200D02*
X479400Y188400D01*
X472800Y203200D02*
X479400Y196600D01*
X479406Y193200D02*
X482150D01*
X479400Y193206D02*
X479406Y193200D01*
X479400Y188400D02*
Y193206D01*
Y196600D01*
X523800Y193800D02*
X528000Y189600D01*
X523800Y233054D02*
X524400Y233654D01*
X523800Y193800D02*
Y233054D01*
X545650Y189600D02*
X546600Y190550D01*
X528000Y189600D02*
X545650D01*
X575173D02*
X582373Y182400D01*
X555000Y189600D02*
X575173D01*
X550800Y193800D02*
X555000Y189600D01*
X550800Y193800D02*
Y195480D01*
D24*
X558763Y198592D02*
D03*
X558763Y232608D02*
D03*
D25*
X575101Y198592D02*
D03*
X575101Y232608D02*
D03*
D26*
X560731Y204222D02*
D03*
Y226978D02*
D03*
D27*
X544000Y252000D02*
D03*
X534000D02*
D03*
X524000D02*
D03*
X514000D02*
D03*
X504000D02*
D03*
X494000D02*
D03*
X484000D02*
D03*
X472800Y203200D02*
D03*
Y213200D02*
D03*
Y223200D02*
D03*
X542200Y181200D02*
D03*
X532200D02*
D03*
X522200D02*
D03*
X512200D02*
D03*
X502200D02*
D03*
X492200D02*
D03*
X482200D02*
D03*
D28*
X474000Y252000D02*
D03*
X472200Y181200D02*
D03*
D29*
X472800Y193200D02*
D03*
D30*
X484800Y218400D02*
D03*
X487200Y216600D02*
D03*
X490200Y218400D02*
D03*
X492600Y215400D02*
D03*
X495000Y218400D02*
D03*
X497400Y215400D02*
D03*
X500400Y218400D02*
D03*
X502800Y215400D02*
D03*
X505200Y218400D02*
D03*
X527400Y202800D02*
D03*
X482400Y208200D02*
D03*
X527400Y198000D02*
D03*
X484800Y205800D02*
D03*
X550800Y225000D02*
D03*
X521400Y192087D02*
D03*
X550800Y206400D02*
D03*
X561000Y216600D02*
D03*
Y212400D02*
D03*
X564000Y214800D02*
D03*
Y218400D02*
D03*
X550800Y195480D02*
D03*
X529800Y233400D02*
D03*
X557150Y244800D02*
D03*
X562200Y182400D02*
D03*
X574800Y221400D02*
D03*
Y213000D02*
D03*
Y205200D02*
D03*
X582600Y217800D02*
D03*
Y228000D02*
D03*
Y207000D02*
D03*
X582000Y193200D02*
D03*
X566400Y193800D02*
D03*
X567000Y226200D02*
D03*
X504600Y208200D02*
D03*
X496200Y188400D02*
D03*
X486600Y186600D02*
D03*
X566400Y207600D02*
D03*
X483000Y246000D02*
D03*
X552600Y241200D02*
D03*
X572400Y251400D02*
D03*
X561600Y249600D02*
D03*
X572400Y182400D02*
D03*
X565800Y178200D02*
D03*
X566400Y185400D02*
D03*
X549600Y177000D02*
D03*
X527400Y211200D02*
D03*
Y222000D02*
D03*
X541800Y226800D02*
D03*
X472200Y245400D02*
D03*
X529800Y243600D02*
D03*
X576000Y246000D02*
D03*
X481800Y229200D02*
D03*
M02*
